<svg version="1.1" xmlns="http://www.w3.org/2000/svg" xmlns:xlink="http://www.w3.org/1999/xlink" width="1386.02197265625" height="760"><defs/><g><g><rect fill="#C0C0C0" stroke="none" x="445.786865234375" y="175" width="527.4482421875" height="326" transform="matrix(1 0 0 1 -10 -10)" fill-opacity="0.2"/></g><g><rect fill="#e9e9e9" stroke="none" x="438.786865234375" y="168" width="527.4482421875" height="326" transform="matrix(1 0 0 1 -10 -10)"/></g><g><path fill="none" stroke="#000000" paint-order="fill stroke markers" d=" M 428.786865234375 158 L 956.235107421875 158 L 956.235107421875 484 L 428.786865234375 484 L 428.786865234375 158 Z Z" stroke-miterlimit="10" stroke-dasharray=""/></g><g><path fill="none" stroke="#000000" paint-order="fill stroke markers" d=" M 428.786865234375 183 L 956.235107421875 183" stroke-miterlimit="10" stroke-dasharray=""/></g><g><path fill="none" stroke="#000000" paint-order="fill stroke markers" d=" M 428.786865234375 206 L 956.235107421875 206" stroke-miterlimit="10" stroke-dasharray=""/></g><g><g><path fill="none" stroke="none"/><text fill="#000000" stroke="none" font-family="Arial" font-size="13px" font-style="italic" font-weight="bold" text-decoration="undefined" x="703.010986328125" y="181.5" text-anchor="middle" dominant-baseline="central" transform="matrix(1 0 0 1 -10 -10)">BaseStorageAdaptor</text></g></g><g><g><path fill="none" stroke="none"/><text fill="#000000" stroke="none" font-family="Arial" font-size="13px" font-style="normal" font-weight="normal" text-decoration="undefined" x="443.786865234375" y="204.5" text-anchor="start" dominant-baseline="central" transform="matrix(1 0 0 1 -10 -10)">+config: dict</text></g></g><g><g><path fill="none" stroke="none"/><text fill="#000000" stroke="none" font-family="Arial" font-size="13px" font-style="normal" font-weight="normal" text-decoration="undefined" x="443.786865234375" y="227.5" text-anchor="start" dominant-baseline="central" transform="matrix(1 0 0 1 -10 -10)">+upload_file()</text></g></g><g><g><path fill="none" stroke="none"/><text fill="#000000" stroke="none" font-family="Arial" font-size="13px" font-style="normal" font-weight="normal" text-decoration="undefined" x="443.786865234375" y="242.5" text-anchor="start" dominant-baseline="central" transform="matrix(1 0 0 1 -10 -10)">+download_file()</text></g></g><g><g><path fill="none" stroke="none"/><text fill="#000000" stroke="none" font-family="Arial" font-size="13px" font-style="normal" font-weight="normal" text-decoration="undefined" x="443.786865234375" y="257.5" text-anchor="start" dominant-baseline="central" transform="matrix(1 0 0 1 -10 -10)">+delete_file()</text></g></g><g><g><path fill="none" stroke="none"/><text fill="#000000" stroke="none" font-family="Arial" font-size="13px" font-style="normal" font-weight="normal" text-decoration="undefined" x="443.786865234375" y="272.5" text-anchor="start" dominant-baseline="central" transform="matrix(1 0 0 1 -10 -10)">+list_files()</text></g></g><g><g><path fill="none" stroke="none"/><text fill="#000000" stroke="none" font-family="Arial" font-size="13px" font-style="normal" font-weight="normal" text-decoration="undefined" x="443.786865234375" y="287.5" text-anchor="start" dominant-baseline="central" transform="matrix(1 0 0 1 -10 -10)">+file_exists()</text></g></g><g><g><path fill="none" stroke="none"/><text fill="#000000" stroke="none" font-family="Arial" font-size="13px" font-style="normal" font-weight="normal" text-decoration="undefined" x="443.786865234375" y="302.5" text-anchor="start" dominant-baseline="central" transform="matrix(1 0 0 1 -10 -10)">+get_file_url()</text></g></g><g><g><path fill="none" stroke="none"/><text fill="#000000" stroke="none" font-family="Arial" font-size="13px" font-style="normal" font-weight="normal" text-decoration="undefined" x="443.786865234375" y="317.5" text-anchor="start" dominant-baseline="central" transform="matrix(1 0 0 1 -10 -10)">+upload_directory()</text></g></g><g><g><path fill="none" stroke="none"/><text fill="#000000" stroke="none" font-family="Arial" font-size="13px" font-style="normal" font-weight="normal" text-decoration="undefined" x="443.786865234375" y="332.5" text-anchor="start" dominant-baseline="central" transform="matrix(1 0 0 1 -10 -10)">+__init__(**kwargs)()</text></g></g><g><g><path fill="none" stroke="none"/><text fill="#000000" stroke="none" font-family="Arial" font-size="13px" font-style="normal" font-weight="normal" text-decoration="undefined" x="443.786865234375" y="347.5" text-anchor="start" dominant-baseline="central" transform="matrix(1 0 0 1 -10 -10)">+upload_file(local_path: str, remote_path: str, metadata: dict | None) : str()</text></g></g><g><g><path fill="none" stroke="none"/><text fill="#000000" stroke="none" font-family="Arial" font-size="13px" font-style="normal" font-weight="normal" text-decoration="undefined" x="443.786865234375" y="362.5" text-anchor="start" dominant-baseline="central" transform="matrix(1 0 0 1 -10 -10)">+download_file(remote_path: str, local_path: str) : None()</text></g></g><g><g><path fill="none" stroke="none"/><text fill="#000000" stroke="none" font-family="Arial" font-size="13px" font-style="normal" font-weight="normal" text-decoration="undefined" x="443.786865234375" y="377.5" text-anchor="start" dominant-baseline="central" transform="matrix(1 0 0 1 -10 -10)">+delete_file(remote_path: str) : None()</text></g></g><g><g><path fill="none" stroke="none"/><text fill="#000000" stroke="none" font-family="Arial" font-size="13px" font-style="normal" font-weight="normal" text-decoration="undefined" x="443.786865234375" y="392.5" text-anchor="start" dominant-baseline="central" transform="matrix(1 0 0 1 -10 -10)">+list_files(prefix: str, max_results: int) : list[StorageObject]()</text></g></g><g><g><path fill="none" stroke="none"/><text fill="#000000" stroke="none" font-family="Arial" font-size="13px" font-style="normal" font-weight="normal" text-decoration="undefined" x="443.786865234375" y="407.5" text-anchor="start" dominant-baseline="central" transform="matrix(1 0 0 1 -10 -10)">+file_exists(remote_path: str) : bool()</text></g></g><g><g><path fill="none" stroke="none"/><text fill="#000000" stroke="none" font-family="Arial" font-size="13px" font-style="normal" font-weight="normal" text-decoration="undefined" x="443.786865234375" y="422.5" text-anchor="start" dominant-baseline="central" transform="matrix(1 0 0 1 -10 -10)">+get_file_url(remote_path: str, expires_in: int) : str()</text></g></g><g><g><path fill="none" stroke="none"/><text fill="#000000" stroke="none" font-family="Arial" font-size="13px" font-style="normal" font-weight="normal" text-decoration="undefined" x="443.786865234375" y="437.5" text-anchor="start" dominant-baseline="central" transform="matrix(1 0 0 1 -10 -10)">+upload_directory(local_dir: str, remote_prefix: str, exclude_patterns: list | None) : list[str]()</text></g></g><g><g><path fill="none" stroke="none"/><text fill="#000000" stroke="none" font-family="Arial" font-size="13px" font-style="normal" font-weight="normal" text-decoration="undefined" x="443.786865234375" y="452.5" text-anchor="start" dominant-baseline="central" transform="matrix(1 0 0 1 -10 -10)">+download_directory(remote_prefix: str, local_dir: str) : list[str]()</text></g></g><g><g><path fill="none" stroke="none"/><text fill="#000000" stroke="none" font-family="Arial" font-size="13px" font-style="normal" font-weight="normal" text-decoration="undefined" x="443.786865234375" y="467.5" text-anchor="start" dominant-baseline="central" transform="matrix(1 0 0 1 -10 -10)">+get_file_size(remote_path: str) : int()</text></g></g><g><g><path fill="none" stroke="none"/><text fill="#000000" stroke="none" font-family="Arial" font-size="13px" font-style="normal" font-weight="normal" text-decoration="undefined" x="443.786865234375" y="482.5" text-anchor="start" dominant-baseline="central" transform="matrix(1 0 0 1 -10 -10)">+copy_file(source_path: str, dest_path: str) : None()</text></g></g><g><rect fill="#C0C0C0" stroke="none" x="659.510986328125" y="46" width="100" height="80" transform="matrix(1 0 0 1 -10 -10)" fill-opacity="0.2"/></g><g><rect fill="#e9e9e9" stroke="none" x="652.510986328125" y="39" width="100" height="80" transform="matrix(1 0 0 1 -10 -10)"/></g><g><path fill="none" stroke="#000000" paint-order="fill stroke markers" d=" M 642.510986328125 29 L 742.510986328125 29 L 742.510986328125 109 L 642.510986328125 109 L 642.510986328125 29 Z Z" stroke-miterlimit="10" stroke-dasharray=""/></g><g><g><path fill="none" stroke="none"/><text fill="#000000" stroke="none" font-family="Arial" font-size="13px" font-style="normal" font-weight="normal" text-decoration="undefined" x="703.010986328125" y="50.5" text-anchor="middle" dominant-baseline="central" transform="matrix(1 0 0 1 -10 -10)">«dataType»</text></g></g><g><g><path fill="none" stroke="none"/><text fill="#000000" stroke="none" font-family="Arial" font-size="13px" font-style="normal" font-weight="bold" text-decoration="undefined" x="703.010986328125" y="65.5" text-anchor="middle" dominant-baseline="central" transform="matrix(1 0 0 1 -10 -10)">StorageObject</text></g></g><g><rect fill="#C0C0C0" stroke="none" x="27" y="538.5" width="435.00732421875" height="221" transform="matrix(1 0 0 1 -10 -10)" fill-opacity="0.2"/></g><g><rect fill="#e9e9e9" stroke="none" x="20" y="531.5" width="435.00732421875" height="221" transform="matrix(1 0 0 1 -10 -10)"/></g><g><path fill="none" stroke="#000000" paint-order="fill stroke markers" d=" M 10 521.5 L 445.00732421875 521.5 L 445.00732421875 742.5 L 10 742.5 L 10 521.5 Z Z" stroke-miterlimit="10" stroke-dasharray=""/></g><g><path fill="none" stroke="#000000" paint-order="fill stroke markers" d=" M 10 546.5 L 445.00732421875 546.5" stroke-miterlimit="10" stroke-dasharray=""/></g><g><path fill="none" stroke="#000000" paint-order="fill stroke markers" d=" M 10 614.5 L 445.00732421875 614.5" stroke-miterlimit="10" stroke-dasharray=""/></g><g><g><path fill="none" stroke="none"/><text fill="#000000" stroke="none" font-family="Arial" font-size="13px" font-style="normal" font-weight="bold" text-decoration="undefined" x="238.003662109375" y="545" text-anchor="middle" dominant-baseline="central" transform="matrix(1 0 0 1 -10 -10)">S3StorageAdaptor</text></g></g><g><g><path fill="none" stroke="none"/><text fill="#000000" stroke="none" font-family="Arial" font-size="13px" font-style="normal" font-weight="normal" text-decoration="undefined" x="25" y="568" text-anchor="start" dominant-baseline="central" transform="matrix(1 0 0 1 -10 -10)">+bucket: str</text></g></g><g><g><path fill="none" stroke="none"/><text fill="#000000" stroke="none" font-family="Arial" font-size="13px" font-style="normal" font-weight="normal" text-decoration="undefined" x="25" y="583" text-anchor="start" dominant-baseline="central" transform="matrix(1 0 0 1 -10 -10)">+region: str</text></g></g><g><g><path fill="none" stroke="none"/><text fill="#000000" stroke="none" font-family="Arial" font-size="13px" font-style="normal" font-weight="normal" text-decoration="undefined" x="25" y="598" text-anchor="start" dominant-baseline="central" transform="matrix(1 0 0 1 -10 -10)">+s3_client: boto3.client</text></g></g><g><g><path fill="none" stroke="none"/><text fill="#000000" stroke="none" font-family="Arial" font-size="13px" font-style="normal" font-weight="normal" text-decoration="undefined" x="25" y="613" text-anchor="start" dominant-baseline="central" transform="matrix(1 0 0 1 -10 -10)">+s3_resource: boto3.resource</text></g></g><g><g><path fill="none" stroke="none"/><text fill="#000000" stroke="none" font-family="Arial" font-size="13px" font-style="normal" font-weight="normal" text-decoration="undefined" x="25" y="636" text-anchor="start" dominant-baseline="central" transform="matrix(1 0 0 1 -10 -10)">+__init__(**kwargs)()</text></g></g><g><g><path fill="none" stroke="none"/><text fill="#000000" stroke="none" font-family="Arial" font-size="13px" font-style="normal" font-weight="normal" text-decoration="undefined" x="25" y="651" text-anchor="start" dominant-baseline="central" transform="matrix(1 0 0 1 -10 -10)">+upload_file(local_path: str, remote_path: str, metadata: dict | None) : str()</text></g></g><g><g><path fill="none" stroke="none"/><text fill="#000000" stroke="none" font-family="Arial" font-size="13px" font-style="normal" font-weight="normal" text-decoration="undefined" x="25" y="666" text-anchor="start" dominant-baseline="central" transform="matrix(1 0 0 1 -10 -10)">+download_file(remote_path: str, local_path: str) : None()</text></g></g><g><g><path fill="none" stroke="none"/><text fill="#000000" stroke="none" font-family="Arial" font-size="13px" font-style="normal" font-weight="normal" text-decoration="undefined" x="25" y="681" text-anchor="start" dominant-baseline="central" transform="matrix(1 0 0 1 -10 -10)">+delete_file(remote_path: str) : None()</text></g></g><g><g><path fill="none" stroke="none"/><text fill="#000000" stroke="none" font-family="Arial" font-size="13px" font-style="normal" font-weight="normal" text-decoration="undefined" x="25" y="696" text-anchor="start" dominant-baseline="central" transform="matrix(1 0 0 1 -10 -10)">+list_files(prefix: str, max_results: int) : list[StorageObject]()</text></g></g><g><g><path fill="none" stroke="none"/><text fill="#000000" stroke="none" font-family="Arial" font-size="13px" font-style="normal" font-weight="normal" text-decoration="undefined" x="25" y="711" text-anchor="start" dominant-baseline="central" transform="matrix(1 0 0 1 -10 -10)">+file_exists(remote_path: str) : bool()</text></g></g><g><g><path fill="none" stroke="none"/><text fill="#000000" stroke="none" font-family="Arial" font-size="13px" font-style="normal" font-weight="normal" text-decoration="undefined" x="25" y="726" text-anchor="start" dominant-baseline="central" transform="matrix(1 0 0 1 -10 -10)">+get_file_url(remote_path: str, expires_in: int) : str()</text></g></g><g><g><path fill="none" stroke="none"/><text fill="#000000" stroke="none" font-family="Arial" font-size="13px" font-style="normal" font-weight="normal" text-decoration="undefined" x="25" y="741" text-anchor="start" dominant-baseline="central" transform="matrix(1 0 0 1 -10 -10)">+copy_file(source_path: str, dest_path: str) : None()</text></g></g><g><rect fill="#C0C0C0" stroke="none" x="492.00732421875" y="538.5" width="435.00732421875" height="221" transform="matrix(1 0 0 1 -10 -10)" fill-opacity="0.2"/></g><g><rect fill="#e9e9e9" stroke="none" x="485.00732421875" y="531.5" width="435.00732421875" height="221" transform="matrix(1 0 0 1 -10 -10)"/></g><g><path fill="none" stroke="#000000" paint-order="fill stroke markers" d=" M 475.00732421875 521.5 L 910.0146484375 521.5 L 910.0146484375 742.5 L 475.00732421875 742.5 L 475.00732421875 521.5 Z Z" stroke-miterlimit="10" stroke-dasharray=""/></g><g><path fill="none" stroke="#000000" paint-order="fill stroke markers" d=" M 475.00732421875 546.5 L 910.0146484375 546.5" stroke-miterlimit="10" stroke-dasharray=""/></g><g><path fill="none" stroke="#000000" paint-order="fill stroke markers" d=" M 475.00732421875 614.5 L 910.0146484375 614.5" stroke-miterlimit="10" stroke-dasharray=""/></g><g><g><path fill="none" stroke="none"/><text fill="#000000" stroke="none" font-family="Arial" font-size="13px" font-style="normal" font-weight="bold" text-decoration="undefined" x="703.010986328125" y="545" text-anchor="middle" dominant-baseline="central" transform="matrix(1 0 0 1 -10 -10)">GCSStorageAdaptor</text></g></g><g><g><path fill="none" stroke="none"/><text fill="#000000" stroke="none" font-family="Arial" font-size="13px" font-style="normal" font-weight="normal" text-decoration="undefined" x="490.00732421875" y="568" text-anchor="start" dominant-baseline="central" transform="matrix(1 0 0 1 -10 -10)">+bucket_name: str</text></g></g><g><g><path fill="none" stroke="none"/><text fill="#000000" stroke="none" font-family="Arial" font-size="13px" font-style="normal" font-weight="normal" text-decoration="undefined" x="490.00732421875" y="583" text-anchor="start" dominant-baseline="central" transform="matrix(1 0 0 1 -10 -10)">+project: str | None</text></g></g><g><g><path fill="none" stroke="none"/><text fill="#000000" stroke="none" font-family="Arial" font-size="13px" font-style="normal" font-weight="normal" text-decoration="undefined" x="490.00732421875" y="598" text-anchor="start" dominant-baseline="central" transform="matrix(1 0 0 1 -10 -10)">+storage_client: storage.Client</text></g></g><g><g><path fill="none" stroke="none"/><text fill="#000000" stroke="none" font-family="Arial" font-size="13px" font-style="normal" font-weight="normal" text-decoration="undefined" x="490.00732421875" y="613" text-anchor="start" dominant-baseline="central" transform="matrix(1 0 0 1 -10 -10)">+bucket: storage.Bucket</text></g></g><g><g><path fill="none" stroke="none"/><text fill="#000000" stroke="none" font-family="Arial" font-size="13px" font-style="normal" font-weight="normal" text-decoration="undefined" x="490.00732421875" y="636" text-anchor="start" dominant-baseline="central" transform="matrix(1 0 0 1 -10 -10)">+__init__(**kwargs)()</text></g></g><g><g><path fill="none" stroke="none"/><text fill="#000000" stroke="none" font-family="Arial" font-size="13px" font-style="normal" font-weight="normal" text-decoration="undefined" x="490.00732421875" y="651" text-anchor="start" dominant-baseline="central" transform="matrix(1 0 0 1 -10 -10)">+upload_file(local_path: str, remote_path: str, metadata: dict | None) : str()</text></g></g><g><g><path fill="none" stroke="none"/><text fill="#000000" stroke="none" font-family="Arial" font-size="13px" font-style="normal" font-weight="normal" text-decoration="undefined" x="490.00732421875" y="666" text-anchor="start" dominant-baseline="central" transform="matrix(1 0 0 1 -10 -10)">+download_file(remote_path: str, local_path: str) : None()</text></g></g><g><g><path fill="none" stroke="none"/><text fill="#000000" stroke="none" font-family="Arial" font-size="13px" font-style="normal" font-weight="normal" text-decoration="undefined" x="490.00732421875" y="681" text-anchor="start" dominant-baseline="central" transform="matrix(1 0 0 1 -10 -10)">+delete_file(remote_path: str) : None()</text></g></g><g><g><path fill="none" stroke="none"/><text fill="#000000" stroke="none" font-family="Arial" font-size="13px" font-style="normal" font-weight="normal" text-decoration="undefined" x="490.00732421875" y="696" text-anchor="start" dominant-baseline="central" transform="matrix(1 0 0 1 -10 -10)">+list_files(prefix: str, max_results: int) : list[StorageObject]()</text></g></g><g><g><path fill="none" stroke="none"/><text fill="#000000" stroke="none" font-family="Arial" font-size="13px" font-style="normal" font-weight="normal" text-decoration="undefined" x="490.00732421875" y="711" text-anchor="start" dominant-baseline="central" transform="matrix(1 0 0 1 -10 -10)">+file_exists(remote_path: str) : bool()</text></g></g><g><g><path fill="none" stroke="none"/><text fill="#000000" stroke="none" font-family="Arial" font-size="13px" font-style="normal" font-weight="normal" text-decoration="undefined" x="490.00732421875" y="726" text-anchor="start" dominant-baseline="central" transform="matrix(1 0 0 1 -10 -10)">+get_file_url(remote_path: str, expires_in: int) : str()</text></g></g><g><g><path fill="none" stroke="none"/><text fill="#000000" stroke="none" font-family="Arial" font-size="13px" font-style="normal" font-weight="normal" text-decoration="undefined" x="490.00732421875" y="741" text-anchor="start" dominant-baseline="central" transform="matrix(1 0 0 1 -10 -10)">+copy_file(source_path: str, dest_path: str) : None()</text></g></g><g><rect fill="#C0C0C0" stroke="none" x="957.0146484375" y="531" width="435.00732421875" height="236" transform="matrix(1 0 0 1 -10 -10)" fill-opacity="0.2"/></g><g><rect fill="#e9e9e9" stroke="none" x="950.0146484375" y="524" width="435.00732421875" height="236" transform="matrix(1 0 0 1 -10 -10)"/></g><g><path fill="none" stroke="#000000" paint-order="fill stroke markers" d=" M 940.0146484375 514 L 1375.02197265625 514 L 1375.02197265625 750 L 940.0146484375 750 L 940.0146484375 514 Z Z" stroke-miterlimit="10" stroke-dasharray=""/></g><g><path fill="none" stroke="#000000" paint-order="fill stroke markers" d=" M 940.0146484375 539 L 1375.02197265625 539" stroke-miterlimit="10" stroke-dasharray=""/></g><g><path fill="none" stroke="#000000" paint-order="fill stroke markers" d=" M 940.0146484375 622 L 1375.02197265625 622" stroke-miterlimit="10" stroke-dasharray=""/></g><g><g><path fill="none" stroke="none"/><text fill="#000000" stroke="none" font-family="Arial" font-size="13px" font-style="normal" font-weight="bold" text-decoration="undefined" x="1168.018310546875" y="537.5" text-anchor="middle" dominant-baseline="central" transform="matrix(1 0 0 1 -10 -10)">AzureStorageAdaptor</text></g></g><g><g><path fill="none" stroke="none"/><text fill="#000000" stroke="none" font-family="Arial" font-size="13px" font-style="normal" font-weight="normal" text-decoration="undefined" x="955.0146484375" y="560.5" text-anchor="start" dominant-baseline="central" transform="matrix(1 0 0 1 -10 -10)">+container_name: str</text></g></g><g><g><path fill="none" stroke="none"/><text fill="#000000" stroke="none" font-family="Arial" font-size="13px" font-style="normal" font-weight="normal" text-decoration="undefined" x="955.0146484375" y="575.5" text-anchor="start" dominant-baseline="central" transform="matrix(1 0 0 1 -10 -10)">+account_name: str | None</text></g></g><g><g><path fill="none" stroke="none"/><text fill="#000000" stroke="none" font-family="Arial" font-size="13px" font-style="normal" font-weight="normal" text-decoration="undefined" x="955.0146484375" y="590.5" text-anchor="start" dominant-baseline="central" transform="matrix(1 0 0 1 -10 -10)">+account_key: str | None</text></g></g><g><g><path fill="none" stroke="none"/><text fill="#000000" stroke="none" font-family="Arial" font-size="13px" font-style="normal" font-weight="normal" text-decoration="undefined" x="955.0146484375" y="605.5" text-anchor="start" dominant-baseline="central" transform="matrix(1 0 0 1 -10 -10)">+blob_service_client: BlobServiceClient</text></g></g><g><g><path fill="none" stroke="none"/><text fill="#000000" stroke="none" font-family="Arial" font-size="13px" font-style="normal" font-weight="normal" text-decoration="undefined" x="955.0146484375" y="620.5" text-anchor="start" dominant-baseline="central" transform="matrix(1 0 0 1 -10 -10)">+container_client: ContainerClient</text></g></g><g><g><path fill="none" stroke="none"/><text fill="#000000" stroke="none" font-family="Arial" font-size="13px" font-style="normal" font-weight="normal" text-decoration="undefined" x="955.0146484375" y="643.5" text-anchor="start" dominant-baseline="central" transform="matrix(1 0 0 1 -10 -10)">+__init__(**kwargs)()</text></g></g><g><g><path fill="none" stroke="none"/><text fill="#000000" stroke="none" font-family="Arial" font-size="13px" font-style="normal" font-weight="normal" text-decoration="undefined" x="955.0146484375" y="658.5" text-anchor="start" dominant-baseline="central" transform="matrix(1 0 0 1 -10 -10)">+upload_file(local_path: str, remote_path: str, metadata: dict | None) : str()</text></g></g><g><g><path fill="none" stroke="none"/><text fill="#000000" stroke="none" font-family="Arial" font-size="13px" font-style="normal" font-weight="normal" text-decoration="undefined" x="955.0146484375" y="673.5" text-anchor="start" dominant-baseline="central" transform="matrix(1 0 0 1 -10 -10)">+download_file(remote_path: str, local_path: str) : None()</text></g></g><g><g><path fill="none" stroke="none"/><text fill="#000000" stroke="none" font-family="Arial" font-size="13px" font-style="normal" font-weight="normal" text-decoration="undefined" x="955.0146484375" y="688.5" text-anchor="start" dominant-baseline="central" transform="matrix(1 0 0 1 -10 -10)">+delete_file(remote_path: str) : None()</text></g></g><g><g><path fill="none" stroke="none"/><text fill="#000000" stroke="none" font-family="Arial" font-size="13px" font-style="normal" font-weight="normal" text-decoration="undefined" x="955.0146484375" y="703.5" text-anchor="start" dominant-baseline="central" transform="matrix(1 0 0 1 -10 -10)">+list_files(prefix: str, max_results: int) : list[StorageObject]()</text></g></g><g><g><path fill="none" stroke="none"/><text fill="#000000" stroke="none" font-family="Arial" font-size="13px" font-style="normal" font-weight="normal" text-decoration="undefined" x="955.0146484375" y="718.5" text-anchor="start" dominant-baseline="central" transform="matrix(1 0 0 1 -10 -10)">+file_exists(remote_path: str) : bool()</text></g></g><g><g><path fill="none" stroke="none"/><text fill="#000000" stroke="none" font-family="Arial" font-size="13px" font-style="normal" font-weight="normal" text-decoration="undefined" x="955.0146484375" y="733.5" text-anchor="start" dominant-baseline="central" transform="matrix(1 0 0 1 -10 -10)">+get_file_url(remote_path: str, expires_in: int) : str()</text></g></g><g><g><path fill="none" stroke="none"/><text fill="#000000" stroke="none" font-family="Arial" font-size="13px" font-style="normal" font-weight="normal" text-decoration="undefined" x="955.0146484375" y="748.5" text-anchor="start" dominant-baseline="central" transform="matrix(1 0 0 1 -10 -10)">+copy_file(source_path: str, dest_path: str) : None()</text></g></g><g><path fill="none" stroke="#000000" paint-order="fill stroke markers" d=" M 228 521 Q 228 499 428 422" stroke-miterlimit="10" stroke-dasharray=""/></g><g><path fill="#FFFFFF" stroke="none" paint-order="stroke fill markers" d=" M 412.05675945920893 437.1595871005274 L 428 422 L 406.00697966074733 421.4458733382894"/></g><g><path fill="none" stroke="#000000" paint-order="fill stroke markers" d=" M 412.05675945920893 437.1595871005274 L 428 422 L 406.00697966074733 421.4458733382894 L 412.05675945920893 437.1595871005274" stroke-miterlimit="10" stroke-dasharray=""/></g><g><path fill="none" stroke="#000000" paint-order="fill stroke markers" d=" M 693 521 Q 693 499 693 485" stroke-miterlimit="10" stroke-dasharray=""/></g><g><path fill="#FFFFFF" stroke="none" paint-order="stroke fill markers" d=" M 701.419035512032 505.3253497152483 L 693 485 L 684.580964487968 505.3253497152483"/></g><g><path fill="none" stroke="#000000" paint-order="fill stroke markers" d=" M 701.419035512032 505.3253497152483 L 693 485 L 684.580964487968 505.3253497152483 L 701.419035512032 505.3253497152483" stroke-miterlimit="10" stroke-dasharray=""/></g><g><path fill="none" stroke="#000000" paint-order="fill stroke markers" d=" M 1158 513 Q 1158 499 957 422" stroke-miterlimit="10" stroke-dasharray=""/></g><g><path fill="#FFFFFF" stroke="none" paint-order="stroke fill markers" d=" M 978.9920647347208 421.4091627094933 L 957 422 L 972.9685231609097 437.1329530515194"/></g><g><path fill="none" stroke="#000000" paint-order="fill stroke markers" d=" M 978.9920647347208 421.4091627094933 L 957 422 L 972.9685231609097 437.1329530515194 L 978.9920647347208 421.4091627094933" stroke-miterlimit="10" stroke-dasharray=""/></g><g><path fill="none" stroke="#000000" paint-order="fill stroke markers" d=" M 693 157 Q 693 143 693 110" stroke-miterlimit="10" stroke-dasharray="3"/></g><g><path fill="none" stroke="#000000" paint-order="fill stroke markers" d=" M 697.209517756016 120.16267485762415 L 693 110 L 688.790482243984 120.16267485762415" stroke-miterlimit="10" stroke-dasharray=""/></g><g><rect fill="#C0C0C0" stroke="none" x="789.510986328125" y="27" width="229.43212890625" height="118" transform="matrix(1 0 0 1 -10 -10)" fill-opacity="0.2"/></g><g><rect fill="#e9e9e9" stroke="none" x="782.510986328125" y="20" width="229.43212890625" height="118" transform="matrix(1 0 0 1 -10 -10)"/></g><g><path fill="none" stroke="#000000" paint-order="fill stroke markers" d=" M 772.510986328125 10 L 1001.943115234375 10 L 1001.943115234375 128 L 772.510986328125 128 L 772.510986328125 10 Z Z" stroke-miterlimit="10" stroke-dasharray=""/></g><g><path fill="none" stroke="#000000" paint-order="fill stroke markers" d=" M 772.510986328125 35 L 1001.943115234375 35" stroke-miterlimit="10" stroke-dasharray=""/></g><g><path fill="none" stroke="#000000" paint-order="fill stroke markers" d=" M 772.510986328125 118 L 1001.943115234375 118" stroke-miterlimit="10" stroke-dasharray=""/></g><g><g><path fill="none" stroke="none"/><text fill="#000000" stroke="none" font-family="Arial" font-size="13px" font-style="normal" font-weight="bold" text-decoration="undefined" x="897.72705078125" y="33.5" text-anchor="middle" dominant-baseline="central" transform="matrix(1 0 0 1 -10 -10)">StorageObject</text></g></g><g><g><path fill="none" stroke="none"/><text fill="#000000" stroke="none" font-family="Arial" font-size="13px" font-style="normal" font-weight="normal" text-decoration="undefined" x="787.510986328125" y="56.5" text-anchor="start" dominant-baseline="central" transform="matrix(1 0 0 1 -10 -10)">+key: str</text></g></g><g><g><path fill="none" stroke="none"/><text fill="#000000" stroke="none" font-family="Arial" font-size="13px" font-style="normal" font-weight="normal" text-decoration="undefined" x="787.510986328125" y="71.5" text-anchor="start" dominant-baseline="central" transform="matrix(1 0 0 1 -10 -10)">+size: int</text></g></g><g><g><path fill="none" stroke="none"/><text fill="#000000" stroke="none" font-family="Arial" font-size="13px" font-style="normal" font-weight="normal" text-decoration="undefined" x="787.510986328125" y="86.5" text-anchor="start" dominant-baseline="central" transform="matrix(1 0 0 1 -10 -10)">+last_modified: str | None = None</text></g></g><g><g><path fill="none" stroke="none"/><text fill="#000000" stroke="none" font-family="Arial" font-size="13px" font-style="normal" font-weight="normal" text-decoration="undefined" x="787.510986328125" y="101.5" text-anchor="start" dominant-baseline="central" transform="matrix(1 0 0 1 -10 -10)">+etag: str | None = None</text></g></g><g><g><path fill="none" stroke="none"/><text fill="#000000" stroke="none" font-family="Arial" font-size="13px" font-style="normal" font-weight="normal" text-decoration="undefined" x="787.510986328125" y="116.5" text-anchor="start" dominant-baseline="central" transform="matrix(1 0 0 1 -10 -10)">+metadata: dict[str, str] | None = None</text></g></g></g></svg>