<svg version="1.1" xmlns="http://www.w3.org/2000/svg" xmlns:xlink="http://www.w3.org/1999/xlink" width="701.1759033203125" height="990.5"><defs/><g><g><rect fill="#C0C0C0" stroke="none" x="148.34716796875" y="308" width="189.93701171875" height="236" transform="matrix(1 0 0 1 -10 -10)" fill-opacity="0.2"/></g><g><rect fill="#e9e9e9" stroke="none" x="141.34716796875" y="301" width="189.93701171875" height="236" transform="matrix(1 0 0 1 -10 -10)"/></g><g><path fill="none" stroke="#000000" paint-order="fill stroke markers" d=" M 131.34716796875 291 L 321.2841796875 291 L 321.2841796875 527 L 131.34716796875 527 L 131.34716796875 291 Z Z" stroke-miterlimit="10" stroke-dasharray=""/></g><g><path fill="none" stroke="#000000" paint-order="fill stroke markers" d=" M 131.34716796875 316 L 321.2841796875 316" stroke-miterlimit="10" stroke-dasharray=""/></g><g><path fill="none" stroke="#000000" paint-order="fill stroke markers" d=" M 131.34716796875 429 L 321.2841796875 429" stroke-miterlimit="10" stroke-dasharray=""/></g><g><g><path fill="none" stroke="none"/><text fill="#000000" stroke="none" font-family="Arial" font-size="13px" font-style="normal" font-weight="bold" text-decoration="undefined" x="236.815673828125" y="314.5" text-anchor="middle" dominant-baseline="central" transform="matrix(1 0 0 1 -10 -10)">EmbeddingGenerator</text></g></g><g><g><path fill="none" stroke="none"/><text fill="#000000" stroke="none" font-family="Arial" font-size="13px" font-style="normal" font-weight="normal" text-decoration="undefined" x="146.34716796875" y="337.5" text-anchor="start" dominant-baseline="central" transform="matrix(1 0 0 1 -10 -10)">-api_key: str</text></g></g><g><g><path fill="none" stroke="none"/><text fill="#000000" stroke="none" font-family="Arial" font-size="13px" font-style="normal" font-weight="normal" text-decoration="undefined" x="146.34716796875" y="352.5" text-anchor="start" dominant-baseline="central" transform="matrix(1 0 0 1 -10 -10)">-voyage_api_key: str</text></g></g><g><g><path fill="none" stroke="none"/><text fill="#000000" stroke="none" font-family="Arial" font-size="13px" font-style="normal" font-weight="normal" text-decoration="undefined" x="146.34716796875" y="367.5" text-anchor="start" dominant-baseline="central" transform="matrix(1 0 0 1 -10 -10)">-cache_dir: str</text></g></g><g><g><path fill="none" stroke="none"/><text fill="#000000" stroke="none" font-family="Arial" font-size="13px" font-style="normal" font-weight="normal" text-decoration="undefined" x="146.34716796875" y="382.5" text-anchor="start" dominant-baseline="central" transform="matrix(1 0 0 1 -10 -10)">-openai_client: OpenAI</text></g></g><g><g><path fill="none" stroke="none"/><text fill="#000000" stroke="none" font-family="Arial" font-size="13px" font-style="normal" font-weight="normal" text-decoration="undefined" x="146.34716796875" y="397.5" text-anchor="start" dominant-baseline="central" transform="matrix(1 0 0 1 -10 -10)">-voyage_client: voyageai.Client</text></g></g><g><g><path fill="none" stroke="none"/><text fill="#000000" stroke="none" font-family="Arial" font-size="13px" font-style="normal" font-weight="normal" text-decoration="undefined" x="146.34716796875" y="412.5" text-anchor="start" dominant-baseline="central" transform="matrix(1 0 0 1 -10 -10)">-_st_models: dict</text></g></g><g><g><path fill="none" stroke="none"/><text fill="#000000" stroke="none" font-family="Arial" font-size="13px" font-style="normal" font-weight="normal" text-decoration="undefined" x="146.34716796875" y="427.5" text-anchor="start" dominant-baseline="central" transform="matrix(1 0 0 1 -10 -10)">+MODELS: dict</text></g></g><g><g><path fill="none" stroke="none"/><text fill="#000000" stroke="none" font-family="Arial" font-size="13px" font-style="normal" font-weight="normal" text-decoration="undefined" x="146.34716796875" y="450.5" text-anchor="start" dominant-baseline="central" transform="matrix(1 0 0 1 -10 -10)">+generate()</text></g></g><g><g><path fill="none" stroke="none"/><text fill="#000000" stroke="none" font-family="Arial" font-size="13px" font-style="normal" font-weight="normal" text-decoration="undefined" x="146.34716796875" y="465.5" text-anchor="start" dominant-baseline="central" transform="matrix(1 0 0 1 -10 -10)">+generate_batch()</text></g></g><g><g><path fill="none" stroke="none"/><text fill="#000000" stroke="none" font-family="Arial" font-size="13px" font-style="normal" font-weight="normal" text-decoration="undefined" x="146.34716796875" y="480.5" text-anchor="start" dominant-baseline="central" transform="matrix(1 0 0 1 -10 -10)">+get_model_info()</text></g></g><g><g><path fill="none" stroke="none"/><text fill="#000000" stroke="none" font-family="Arial" font-size="13px" font-style="normal" font-weight="normal" text-decoration="undefined" x="146.34716796875" y="495.5" text-anchor="start" dominant-baseline="central" transform="matrix(1 0 0 1 -10 -10)">+list_models()</text></g></g><g><g><path fill="none" stroke="none"/><text fill="#000000" stroke="none" font-family="Arial" font-size="13px" font-style="normal" font-weight="normal" text-decoration="undefined" x="146.34716796875" y="510.5" text-anchor="start" dominant-baseline="central" transform="matrix(1 0 0 1 -10 -10)">-_normalize()</text></g></g><g><g><path fill="none" stroke="none"/><text fill="#000000" stroke="none" font-family="Arial" font-size="13px" font-style="normal" font-weight="normal" text-decoration="undefined" x="146.34716796875" y="525.5" text-anchor="start" dominant-baseline="central" transform="matrix(1 0 0 1 -10 -10)">+compute_hash()</text></g></g><g><rect fill="#C0C0C0" stroke="none" x="39.996826171875" y="27" width="156.70068359375" height="251" transform="matrix(1 0 0 1 -10 -10)" fill-opacity="0.2"/></g><g><rect fill="#e9e9e9" stroke="none" x="32.996826171875" y="20" width="156.70068359375" height="251" transform="matrix(1 0 0 1 -10 -10)"/></g><g><path fill="none" stroke="#000000" paint-order="fill stroke markers" d=" M 22.996826171875 10 L 179.697509765625 10 L 179.697509765625 261 L 22.996826171875 261 L 22.996826171875 10 Z Z" stroke-miterlimit="10" stroke-dasharray=""/></g><g><path fill="none" stroke="#000000" paint-order="fill stroke markers" d=" M 22.996826171875 35 L 179.697509765625 35" stroke-miterlimit="10" stroke-dasharray=""/></g><g><path fill="none" stroke="#000000" paint-order="fill stroke markers" d=" M 22.996826171875 88 L 179.697509765625 88" stroke-miterlimit="10" stroke-dasharray=""/></g><g><g><path fill="none" stroke="none"/><text fill="#000000" stroke="none" font-family="Arial" font-size="13px" font-style="normal" font-weight="bold" text-decoration="undefined" x="111.84716796875" y="33.5" text-anchor="middle" dominant-baseline="central" transform="matrix(1 0 0 1 -10 -10)">EmbeddingCache</text></g></g><g><g><path fill="none" stroke="none"/><text fill="#000000" stroke="none" font-family="Arial" font-size="13px" font-style="normal" font-weight="normal" text-decoration="undefined" x="37.996826171875" y="56.5" text-anchor="start" dominant-baseline="central" transform="matrix(1 0 0 1 -10 -10)">-db_path: str</text></g></g><g><g><path fill="none" stroke="none"/><text fill="#000000" stroke="none" font-family="Arial" font-size="13px" font-style="normal" font-weight="normal" text-decoration="undefined" x="37.996826171875" y="71.5" text-anchor="start" dominant-baseline="central" transform="matrix(1 0 0 1 -10 -10)">-ttl_days: int</text></g></g><g><g><path fill="none" stroke="none"/><text fill="#000000" stroke="none" font-family="Arial" font-size="13px" font-style="normal" font-weight="normal" text-decoration="undefined" x="37.996826171875" y="86.5" text-anchor="start" dominant-baseline="central" transform="matrix(1 0 0 1 -10 -10)">-conn: sqlite3.Connection</text></g></g><g><g><path fill="none" stroke="none"/><text fill="#000000" stroke="none" font-family="Arial" font-size="13px" font-style="normal" font-weight="normal" text-decoration="undefined" x="37.996826171875" y="109.5" text-anchor="start" dominant-baseline="central" transform="matrix(1 0 0 1 -10 -10)">+get()</text></g></g><g><g><path fill="none" stroke="none"/><text fill="#000000" stroke="none" font-family="Arial" font-size="13px" font-style="normal" font-weight="normal" text-decoration="undefined" x="37.996826171875" y="124.5" text-anchor="start" dominant-baseline="central" transform="matrix(1 0 0 1 -10 -10)">+put()</text></g></g><g><g><path fill="none" stroke="none"/><text fill="#000000" stroke="none" font-family="Arial" font-size="13px" font-style="normal" font-weight="normal" text-decoration="undefined" x="37.996826171875" y="139.5" text-anchor="start" dominant-baseline="central" transform="matrix(1 0 0 1 -10 -10)">+set()</text></g></g><g><g><path fill="none" stroke="none"/><text fill="#000000" stroke="none" font-family="Arial" font-size="13px" font-style="normal" font-weight="normal" text-decoration="undefined" x="37.996826171875" y="154.5" text-anchor="start" dominant-baseline="central" transform="matrix(1 0 0 1 -10 -10)">+get_batch()</text></g></g><g><g><path fill="none" stroke="none"/><text fill="#000000" stroke="none" font-family="Arial" font-size="13px" font-style="normal" font-weight="normal" text-decoration="undefined" x="37.996826171875" y="169.5" text-anchor="start" dominant-baseline="central" transform="matrix(1 0 0 1 -10 -10)">+has()</text></g></g><g><g><path fill="none" stroke="none"/><text fill="#000000" stroke="none" font-family="Arial" font-size="13px" font-style="normal" font-weight="normal" text-decoration="undefined" x="37.996826171875" y="184.5" text-anchor="start" dominant-baseline="central" transform="matrix(1 0 0 1 -10 -10)">+delete()</text></g></g><g><g><path fill="none" stroke="none"/><text fill="#000000" stroke="none" font-family="Arial" font-size="13px" font-style="normal" font-weight="normal" text-decoration="undefined" x="37.996826171875" y="199.5" text-anchor="start" dominant-baseline="central" transform="matrix(1 0 0 1 -10 -10)">+clear()</text></g></g><g><g><path fill="none" stroke="none"/><text fill="#000000" stroke="none" font-family="Arial" font-size="13px" font-style="normal" font-weight="normal" text-decoration="undefined" x="37.996826171875" y="214.5" text-anchor="start" dominant-baseline="central" transform="matrix(1 0 0 1 -10 -10)">+clear_expired()</text></g></g><g><g><path fill="none" stroke="none"/><text fill="#000000" stroke="none" font-family="Arial" font-size="13px" font-style="normal" font-weight="normal" text-decoration="undefined" x="37.996826171875" y="229.5" text-anchor="start" dominant-baseline="central" transform="matrix(1 0 0 1 -10 -10)">+size()</text></g></g><g><g><path fill="none" stroke="none"/><text fill="#000000" stroke="none" font-family="Arial" font-size="13px" font-style="normal" font-weight="normal" text-decoration="undefined" x="37.996826171875" y="244.5" text-anchor="start" dominant-baseline="central" transform="matrix(1 0 0 1 -10 -10)">+stats()</text></g></g><g><g><path fill="none" stroke="none"/><text fill="#000000" stroke="none" font-family="Arial" font-size="13px" font-style="normal" font-weight="normal" text-decoration="undefined" x="37.996826171875" y="259.5" text-anchor="start" dominant-baseline="central" transform="matrix(1 0 0 1 -10 -10)">+close()</text></g></g><g><rect fill="#C0C0C0" stroke="none" x="27" y="574" width="182.6943359375" height="191" transform="matrix(1 0 0 1 -10 -10)" fill-opacity="0.2"/></g><g><rect fill="#e9e9e9" stroke="none" x="20" y="567" width="182.6943359375" height="191" transform="matrix(1 0 0 1 -10 -10)"/></g><g><path fill="none" stroke="#000000" paint-order="fill stroke markers" d=" M 10 557 L 192.6943359375 557 L 192.6943359375 748 L 10 748 L 10 557 Z Z" stroke-miterlimit="10" stroke-dasharray=""/></g><g><path fill="none" stroke="#000000" paint-order="fill stroke markers" d=" M 10 582 L 192.6943359375 582" stroke-miterlimit="10" stroke-dasharray=""/></g><g><path fill="none" stroke="#000000" paint-order="fill stroke markers" d=" M 10 650 L 192.6943359375 650" stroke-miterlimit="10" stroke-dasharray=""/></g><g><g><path fill="none" stroke="none"/><text fill="#000000" stroke="none" font-family="Arial" font-size="13px" font-style="normal" font-weight="bold" text-decoration="undefined" x="111.84716796875" y="580.5" text-anchor="middle" dominant-baseline="central" transform="matrix(1 0 0 1 -10 -10)">EmbeddingPipeline</text></g></g><g><g><path fill="none" stroke="none"/><text fill="#000000" stroke="none" font-family="Arial" font-size="13px" font-style="normal" font-weight="normal" text-decoration="undefined" x="25" y="603.5" text-anchor="start" dominant-baseline="central" transform="matrix(1 0 0 1 -10 -10)">-config: EmbeddingConfig</text></g></g><g><g><path fill="none" stroke="none"/><text fill="#000000" stroke="none" font-family="Arial" font-size="13px" font-style="normal" font-weight="normal" text-decoration="undefined" x="25" y="618.5" text-anchor="start" dominant-baseline="central" transform="matrix(1 0 0 1 -10 -10)">-provider: EmbeddingProvider</text></g></g><g><g><path fill="none" stroke="none"/><text fill="#000000" stroke="none" font-family="Arial" font-size="13px" font-style="normal" font-weight="normal" text-decoration="undefined" x="25" y="633.5" text-anchor="start" dominant-baseline="central" transform="matrix(1 0 0 1 -10 -10)">-cache: EmbeddingCache</text></g></g><g><g><path fill="none" stroke="none"/><text fill="#000000" stroke="none" font-family="Arial" font-size="13px" font-style="normal" font-weight="normal" text-decoration="undefined" x="25" y="648.5" text-anchor="start" dominant-baseline="central" transform="matrix(1 0 0 1 -10 -10)">-cost_tracker: CostTracker</text></g></g><g><g><path fill="none" stroke="none"/><text fill="#000000" stroke="none" font-family="Arial" font-size="13px" font-style="normal" font-weight="normal" text-decoration="undefined" x="25" y="671.5" text-anchor="start" dominant-baseline="central" transform="matrix(1 0 0 1 -10 -10)">+run()</text></g></g><g><g><path fill="none" stroke="none"/><text fill="#000000" stroke="none" font-family="Arial" font-size="13px" font-style="normal" font-weight="normal" text-decoration="undefined" x="25" y="686.5" text-anchor="start" dominant-baseline="central" transform="matrix(1 0 0 1 -10 -10)">+generate_batch()</text></g></g><g><g><path fill="none" stroke="none"/><text fill="#000000" stroke="none" font-family="Arial" font-size="13px" font-style="normal" font-weight="normal" text-decoration="undefined" x="25" y="701.5" text-anchor="start" dominant-baseline="central" transform="matrix(1 0 0 1 -10 -10)">+validate_dimensions()</text></g></g><g><g><path fill="none" stroke="none"/><text fill="#000000" stroke="none" font-family="Arial" font-size="13px" font-style="normal" font-weight="normal" text-decoration="undefined" x="25" y="716.5" text-anchor="start" dominant-baseline="central" transform="matrix(1 0 0 1 -10 -10)">+get_cost_stats()</text></g></g><g><g><path fill="none" stroke="none"/><text fill="#000000" stroke="none" font-family="Arial" font-size="13px" font-style="normal" font-weight="normal" text-decoration="undefined" x="25" y="731.5" text-anchor="start" dominant-baseline="central" transform="matrix(1 0 0 1 -10 -10)">-_create_provider()</text></g></g><g><g><path fill="none" stroke="none"/><text fill="#000000" stroke="none" font-family="Arial" font-size="13px" font-style="normal" font-weight="normal" text-decoration="undefined" x="25" y="746.5" text-anchor="start" dominant-baseline="central" transform="matrix(1 0 0 1 -10 -10)">-_estimate_tokens()</text></g></g><g><rect fill="#C0C0C0" stroke="none" x="400.2841796875" y="622" width="155.6279296875" height="88" transform="matrix(1 0 0 1 -10 -10)" fill-opacity="0.2"/></g><g><rect fill="#e9e9e9" stroke="none" x="393.2841796875" y="615" width="155.6279296875" height="88" transform="matrix(1 0 0 1 -10 -10)"/></g><g><path fill="none" stroke="#000000" paint-order="fill stroke markers" d=" M 383.2841796875 605 L 538.912109375 605 L 538.912109375 693 L 383.2841796875 693 L 383.2841796875 605 Z Z" stroke-miterlimit="10" stroke-dasharray=""/></g><g><path fill="none" stroke="#000000" paint-order="fill stroke markers" d=" M 383.2841796875 630 L 538.912109375 630" stroke-miterlimit="10" stroke-dasharray=""/></g><g><path fill="none" stroke="#000000" paint-order="fill stroke markers" d=" M 383.2841796875 640 L 538.912109375 640" stroke-miterlimit="10" stroke-dasharray=""/></g><g><g><path fill="none" stroke="none"/><text fill="#000000" stroke="none" font-family="Arial" font-size="13px" font-style="italic" font-weight="bold" text-decoration="undefined" x="471.59814453125" y="628.5" text-anchor="middle" dominant-baseline="central" transform="matrix(1 0 0 1 -10 -10)">EmbeddingProvider</text></g></g><g><g><path fill="none" stroke="none"/><text fill="#000000" stroke="none" font-family="Arial" font-size="13px" font-style="normal" font-weight="normal" text-decoration="undefined" x="398.2841796875" y="661.5" text-anchor="start" dominant-baseline="central" transform="matrix(1 0 0 1 -10 -10)">+generate_embeddings()</text></g></g><g><g><path fill="none" stroke="none"/><text fill="#000000" stroke="none" font-family="Arial" font-size="13px" font-style="normal" font-weight="normal" text-decoration="undefined" x="398.2841796875" y="676.5" text-anchor="start" dominant-baseline="central" transform="matrix(1 0 0 1 -10 -10)">+get_dimension()</text></g></g><g><g><path fill="none" stroke="none"/><text fill="#000000" stroke="none" font-family="Arial" font-size="13px" font-style="normal" font-weight="normal" text-decoration="undefined" x="398.2841796875" y="691.5" text-anchor="start" dominant-baseline="central" transform="matrix(1 0 0 1 -10 -10)">+estimate_cost()</text></g></g><g><rect fill="#C0C0C0" stroke="none" x="329.9605712890625" y="821.5" width="179.74267578125" height="176" transform="matrix(1 0 0 1 -10 -10)" fill-opacity="0.2"/></g><g><rect fill="#e9e9e9" stroke="none" x="322.9605712890625" y="814.5" width="179.74267578125" height="176" transform="matrix(1 0 0 1 -10 -10)"/></g><g><path fill="none" stroke="#000000" paint-order="fill stroke markers" d=" M 312.9605712890625 804.5 L 492.7032470703125 804.5 L 492.7032470703125 980.5 L 312.9605712890625 980.5 L 312.9605712890625 804.5 Z Z" stroke-miterlimit="10" stroke-dasharray=""/></g><g><path fill="none" stroke="#000000" paint-order="fill stroke markers" d=" M 312.9605712890625 829.5 L 492.7032470703125 829.5" stroke-miterlimit="10" stroke-dasharray=""/></g><g><path fill="none" stroke="#000000" paint-order="fill stroke markers" d=" M 312.9605712890625 912.5 L 492.7032470703125 912.5" stroke-miterlimit="10" stroke-dasharray=""/></g><g><g><path fill="none" stroke="none"/><text fill="#000000" stroke="none" font-family="Arial" font-size="13px" font-style="normal" font-weight="bold" text-decoration="undefined" x="413.3319091796875" y="828" text-anchor="middle" dominant-baseline="central" transform="matrix(1 0 0 1 -10 -10)">OpenAIEmbeddingProvider</text></g></g><g><g><path fill="none" stroke="none"/><text fill="#000000" stroke="none" font-family="Arial" font-size="13px" font-style="normal" font-weight="normal" text-decoration="undefined" x="327.9605712890625" y="851" text-anchor="start" dominant-baseline="central" transform="matrix(1 0 0 1 -10 -10)">-model: str</text></g></g><g><g><path fill="none" stroke="none"/><text fill="#000000" stroke="none" font-family="Arial" font-size="13px" font-style="normal" font-weight="normal" text-decoration="undefined" x="327.9605712890625" y="866" text-anchor="start" dominant-baseline="central" transform="matrix(1 0 0 1 -10 -10)">-api_key: str</text></g></g><g><g><path fill="none" stroke="none"/><text fill="#000000" stroke="none" font-family="Arial" font-size="13px" font-style="normal" font-weight="normal" text-decoration="undefined" x="327.9605712890625" y="881" text-anchor="start" dominant-baseline="central" transform="matrix(1 0 0 1 -10 -10)">-_client: OpenAI</text></g></g><g><g><path fill="none" stroke="none"/><text fill="#000000" stroke="none" font-family="Arial" font-size="13px" font-style="normal" font-weight="normal" text-decoration="undefined" x="327.9605712890625" y="896" text-anchor="start" dominant-baseline="central" transform="matrix(1 0 0 1 -10 -10)">+PRICING: dict</text></g></g><g><g><path fill="none" stroke="none"/><text fill="#000000" stroke="none" font-family="Arial" font-size="13px" font-style="normal" font-weight="normal" text-decoration="undefined" x="327.9605712890625" y="911" text-anchor="start" dominant-baseline="central" transform="matrix(1 0 0 1 -10 -10)">+DIMENSIONS: dict</text></g></g><g><g><path fill="none" stroke="none"/><text fill="#000000" stroke="none" font-family="Arial" font-size="13px" font-style="normal" font-weight="normal" text-decoration="undefined" x="327.9605712890625" y="934" text-anchor="start" dominant-baseline="central" transform="matrix(1 0 0 1 -10 -10)">+generate_embeddings()</text></g></g><g><g><path fill="none" stroke="none"/><text fill="#000000" stroke="none" font-family="Arial" font-size="13px" font-style="normal" font-weight="normal" text-decoration="undefined" x="327.9605712890625" y="949" text-anchor="start" dominant-baseline="central" transform="matrix(1 0 0 1 -10 -10)">+get_dimension()</text></g></g><g><g><path fill="none" stroke="none"/><text fill="#000000" stroke="none" font-family="Arial" font-size="13px" font-style="normal" font-weight="normal" text-decoration="undefined" x="327.9605712890625" y="964" text-anchor="start" dominant-baseline="central" transform="matrix(1 0 0 1 -10 -10)">+estimate_cost()</text></g></g><g><g><path fill="none" stroke="none"/><text fill="#000000" stroke="none" font-family="Arial" font-size="13px" font-style="normal" font-weight="normal" text-decoration="undefined" x="327.9605712890625" y="979" text-anchor="start" dominant-baseline="central" transform="matrix(1 0 0 1 -10 -10)">-_get_client()</text></g></g><g><rect fill="#C0C0C0" stroke="none" x="539.7032470703125" y="859" width="167.47265625" height="101" transform="matrix(1 0 0 1 -10 -10)" fill-opacity="0.2"/></g><g><rect fill="#e9e9e9" stroke="none" x="532.7032470703125" y="852" width="167.47265625" height="101" transform="matrix(1 0 0 1 -10 -10)"/></g><g><path fill="none" stroke="#000000" paint-order="fill stroke markers" d=" M 522.7032470703125 842 L 690.1759033203125 842 L 690.1759033203125 943 L 522.7032470703125 943 L 522.7032470703125 842 Z Z" stroke-miterlimit="10" stroke-dasharray=""/></g><g><path fill="none" stroke="#000000" paint-order="fill stroke markers" d=" M 522.7032470703125 867 L 690.1759033203125 867" stroke-miterlimit="10" stroke-dasharray=""/></g><g><path fill="none" stroke="#000000" paint-order="fill stroke markers" d=" M 522.7032470703125 890 L 690.1759033203125 890" stroke-miterlimit="10" stroke-dasharray=""/></g><g><g><path fill="none" stroke="none"/><text fill="#000000" stroke="none" font-family="Arial" font-size="13px" font-style="normal" font-weight="bold" text-decoration="undefined" x="616.9395751953125" y="865.5" text-anchor="middle" dominant-baseline="central" transform="matrix(1 0 0 1 -10 -10)">LocalEmbeddingProvider</text></g></g><g><g><path fill="none" stroke="none"/><text fill="#000000" stroke="none" font-family="Arial" font-size="13px" font-style="normal" font-weight="normal" text-decoration="undefined" x="537.7032470703125" y="888.5" text-anchor="start" dominant-baseline="central" transform="matrix(1 0 0 1 -10 -10)">-dimension: int</text></g></g><g><g><path fill="none" stroke="none"/><text fill="#000000" stroke="none" font-family="Arial" font-size="13px" font-style="normal" font-weight="normal" text-decoration="undefined" x="537.7032470703125" y="911.5" text-anchor="start" dominant-baseline="central" transform="matrix(1 0 0 1 -10 -10)">+generate_embeddings()</text></g></g><g><g><path fill="none" stroke="none"/><text fill="#000000" stroke="none" font-family="Arial" font-size="13px" font-style="normal" font-weight="normal" text-decoration="undefined" x="537.7032470703125" y="926.5" text-anchor="start" dominant-baseline="central" transform="matrix(1 0 0 1 -10 -10)">+get_dimension()</text></g></g><g><g><path fill="none" stroke="none"/><text fill="#000000" stroke="none" font-family="Arial" font-size="13px" font-style="normal" font-weight="normal" text-decoration="undefined" x="537.7032470703125" y="941.5" text-anchor="start" dominant-baseline="central" transform="matrix(1 0 0 1 -10 -10)">+estimate_cost()</text></g></g><g><path fill="none" stroke="#000000" paint-order="fill stroke markers" d=" M 403 804 Q 403 782 441 694" stroke-miterlimit="10" stroke-dasharray=""/></g><g><path fill="#FFFFFF" stroke="none" paint-order="stroke fill markers" d=" M 440.67149888566917 715.9975472955028 L 441 694 L 425.2130997723075 709.3223294965512"/></g><g><path fill="none" stroke="#000000" paint-order="fill stroke markers" d=" M 440.67149888566917 715.9975472955028 L 441 694 L 425.2130997723075 709.3223294965512 L 440.67149888566917 715.9975472955028" stroke-miterlimit="10" stroke-dasharray=""/></g><g><path fill="none" stroke="#000000" paint-order="fill stroke markers" d=" M 606 841 Q 606 782 510 694" stroke-miterlimit="10" stroke-dasharray=""/></g><g><path fill="#FFFFFF" stroke="none" paint-order="stroke fill markers" d=" M 530.6718653374654 701.5282125016299 L 510 694 L 519.2939660497811 713.9404662700127"/></g><g><path fill="none" stroke="#000000" paint-order="fill stroke markers" d=" M 530.6718653374654 701.5282125016299 L 510 694 L 519.2939660497811 713.9404662700127 L 530.6718653374654 701.5282125016299" stroke-miterlimit="10" stroke-dasharray=""/></g><g><path fill="none" stroke="#000000" paint-order="fill stroke markers" d=" M 194 651 L 382 650" stroke-miterlimit="10" stroke-dasharray="3"/></g><g><path fill="none" stroke="#000000" paint-order="fill stroke markers" d=" M 371.8598596425017 654.2635142230599 L 382 650 L 371.8150781722186 645.8445978098405" stroke-miterlimit="10" stroke-dasharray=""/></g><g><path fill="none" stroke="#000000" paint-order="fill stroke markers" d=" M 101 556 Q 101 542 101 475.5 Q 101 409 101 342.5 Q 101 276 101 262" stroke-miterlimit="10" stroke-dasharray="3"/></g><g><path fill="none" stroke="#000000" paint-order="fill stroke markers" d=" M 105.20951775601598 272.16267485762415 L 101 262 L 96.79048224398402 272.16267485762415" stroke-miterlimit="10" stroke-dasharray=""/></g><g><path fill="none" stroke="#000000" paint-order="fill stroke markers" d=" M 226 290 Q 226 276 181 225" stroke-miterlimit="10" stroke-dasharray="3"/></g><g><path fill="none" stroke="#000000" paint-order="fill stroke markers" d=" M 190.88030134277494 229.8352502909322 L 181 225 L 184.56738981019032 235.4054663490951" stroke-miterlimit="10" stroke-dasharray=""/></g><g><path fill="none" stroke="#000000" paint-order="fill stroke markers" d=" M 194 570 Q 226 542 226 528" stroke-miterlimit="10" stroke-dasharray="3"/></g><g><path fill="none" stroke="#000000" paint-order="fill stroke markers" d=" M 230.209517756016 538.1626748576241 L 226 528 L 221.790482243984 538.1626748576241" stroke-miterlimit="10" stroke-dasharray=""/></g></g></svg>