<svg version="1.1" xmlns="http://www.w3.org/2000/svg" xmlns:xlink="http://www.w3.org/1999/xlink" width="1480.85986328125" height="902"><defs/><g><g><path fill="#C0C0C0" stroke="none" paint-order="stroke fill markers" d=" M 388.5732421875 37 C 388.5732421875 25.954304 397.5275461875 17 408.5732421875 17 C 419.6189381875 17 428.5732421875 25.954304 428.5732421875 37 C 428.5732421875 48.045696 419.6189381875 57 408.5732421875 57 C 397.5275461875 57 388.5732421875 48.045696 388.5732421875 37 Z" fill-opacity="0.2"/></g><g><path fill="#000000" stroke="none" paint-order="stroke fill markers" d=" M 381.5732421875 30 C 381.5732421875 18.954304 390.5275461875 10 401.5732421875 10 C 412.6189381875 10 421.5732421875 18.954304 421.5732421875 30 C 421.5732421875 41.045696 412.6189381875 50 401.5732421875 50 C 390.5275461875 50 381.5732421875 41.045696 381.5732421875 30 Z"/></g><g><path fill="#C0C0C0" stroke="none" paint-order="stroke fill markers" d=" M 318.5732421875 87 L 498.5732421875 87 Q 508.5732421875 87 508.5732421875 97 L 508.5732421875 118 Q 508.5732421875 128 498.5732421875 128 L 318.5732421875 128 Q 308.5732421875 128 308.5732421875 118 L 308.5732421875 97 Q 308.5732421875 87 318.5732421875 87 Z" fill-opacity="0.2"/></g><g><path fill="#e9e9e9" stroke="none" paint-order="stroke fill markers" d=" M 311.5732421875 80 L 491.5732421875 80 Q 501.5732421875 80 501.5732421875 90 L 501.5732421875 111 Q 501.5732421875 121 491.5732421875 121 L 311.5732421875 121 Q 301.5732421875 121 301.5732421875 111 L 301.5732421875 90 Q 301.5732421875 80 311.5732421875 80 Z"/></g><g><path fill="none" stroke="#000000" paint-order="fill stroke markers" d=" M 311.5732421875 80 L 491.5732421875 80 Q 501.5732421875 80 501.5732421875 90 L 501.5732421875 111 Q 501.5732421875 121 491.5732421875 121 L 311.5732421875 121 Q 301.5732421875 121 301.5732421875 111 L 301.5732421875 90 Q 301.5732421875 80 311.5732421875 80 Z" stroke-miterlimit="10" stroke-dasharray=""/></g><g><g><path fill="none" stroke="none"/><text fill="#000000" stroke="none" font-family="Arial" font-size="13px" font-style="normal" font-weight="bold" text-decoration="undefined" x="412.0732421875" y="103.5" text-anchor="middle" dominant-baseline="central" transform="matrix(1 0 0 1 -10 -10)">SourceDetector.detect(source)</text></g></g><g><path fill="#C0C0C0" stroke="none" paint-order="stroke fill markers" d=" M 378.5732421875 188 L 408.5732421875 158 L 438.5732421875 188 L 408.5732421875 218 L 378.5732421875 188" fill-opacity="0.2"/></g><g><path fill="#e9e9e9" stroke="none" paint-order="stroke fill markers" d=" M 371.5732421875 181 L 401.5732421875 151 L 431.5732421875 181 L 401.5732421875 211 L 371.5732421875 181"/></g><g><path fill="none" stroke="#000000" paint-order="fill stroke markers" d=" M 371.5732421875 181 L 401.5732421875 151 L 431.5732421875 181 L 401.5732421875 211 L 371.5732421875 181 L 371.5732421875 181" stroke-miterlimit="10" stroke-dasharray=""/></g><g><path fill="#C0C0C0" stroke="none" paint-order="stroke fill markers" d=" M 27 257.5 L 137 257.5 Q 147 257.5 147 267.5 L 147 288.5 Q 147 298.5 137 298.5 L 27 298.5 Q 17 298.5 17 288.5 L 17 267.5 Q 17 257.5 27 257.5 Z" fill-opacity="0.2"/></g><g><path fill="#C8E6C9" stroke="none" paint-order="stroke fill markers" d=" M 20 250.5 L 130 250.5 Q 140 250.5 140 260.5 L 140 281.5 Q 140 291.5 130 291.5 L 20 291.5 Q 10 291.5 10 281.5 L 10 260.5 Q 10 250.5 20 250.5 Z"/></g><g><path fill="none" stroke="#000000" paint-order="fill stroke markers" d=" M 20 250.5 L 130 250.5 Q 140 250.5 140 260.5 L 140 281.5 Q 140 291.5 130 291.5 L 20 291.5 Q 10 291.5 10 281.5 L 10 260.5 Q 10 250.5 20 250.5 Z" stroke-miterlimit="10" stroke-dasharray=""/></g><g><g><path fill="none" stroke="none"/><text fill="#000000" stroke="none" font-family="Arial" font-size="13px" font-style="normal" font-weight="bold" text-decoration="undefined" x="85.5" y="274" text-anchor="middle" dominant-baseline="central" transform="matrix(1 0 0 1 -10 -10)">Config (.json)</text></g></g><g><path fill="#C0C0C0" stroke="none" paint-order="stroke fill markers" d=" M 187 257.5 L 630.146484375 257.5 Q 640.146484375 257.5 640.146484375 267.5 L 640.146484375 288.5 Q 640.146484375 298.5 630.146484375 298.5 L 187 298.5 Q 177 298.5 177 288.5 L 177 267.5 Q 177 257.5 187 257.5 Z" fill-opacity="0.2"/></g><g><path fill="#C8E6C9" stroke="none" paint-order="stroke fill markers" d=" M 180 250.5 L 623.146484375 250.5 Q 633.146484375 250.5 633.146484375 260.5 L 633.146484375 281.5 Q 633.146484375 291.5 623.146484375 291.5 L 180 291.5 Q 170 291.5 170 281.5 L 170 260.5 Q 170 250.5 180 250.5 Z"/></g><g><path fill="none" stroke="#000000" paint-order="fill stroke markers" d=" M 180 250.5 L 623.146484375 250.5 Q 633.146484375 250.5 633.146484375 260.5 L 633.146484375 281.5 Q 633.146484375 291.5 623.146484375 291.5 L 180 291.5 Q 170 291.5 170 281.5 L 170 260.5 Q 170 250.5 180 250.5 Z" stroke-miterlimit="10" stroke-dasharray=""/></g><g><g><path fill="none" stroke="none"/><text fill="#000000" stroke="none" font-family="Arial" font-size="13px" font-style="normal" font-weight="bold" text-decoration="undefined" x="412.0732421875" y="274" text-anchor="middle" dominant-baseline="central" transform="matrix(1 0 0 1 -10 -10)">PDF / Word / EPUB / Jupyter / HTML / PPTX / AsciiDoc / Man / Video / RSS</text></g></g><g><path fill="#C0C0C0" stroke="none" paint-order="stroke fill markers" d=" M 929.35986328125 278 L 959.35986328125 248 L 989.35986328125 278 L 959.35986328125 308 L 929.35986328125 278" fill-opacity="0.2"/></g><g><path fill="#e9e9e9" stroke="none" paint-order="stroke fill markers" d=" M 922.35986328125 271 L 952.35986328125 241 L 982.35986328125 271 L 952.35986328125 301 L 922.35986328125 271"/></g><g><path fill="none" stroke="#000000" paint-order="fill stroke markers" d=" M 922.35986328125 271 L 952.35986328125 241 L 982.35986328125 271 L 952.35986328125 301 L 922.35986328125 271 L 922.35986328125 271" stroke-miterlimit="10" stroke-dasharray=""/></g><g><path fill="#C0C0C0" stroke="none" paint-order="stroke fill markers" d=" M 546.85986328125 347.5 L 656.85986328125 347.5 Q 666.85986328125 347.5 666.85986328125 357.5 L 666.85986328125 378.5 Q 666.85986328125 388.5 656.85986328125 388.5 L 546.85986328125 388.5 Q 536.85986328125 388.5 536.85986328125 378.5 L 536.85986328125 357.5 Q 536.85986328125 347.5 546.85986328125 347.5 Z" fill-opacity="0.2"/></g><g><path fill="#C8E6C9" stroke="none" paint-order="stroke fill markers" d=" M 539.85986328125 340.5 L 649.85986328125 340.5 Q 659.85986328125 340.5 659.85986328125 350.5 L 659.85986328125 371.5 Q 659.85986328125 381.5 649.85986328125 381.5 L 539.85986328125 381.5 Q 529.85986328125 381.5 529.85986328125 371.5 L 529.85986328125 350.5 Q 529.85986328125 340.5 539.85986328125 340.5 Z"/></g><g><path fill="none" stroke="#000000" paint-order="fill stroke markers" d=" M 539.85986328125 340.5 L 649.85986328125 340.5 Q 659.85986328125 340.5 659.85986328125 350.5 L 659.85986328125 371.5 Q 659.85986328125 381.5 649.85986328125 381.5 L 539.85986328125 381.5 Q 529.85986328125 381.5 529.85986328125 371.5 L 529.85986328125 350.5 Q 529.85986328125 340.5 539.85986328125 340.5 Z" stroke-miterlimit="10" stroke-dasharray=""/></g><g><g><path fill="none" stroke="none"/><text fill="#000000" stroke="none" font-family="Arial" font-size="13px" font-style="normal" font-weight="bold" text-decoration="undefined" x="605.35986328125" y="364" text-anchor="middle" dominant-baseline="central" transform="matrix(1 0 0 1 -10 -10)">Video Scraper</text></g></g><g><path fill="#C0C0C0" stroke="none" paint-order="stroke fill markers" d=" M 991.85986328125 368 L 1021.85986328125 338 L 1051.85986328125 368 L 1021.85986328125 398 L 991.85986328125 368" fill-opacity="0.2"/></g><g><path fill="#e9e9e9" stroke="none" paint-order="stroke fill markers" d=" M 984.85986328125 361 L 1014.85986328125 331 L 1044.85986328125 361 L 1014.85986328125 391 L 984.85986328125 361"/></g><g><path fill="none" stroke="#000000" paint-order="fill stroke markers" d=" M 984.85986328125 361 L 1014.85986328125 331 L 1044.85986328125 361 L 1014.85986328125 391 L 984.85986328125 361 L 984.85986328125 361" stroke-miterlimit="10" stroke-dasharray=""/></g><g><path fill="#C0C0C0" stroke="none" paint-order="stroke fill markers" d=" M 651.85986328125 437.5 L 781.85986328125 437.5 Q 791.85986328125 437.5 791.85986328125 447.5 L 791.85986328125 468.5 Q 791.85986328125 478.5 781.85986328125 478.5 L 651.85986328125 478.5 Q 641.85986328125 478.5 641.85986328125 468.5 L 641.85986328125 447.5 Q 641.85986328125 437.5 651.85986328125 437.5 Z" fill-opacity="0.2"/></g><g><path fill="#C8E6C9" stroke="none" paint-order="stroke fill markers" d=" M 644.85986328125 430.5 L 774.85986328125 430.5 Q 784.85986328125 430.5 784.85986328125 440.5 L 784.85986328125 461.5 Q 784.85986328125 471.5 774.85986328125 471.5 L 644.85986328125 471.5 Q 634.85986328125 471.5 634.85986328125 461.5 L 634.85986328125 440.5 Q 634.85986328125 430.5 644.85986328125 430.5 Z"/></g><g><path fill="none" stroke="#000000" paint-order="fill stroke markers" d=" M 644.85986328125 430.5 L 774.85986328125 430.5 Q 784.85986328125 430.5 784.85986328125 440.5 L 784.85986328125 461.5 Q 784.85986328125 471.5 774.85986328125 471.5 L 644.85986328125 471.5 Q 634.85986328125 471.5 634.85986328125 461.5 L 634.85986328125 440.5 Q 634.85986328125 430.5 644.85986328125 430.5 Z" stroke-miterlimit="10" stroke-dasharray=""/></g><g><g><path fill="none" stroke="none"/><text fill="#000000" stroke="none" font-family="Arial" font-size="13px" font-style="normal" font-weight="bold" text-decoration="undefined" x="720.35986328125" y="454" text-anchor="middle" dominant-baseline="central" transform="matrix(1 0 0 1 -10 -10)">Codebase Scraper</text></g></g><g><path fill="#C0C0C0" stroke="none" paint-order="stroke fill markers" d=" M 1059.35986328125 458 L 1089.35986328125 428 L 1119.35986328125 458 L 1089.35986328125 488 L 1059.35986328125 458" fill-opacity="0.2"/></g><g><path fill="#e9e9e9" stroke="none" paint-order="stroke fill markers" d=" M 1052.35986328125 451 L 1082.35986328125 421 L 1112.35986328125 451 L 1082.35986328125 481 L 1052.35986328125 451"/></g><g><path fill="none" stroke="#000000" paint-order="fill stroke markers" d=" M 1052.35986328125 451 L 1082.35986328125 421 L 1112.35986328125 451 L 1082.35986328125 481 L 1052.35986328125 451 L 1052.35986328125 451" stroke-miterlimit="10" stroke-dasharray=""/></g><g><path fill="#C0C0C0" stroke="none" paint-order="stroke fill markers" d=" M 771.85986328125 527.5 L 901.85986328125 527.5 Q 911.85986328125 527.5 911.85986328125 537.5 L 911.85986328125 558.5 Q 911.85986328125 568.5 901.85986328125 568.5 L 771.85986328125 568.5 Q 761.85986328125 568.5 761.85986328125 558.5 L 761.85986328125 537.5 Q 761.85986328125 527.5 771.85986328125 527.5 Z" fill-opacity="0.2"/></g><g><path fill="#C8E6C9" stroke="none" paint-order="stroke fill markers" d=" M 764.85986328125 520.5 L 894.85986328125 520.5 Q 904.85986328125 520.5 904.85986328125 530.5 L 904.85986328125 551.5 Q 904.85986328125 561.5 894.85986328125 561.5 L 764.85986328125 561.5 Q 754.85986328125 561.5 754.85986328125 551.5 L 754.85986328125 530.5 Q 754.85986328125 520.5 764.85986328125 520.5 Z"/></g><g><path fill="none" stroke="#000000" paint-order="fill stroke markers" d=" M 764.85986328125 520.5 L 894.85986328125 520.5 Q 904.85986328125 520.5 904.85986328125 530.5 L 904.85986328125 551.5 Q 904.85986328125 561.5 894.85986328125 561.5 L 764.85986328125 561.5 Q 754.85986328125 561.5 754.85986328125 551.5 L 754.85986328125 530.5 Q 754.85986328125 520.5 764.85986328125 520.5 Z" stroke-miterlimit="10" stroke-dasharray=""/></g><g><g><path fill="none" stroke="none"/><text fill="#000000" stroke="none" font-family="Arial" font-size="13px" font-style="normal" font-weight="bold" text-decoration="undefined" x="840.35986328125" y="544" text-anchor="middle" dominant-baseline="central" transform="matrix(1 0 0 1 -10 -10)">GitHub Scraper</text></g></g><g><path fill="#C0C0C0" stroke="none" paint-order="stroke fill markers" d=" M 1126.85986328125 548 L 1156.85986328125 518 L 1186.85986328125 548 L 1156.85986328125 578 L 1126.85986328125 548" fill-opacity="0.2"/></g><g><path fill="#e9e9e9" stroke="none" paint-order="stroke fill markers" d=" M 1119.85986328125 541 L 1149.85986328125 511 L 1179.85986328125 541 L 1149.85986328125 571 L 1119.85986328125 541"/></g><g><path fill="none" stroke="#000000" paint-order="fill stroke markers" d=" M 1119.85986328125 541 L 1149.85986328125 511 L 1179.85986328125 541 L 1149.85986328125 571 L 1119.85986328125 541 L 1119.85986328125 541" stroke-miterlimit="10" stroke-dasharray=""/></g><g><path fill="#C0C0C0" stroke="none" paint-order="stroke fill markers" d=" M 891.85986328125 617.5 L 1021.85986328125 617.5 Q 1031.85986328125 617.5 1031.85986328125 627.5 L 1031.85986328125 648.5 Q 1031.85986328125 658.5 1021.85986328125 658.5 L 891.85986328125 658.5 Q 881.85986328125 658.5 881.85986328125 648.5 L 881.85986328125 627.5 Q 881.85986328125 617.5 891.85986328125 617.5 Z" fill-opacity="0.2"/></g><g><path fill="#C8E6C9" stroke="none" paint-order="stroke fill markers" d=" M 884.85986328125 610.5 L 1014.85986328125 610.5 Q 1024.85986328125 610.5 1024.85986328125 620.5 L 1024.85986328125 641.5 Q 1024.85986328125 651.5 1014.85986328125 651.5 L 884.85986328125 651.5 Q 874.85986328125 651.5 874.85986328125 641.5 L 874.85986328125 620.5 Q 874.85986328125 610.5 884.85986328125 610.5 Z"/></g><g><path fill="none" stroke="#000000" paint-order="fill stroke markers" d=" M 884.85986328125 610.5 L 1014.85986328125 610.5 Q 1024.85986328125 610.5 1024.85986328125 620.5 L 1024.85986328125 641.5 Q 1024.85986328125 651.5 1014.85986328125 651.5 L 884.85986328125 651.5 Q 874.85986328125 651.5 874.85986328125 641.5 L 874.85986328125 620.5 Q 874.85986328125 610.5 884.85986328125 610.5 Z" stroke-miterlimit="10" stroke-dasharray=""/></g><g><g><path fill="none" stroke="none"/><text fill="#000000" stroke="none" font-family="Arial" font-size="13px" font-style="normal" font-weight="bold" text-decoration="undefined" x="960.35986328125" y="634" text-anchor="middle" dominant-baseline="central" transform="matrix(1 0 0 1 -10 -10)">Web Doc Scraper</text></g></g><g><path fill="#C0C0C0" stroke="none" paint-order="stroke fill markers" d=" M 1196.85986328125 638 L 1226.85986328125 608 L 1256.85986328125 638 L 1226.85986328125 668 L 1196.85986328125 638" fill-opacity="0.2"/></g><g><path fill="#e9e9e9" stroke="none" paint-order="stroke fill markers" d=" M 1189.85986328125 631 L 1219.85986328125 601 L 1249.85986328125 631 L 1219.85986328125 661 L 1189.85986328125 631"/></g><g><path fill="none" stroke="#000000" paint-order="fill stroke markers" d=" M 1189.85986328125 631 L 1219.85986328125 601 L 1249.85986328125 631 L 1219.85986328125 661 L 1189.85986328125 631 L 1189.85986328125 631" stroke-miterlimit="10" stroke-dasharray=""/></g><g><path fill="#C0C0C0" stroke="none" paint-order="stroke fill markers" d=" M 996.85986328125 698 L 1196.85986328125 698 Q 1206.85986328125 698 1206.85986328125 708 L 1206.85986328125 729 Q 1206.85986328125 739 1196.85986328125 739 L 996.85986328125 739 Q 986.85986328125 739 986.85986328125 729 L 986.85986328125 708 Q 986.85986328125 698 996.85986328125 698 Z" fill-opacity="0.2"/></g><g><path fill="#C8E6C9" stroke="none" paint-order="stroke fill markers" d=" M 989.85986328125 691 L 1189.85986328125 691 Q 1199.85986328125 691 1199.85986328125 701 L 1199.85986328125 722 Q 1199.85986328125 732 1189.85986328125 732 L 989.85986328125 732 Q 979.85986328125 732 979.85986328125 722 L 979.85986328125 701 Q 979.85986328125 691 989.85986328125 691 Z"/></g><g><path fill="none" stroke="#000000" paint-order="fill stroke markers" d=" M 989.85986328125 691 L 1189.85986328125 691 Q 1199.85986328125 691 1199.85986328125 701 L 1199.85986328125 722 Q 1199.85986328125 732 1189.85986328125 732 L 989.85986328125 732 Q 979.85986328125 732 979.85986328125 722 L 979.85986328125 701 Q 979.85986328125 691 989.85986328125 691 Z" stroke-miterlimit="10" stroke-dasharray=""/></g><g><g><path fill="none" stroke="none"/><text fill="#000000" stroke="none" font-family="Arial" font-size="13px" font-style="normal" font-weight="bold" text-decoration="undefined" x="1100.35986328125" y="714.5" text-anchor="middle" dominant-baseline="central" transform="matrix(1 0 0 1 -10 -10)">Web Scraper (https:// prepended)</text></g></g><g><path fill="#C0C0C0" stroke="none" paint-order="stroke fill markers" d=" M 1246.85986328125 698 L 1466.85986328125 698 Q 1476.85986328125 698 1476.85986328125 708 L 1476.85986328125 729 Q 1476.85986328125 739 1466.85986328125 739 L 1246.85986328125 739 Q 1236.85986328125 739 1236.85986328125 729 L 1236.85986328125 708 Q 1236.85986328125 698 1246.85986328125 698 Z" fill-opacity="0.2"/></g><g><path fill="#FFCDD2" stroke="none" paint-order="stroke fill markers" d=" M 1239.85986328125 691 L 1459.85986328125 691 Q 1469.85986328125 691 1469.85986328125 701 L 1469.85986328125 722 Q 1469.85986328125 732 1459.85986328125 732 L 1239.85986328125 732 Q 1229.85986328125 732 1229.85986328125 722 L 1229.85986328125 701 Q 1229.85986328125 691 1239.85986328125 691 Z"/></g><g><path fill="none" stroke="#000000" paint-order="fill stroke markers" d=" M 1239.85986328125 691 L 1459.85986328125 691 Q 1469.85986328125 691 1469.85986328125 701 L 1469.85986328125 722 Q 1469.85986328125 732 1459.85986328125 732 L 1239.85986328125 732 Q 1229.85986328125 732 1229.85986328125 722 L 1229.85986328125 701 Q 1229.85986328125 691 1239.85986328125 691 Z" stroke-miterlimit="10" stroke-dasharray=""/></g><g><g><path fill="none" stroke="none"/><text fill="#000000" stroke="none" font-family="Arial" font-size="13px" font-style="normal" font-weight="bold" text-decoration="undefined" x="1360.35986328125" y="714.5" text-anchor="middle" dominant-baseline="central" transform="matrix(1 0 0 1 -10 -10)">Error: Cannot determine source type</text></g></g><g><path fill="#C0C0C0" stroke="none" paint-order="stroke fill markers" d=" M 739.35986328125 799 L 769.35986328125 769 L 799.35986328125 799 L 769.35986328125 829 L 739.35986328125 799" fill-opacity="0.2"/></g><g><path fill="#e9e9e9" stroke="none" paint-order="stroke fill markers" d=" M 732.35986328125 792 L 762.35986328125 762 L 792.35986328125 792 L 762.35986328125 822 L 732.35986328125 792"/></g><g><path fill="none" stroke="#000000" paint-order="fill stroke markers" d=" M 732.35986328125 792 L 762.35986328125 762 L 792.35986328125 792 L 762.35986328125 822 L 732.35986328125 792 L 732.35986328125 792" stroke-miterlimit="10" stroke-dasharray=""/></g><g><path fill="#C0C0C0" stroke="none" paint-order="stroke fill markers" d=" M 749.35986328125 879 C 749.35986328125 867.954304 758.31416728125 859 769.35986328125 859 C 780.40555928125 859 789.35986328125 867.954304 789.35986328125 879 C 789.35986328125 890.045696 780.40555928125 899 769.35986328125 899 C 758.31416728125 899 749.35986328125 890.045696 749.35986328125 879 Z" fill-opacity="0.2"/></g><g><path fill="none" stroke="#000000" paint-order="fill stroke markers" d=" M 742.35986328125 872 C 742.35986328125 860.954304 751.31416728125 852 762.35986328125 852 C 773.40555928125 852 782.35986328125 860.954304 782.35986328125 872 C 782.35986328125 883.045696 773.40555928125 892 762.35986328125 892 C 751.31416728125 892 742.35986328125 883.045696 742.35986328125 872 Z" stroke-miterlimit="10" stroke-dasharray=""/></g><g><path fill="#000000" stroke="none" paint-order="stroke fill markers" d=" M 747.35986328125 872 C 747.35986328125 863.715728 754.07559128125 857 762.35986328125 857 C 770.64413528125 857 777.35986328125 863.715728 777.35986328125 872 C 777.35986328125 880.284272 770.64413528125 887 762.35986328125 887 C 754.07559128125 887 747.35986328125 880.284272 747.35986328125 872 Z"/></g><g><path fill="none" stroke="#000000" paint-order="fill stroke markers" d=" M 402 51 Q 402 65 402 79" stroke-miterlimit="10" stroke-dasharray=""/></g><g><path fill="none" stroke="#000000" paint-order="fill stroke markers" d=" M 397.790482243984 68.83732514237585 L 402 79 L 406.209517756016 68.83732514237585" stroke-miterlimit="10" stroke-dasharray=""/></g><g><path fill="none" stroke="#000000" paint-order="fill stroke markers" d=" M 402 122 Q 402 136 402 150" stroke-miterlimit="10" stroke-dasharray=""/></g><g><path fill="none" stroke="#000000" paint-order="fill stroke markers" d=" M 397.790482243984 139.83732514237585 L 402 150 L 406.209517756016 139.83732514237585" stroke-miterlimit="10" stroke-dasharray=""/></g><g><path fill="none" stroke="#000000" paint-order="fill stroke markers" d=" M 371 185 Q 75 226 75 250" stroke-miterlimit="10" stroke-dasharray=""/></g><g><path fill="none" stroke="#000000" paint-order="fill stroke markers" d=" M 70.79048224398402 239.83732514237585 L 75 250 L 79.20951775601598 239.83732514237585" stroke-miterlimit="10" stroke-dasharray=""/></g><g><rect fill="#e9e9e9" stroke="none" x="82" y="229" width="34.68359375" height="13" transform="matrix(1 0 0 1 -10 -10)"/></g><g><g><path fill="none" stroke="none"/><text fill="#000000" stroke="none" font-family="Arial" font-size="13px" font-style="normal" font-weight="normal" text-decoration="undefined" x="99.341796875" y="235.5" text-anchor="middle" dominant-baseline="central" transform="matrix(1 0 0 1 -10 -10)">[.json]</text></g></g><g><path fill="none" stroke="#000000" paint-order="fill stroke markers" d=" M 402 212 Q 402 226 401 250" stroke-miterlimit="10" stroke-dasharray=""/></g><g><path fill="none" stroke="#000000" paint-order="fill stroke markers" d=" M 397.2172092782506 239.67089092150505 L 401 250 L 405.6289461018608 240.02137995582214" stroke-miterlimit="10" stroke-dasharray=""/></g><g><rect fill="#e9e9e9" stroke="none" x="315" y="230" width="222.56787109375" height="13" transform="matrix(1 0 0 1 -10 -10)"/></g><g><g><path fill="none" stroke="none"/><text fill="#000000" stroke="none" font-family="Arial" font-size="13px" font-style="normal" font-weight="normal" text-decoration="undefined" x="426.283935546875" y="236.5" text-anchor="middle" dominant-baseline="central" transform="matrix(1 0 0 1 -10 -10)">[.pdf/.docx/.epub/.ipynb/.html/.pptx/etc]</text></g></g><g><path fill="none" stroke="#000000" paint-order="fill stroke markers" d=" M 433 184 Q 952 226 952 240" stroke-miterlimit="10" stroke-dasharray=""/></g><g><path fill="none" stroke="#000000" paint-order="fill stroke markers" d=" M 947.790482243984 229.83732514237585 L 952 240 L 956.209517756016 229.83732514237585" stroke-miterlimit="10" stroke-dasharray=""/></g><g><rect fill="#e9e9e9" stroke="none" x="946" y="229" width="60.6962890625" height="13" transform="matrix(1 0 0 1 -10 -10)"/></g><g><g><path fill="none" stroke="none"/><text fill="#000000" stroke="none" font-family="Arial" font-size="13px" font-style="normal" font-weight="normal" text-decoration="undefined" x="976.34814453125" y="235.5" text-anchor="middle" dominant-baseline="central" transform="matrix(1 0 0 1 -10 -10)">[no match]</text></g></g><g><path fill="none" stroke="#000000" paint-order="fill stroke markers" d=" M 921 275 Q 595 316 594 340" stroke-miterlimit="10" stroke-dasharray=""/></g><g><path fill="none" stroke="#000000" paint-order="fill stroke markers" d=" M 590.2172092782506 329.6708909215051 L 594 340 L 598.6289461018607 330.02137995582217" stroke-miterlimit="10" stroke-dasharray=""/></g><g><rect fill="#e9e9e9" stroke="none" x="561" y="320" width="117.79345703125" height="13" transform="matrix(1 0 0 1 -10 -10)"/></g><g><g><path fill="none" stroke="none"/><text fill="#000000" stroke="none" font-family="Arial" font-size="13px" font-style="normal" font-weight="normal" text-decoration="undefined" x="619.896728515625" y="326.5" text-anchor="middle" dominant-baseline="central" transform="matrix(1 0 0 1 -10 -10)">[youtube/video URL]</text></g></g><g><path fill="none" stroke="#000000" paint-order="fill stroke markers" d=" M 983 293 Q 1015 316 1015 330" stroke-miterlimit="10" stroke-dasharray=""/></g><g><path fill="none" stroke="#000000" paint-order="fill stroke markers" d=" M 1010.790482243984 319.83732514237585 L 1015 330 L 1019.2095177560159 319.83732514237585" stroke-miterlimit="10" stroke-dasharray=""/></g><g><rect fill="#e9e9e9" stroke="none" x="1029" y="319" width="21.68359375" height="13" transform="matrix(1 0 0 1 -10 -10)"/></g><g><g><path fill="none" stroke="none"/><text fill="#000000" stroke="none" font-family="Arial" font-size="13px" font-style="normal" font-weight="normal" text-decoration="undefined" x="1039.841796875" y="325.5" text-anchor="middle" dominant-baseline="central" transform="matrix(1 0 0 1 -10 -10)">[no]</text></g></g><g><path fill="none" stroke="#000000" paint-order="fill stroke markers" d=" M 984 365 Q 710 406 709 430" stroke-miterlimit="10" stroke-dasharray=""/></g><g><path fill="none" stroke="#000000" paint-order="fill stroke markers" d=" M 705.2172092782506 419.6708909215051 L 709 430 L 713.6289461018607 420.02137995582217" stroke-miterlimit="10" stroke-dasharray=""/></g><g><rect fill="#e9e9e9" stroke="none" x="682" y="410" width="104.76806640625" height="13" transform="matrix(1 0 0 1 -10 -10)"/></g><g><g><path fill="none" stroke="none"/><text fill="#000000" stroke="none" font-family="Arial" font-size="13px" font-style="normal" font-weight="normal" text-decoration="undefined" x="734.384033203125" y="416.5" text-anchor="middle" dominant-baseline="central" transform="matrix(1 0 0 1 -10 -10)">[yes: os.path.isdir]</text></g></g><g><path fill="none" stroke="#000000" paint-order="fill stroke markers" d=" M 1046 382 Q 1082 406 1082 420" stroke-miterlimit="10" stroke-dasharray=""/></g><g><path fill="none" stroke="#000000" paint-order="fill stroke markers" d=" M 1077.7904822439841 409.83732514237585 L 1082 420 L 1086.2095177560159 409.83732514237585" stroke-miterlimit="10" stroke-dasharray=""/></g><g><rect fill="#e9e9e9" stroke="none" x="1096" y="409" width="21.68359375" height="13" transform="matrix(1 0 0 1 -10 -10)"/></g><g><g><path fill="none" stroke="none"/><text fill="#000000" stroke="none" font-family="Arial" font-size="13px" font-style="normal" font-weight="normal" text-decoration="undefined" x="1106.841796875" y="415.5" text-anchor="middle" dominant-baseline="central" transform="matrix(1 0 0 1 -10 -10)">[no]</text></g></g><g><path fill="none" stroke="#000000" paint-order="fill stroke markers" d=" M 1051 456 Q 830 496 829 520" stroke-miterlimit="10" stroke-dasharray=""/></g><g><path fill="none" stroke="#000000" paint-order="fill stroke markers" d=" M 825.2172092782506 509.670890921505 L 829 520 L 833.6289461018607 510.0213799558221" stroke-miterlimit="10" stroke-dasharray=""/></g><g><rect fill="#e9e9e9" stroke="none" x="762" y="500" width="184.25341796875" height="13" transform="matrix(1 0 0 1 -10 -10)"/></g><g><g><path fill="none" stroke="none"/><text fill="#000000" stroke="none" font-family="Arial" font-size="13px" font-style="normal" font-weight="normal" text-decoration="undefined" x="854.126708984375" y="506.5" text-anchor="middle" dominant-baseline="central" transform="matrix(1 0 0 1 -10 -10)">[owner/repo or github.com URL]</text></g></g><g><path fill="none" stroke="#000000" paint-order="fill stroke markers" d=" M 1113 472 Q 1150 496 1150 510" stroke-miterlimit="10" stroke-dasharray=""/></g><g><path fill="none" stroke="#000000" paint-order="fill stroke markers" d=" M 1145.7904822439841 499.83732514237585 L 1150 510 L 1154.2095177560159 499.83732514237585" stroke-miterlimit="10" stroke-dasharray=""/></g><g><rect fill="#e9e9e9" stroke="none" x="1164" y="499" width="21.68359375" height="13" transform="matrix(1 0 0 1 -10 -10)"/></g><g><g><path fill="none" stroke="none"/><text fill="#000000" stroke="none" font-family="Arial" font-size="13px" font-style="normal" font-weight="normal" text-decoration="undefined" x="1174.841796875" y="505.5" text-anchor="middle" dominant-baseline="central" transform="matrix(1 0 0 1 -10 -10)">[no]</text></g></g><g><path fill="none" stroke="#000000" paint-order="fill stroke markers" d=" M 1119 548 Q 950 586 949 610" stroke-miterlimit="10" stroke-dasharray=""/></g><g><path fill="none" stroke="#000000" paint-order="fill stroke markers" d=" M 945.2172092782506 599.670890921505 L 949 610 L 953.6289461018607 600.0213799558221" stroke-miterlimit="10" stroke-dasharray=""/></g><g><rect fill="#e9e9e9" stroke="none" x="961" y="590" width="27.45361328125" height="13" transform="matrix(1 0 0 1 -10 -10)"/></g><g><g><path fill="none" stroke="none"/><text fill="#000000" stroke="none" font-family="Arial" font-size="13px" font-style="normal" font-weight="normal" text-decoration="undefined" x="974.726806640625" y="596.5" text-anchor="middle" dominant-baseline="central" transform="matrix(1 0 0 1 -10 -10)">[yes]</text></g></g><g><path fill="none" stroke="#000000" paint-order="fill stroke markers" d=" M 1181 561 Q 1220 586 1220 600" stroke-miterlimit="10" stroke-dasharray=""/></g><g><path fill="none" stroke="#000000" paint-order="fill stroke markers" d=" M 1215.7904822439841 589.8373251423759 L 1220 600 L 1224.2095177560159 589.8373251423759" stroke-miterlimit="10" stroke-dasharray=""/></g><g><rect fill="#e9e9e9" stroke="none" x="1234" y="589" width="21.68359375" height="13" transform="matrix(1 0 0 1 -10 -10)"/></g><g><g><path fill="none" stroke="none"/><text fill="#000000" stroke="none" font-family="Arial" font-size="13px" font-style="normal" font-weight="normal" text-decoration="undefined" x="1244.841796875" y="595.5" text-anchor="middle" dominant-baseline="central" transform="matrix(1 0 0 1 -10 -10)">[no]</text></g></g><g><path fill="none" stroke="#000000" paint-order="fill stroke markers" d=" M 1189 642 Q 1090 676 1090 690" stroke-miterlimit="10" stroke-dasharray=""/></g><g><path fill="none" stroke="#000000" paint-order="fill stroke markers" d=" M 1085.7904822439841 679.8373251423759 L 1090 690 L 1094.2095177560159 679.8373251423759" stroke-miterlimit="10" stroke-dasharray=""/></g><g><rect fill="#e9e9e9" stroke="none" x="1062" y="679" width="104.076171875" height="13" transform="matrix(1 0 0 1 -10 -10)"/></g><g><g><path fill="none" stroke="none"/><text fill="#000000" stroke="none" font-family="Arial" font-size="13px" font-style="normal" font-weight="normal" text-decoration="undefined" x="1114.0380859375" y="685.5" text-anchor="middle" dominant-baseline="central" transform="matrix(1 0 0 1 -10 -10)">[has dot, not path]</text></g></g><g><path fill="none" stroke="#000000" paint-order="fill stroke markers" d=" M 1251 642 Q 1350 676 1350 690" stroke-miterlimit="10" stroke-dasharray=""/></g><g><path fill="none" stroke="#000000" paint-order="fill stroke markers" d=" M 1345.7904822439841 679.8373251423759 L 1350 690 L 1354.2095177560159 679.8373251423759" stroke-miterlimit="10" stroke-dasharray=""/></g><g><rect fill="#e9e9e9" stroke="none" x="1364" y="679" width="21.68359375" height="13" transform="matrix(1 0 0 1 -10 -10)"/></g><g><g><path fill="none" stroke="none"/><text fill="#000000" stroke="none" font-family="Arial" font-size="13px" font-style="normal" font-weight="normal" text-decoration="undefined" x="1374.841796875" y="685.5" text-anchor="middle" dominant-baseline="central" transform="matrix(1 0 0 1 -10 -10)">[no]</text></g></g><g><path fill="none" stroke="#000000" paint-order="fill stroke markers" d=" M 75 293 Q 75 316 75 338.5 Q 75 361 75 383.5 Q 75 406 75 428.5 Q 75 451 75 473.5 Q 75 496 75 518.5 Q 75 541 75 563.5 Q 75 586 75 608.5 Q 75 631 75 653.5 Q 75 676 75 694 Q 75 712 75 729.5 Q 75 747 731 790" stroke-miterlimit="10" stroke-dasharray=""/></g><g><path fill="none" stroke="#000000" paint-order="fill stroke markers" d=" M 720.5837498537269 793.5357789651313 L 731 790 L 721.1344256040138 785.134772170056" stroke-miterlimit="10" stroke-dasharray=""/></g><g><path fill="none" stroke="#000000" paint-order="fill stroke markers" d=" M 401 293 Q 402 316 402 338.5 Q 402 361 402 383.5 Q 402 406 402 428.5 Q 402 451 402 473.5 Q 402 496 402 518.5 Q 402 541 402 563.5 Q 402 586 402 608.5 Q 402 631 402 653.5 Q 402 676 402 694 Q 402 712 402 729.5 Q 402 747 731 788" stroke-miterlimit="10" stroke-dasharray=""/></g><g><path fill="none" stroke="#000000" paint-order="fill stroke markers" d=" M 720.3947679862371 790.9204544054409 L 731 788 L 721.4358954127782 782.566041641245" stroke-miterlimit="10" stroke-dasharray=""/></g><g><path fill="none" stroke="#000000" paint-order="fill stroke markers" d=" M 594 383 Q 595 406 595 428.5 Q 595 451 595 473.5 Q 595 496 595 518.5 Q 595 541 595 563.5 Q 595 586 595 608.5 Q 595 631 595 653.5 Q 595 676 595 694 Q 595 712 595 729.5 Q 595 747 731 784" stroke-miterlimit="10" stroke-dasharray=""/></g><g><path fill="none" stroke="#000000" paint-order="fill stroke markers" d=" M 720.088686923333 785.3940039250137 L 731 784 L 722.2988269034614 777.2702461602171" stroke-miterlimit="10" stroke-dasharray=""/></g><g><path fill="none" stroke="#000000" paint-order="fill stroke markers" d=" M 709 473 Q 710 496 710 518.5 Q 710 541 710 563.5 Q 710 586 710 608.5 Q 710 631 710 653.5 Q 710 676 710 694 Q 710 712 710 729.5 Q 710 747 731 765" stroke-miterlimit="10" stroke-dasharray=""/></g><g><path fill="none" stroke="#000000" paint-order="fill stroke markers" d=" M 720.5444041746322 761.5823230204494 L 731 765 L 726.023439858682 755.1901147223913" stroke-miterlimit="10" stroke-dasharray=""/></g><g><path fill="none" stroke="#000000" paint-order="fill stroke markers" d=" M 829 563 Q 830 586 830 608.5 Q 830 631 830 653.5 Q 830 676 830 694 Q 830 712 830 729.5 Q 830 747 793 771" stroke-miterlimit="10" stroke-dasharray=""/></g><g><path fill="none" stroke="#000000" paint-order="fill stroke markers" d=" M 799.2353086586157 761.9379403041145 L 793 771 L 803.8168728977763 769.0011851728204" stroke-miterlimit="10" stroke-dasharray=""/></g><g><path fill="none" stroke="#000000" paint-order="fill stroke markers" d=" M 949 653 Q 950 676 950 694 Q 950 712 950 729.5 Q 950 747 793 784" stroke-miterlimit="10" stroke-dasharray=""/></g><g><path fill="none" stroke="#000000" paint-order="fill stroke markers" d=" M 801.9260955873325 777.5715618097548 L 793 784 L 803.8572949560831 785.7661104825612" stroke-miterlimit="10" stroke-dasharray=""/></g><g><path fill="none" stroke="#000000" paint-order="fill stroke markers" d=" M 1090 733 Q 1090 747 793 788" stroke-miterlimit="10" stroke-dasharray=""/></g><g><path fill="none" stroke="#000000" paint-order="fill stroke markers" d=" M 802.4915495138544 782.4402798788022 L 793 788 L 803.6428548244126 790.7802232260161" stroke-miterlimit="10" stroke-dasharray=""/></g><g><path fill="none" stroke="#000000" paint-order="fill stroke markers" d=" M 1350 733 Q 1350 747 793 790" stroke-miterlimit="10" stroke-dasharray=""/></g><g><path fill="none" stroke="#000000" paint-order="fill stroke markers" d=" M 802.8085184718083 785.0207465029188 L 793 790 L 803.4565338378421 793.4148060117761" stroke-miterlimit="10" stroke-dasharray=""/></g><g><path fill="none" stroke="#000000" paint-order="fill stroke markers" d=" M 762 823 Q 762 837 762 851" stroke-miterlimit="10" stroke-dasharray=""/></g><g><path fill="none" stroke="#000000" paint-order="fill stroke markers" d=" M 757.790482243984 840.8373251423759 L 762 851 L 766.209517756016 840.8373251423759" stroke-miterlimit="10" stroke-dasharray=""/></g></g></svg>