<svg version="1.1" xmlns="http://www.w3.org/2000/svg" xmlns:xlink="http://www.w3.org/1999/xlink" width="691.42626953125" height="928"><defs/><g><g><rect fill="#C0C0C0" stroke="none" x="388.648193359375" y="137" width="179.39990234375" height="311" transform="matrix(1 0 0 1 -10 -10)" fill-opacity="0.2"/></g><g><rect fill="#e9e9e9" stroke="none" x="381.648193359375" y="130" width="179.39990234375" height="311" transform="matrix(1 0 0 1 -10 -10)"/></g><g><path fill="none" stroke="#000000" paint-order="fill stroke markers" d=" M 371.648193359375 120 L 551.048095703125 120 L 551.048095703125 431 L 371.648193359375 431 L 371.648193359375 120 Z Z" stroke-miterlimit="10" stroke-dasharray=""/></g><g><path fill="none" stroke="#000000" paint-order="fill stroke markers" d=" M 371.648193359375 145 L 551.048095703125 145" stroke-miterlimit="10" stroke-dasharray=""/></g><g><path fill="none" stroke="#000000" paint-order="fill stroke markers" d=" M 371.648193359375 273 L 551.048095703125 273" stroke-miterlimit="10" stroke-dasharray=""/></g><g><g><path fill="none" stroke="none"/><text fill="#000000" stroke="none" font-family="Arial" font-size="13px" font-style="normal" font-weight="bold" text-decoration="undefined" x="471.84814453125" y="143.5" text-anchor="middle" dominant-baseline="central" transform="matrix(1 0 0 1 -10 -10)">BenchmarkResult</text></g></g><g><g><path fill="none" stroke="none"/><text fill="#000000" stroke="none" font-family="Arial" font-size="13px" font-style="normal" font-weight="normal" text-decoration="undefined" x="386.648193359375" y="166.5" text-anchor="start" dominant-baseline="central" transform="matrix(1 0 0 1 -10 -10)">+name: str</text></g></g><g><g><path fill="none" stroke="none"/><text fill="#000000" stroke="none" font-family="Arial" font-size="13px" font-style="normal" font-weight="normal" text-decoration="undefined" x="386.648193359375" y="181.5" text-anchor="start" dominant-baseline="central" transform="matrix(1 0 0 1 -10 -10)">+started_at: datetime</text></g></g><g><g><path fill="none" stroke="none"/><text fill="#000000" stroke="none" font-family="Arial" font-size="13px" font-style="normal" font-weight="normal" text-decoration="undefined" x="386.648193359375" y="196.5" text-anchor="start" dominant-baseline="central" transform="matrix(1 0 0 1 -10 -10)">+finished_at: datetime | None</text></g></g><g><g><path fill="none" stroke="none"/><text fill="#000000" stroke="none" font-family="Arial" font-size="13px" font-style="normal" font-weight="normal" text-decoration="undefined" x="386.648193359375" y="211.5" text-anchor="start" dominant-baseline="central" transform="matrix(1 0 0 1 -10 -10)">+timings: list[TimingResult]</text></g></g><g><g><path fill="none" stroke="none"/><text fill="#000000" stroke="none" font-family="Arial" font-size="13px" font-style="normal" font-weight="normal" text-decoration="undefined" x="386.648193359375" y="226.5" text-anchor="start" dominant-baseline="central" transform="matrix(1 0 0 1 -10 -10)">+memory: list[MemoryUsage]</text></g></g><g><g><path fill="none" stroke="none"/><text fill="#000000" stroke="none" font-family="Arial" font-size="13px" font-style="normal" font-weight="normal" text-decoration="undefined" x="386.648193359375" y="241.5" text-anchor="start" dominant-baseline="central" transform="matrix(1 0 0 1 -10 -10)">+metrics: list[Metric]</text></g></g><g><g><path fill="none" stroke="none"/><text fill="#000000" stroke="none" font-family="Arial" font-size="13px" font-style="normal" font-weight="normal" text-decoration="undefined" x="386.648193359375" y="256.5" text-anchor="start" dominant-baseline="central" transform="matrix(1 0 0 1 -10 -10)">+system_info: dict[str, Any]</text></g></g><g><g><path fill="none" stroke="none"/><text fill="#000000" stroke="none" font-family="Arial" font-size="13px" font-style="normal" font-weight="normal" text-decoration="undefined" x="386.648193359375" y="271.5" text-anchor="start" dominant-baseline="central" transform="matrix(1 0 0 1 -10 -10)">+recommendations: list[str]</text></g></g><g><g><path fill="none" stroke="none"/><text fill="#000000" stroke="none" font-family="Arial" font-size="13px" font-style="normal" font-weight="normal" text-decoration="undefined" x="386.648193359375" y="294.5" text-anchor="start" dominant-baseline="central" transform="matrix(1 0 0 1 -10 -10)">+add_timing()</text></g></g><g><g><path fill="none" stroke="none"/><text fill="#000000" stroke="none" font-family="Arial" font-size="13px" font-style="normal" font-weight="normal" text-decoration="undefined" x="386.648193359375" y="309.5" text-anchor="start" dominant-baseline="central" transform="matrix(1 0 0 1 -10 -10)">+add_metric()</text></g></g><g><g><path fill="none" stroke="none"/><text fill="#000000" stroke="none" font-family="Arial" font-size="13px" font-style="normal" font-weight="normal" text-decoration="undefined" x="386.648193359375" y="324.5" text-anchor="start" dominant-baseline="central" transform="matrix(1 0 0 1 -10 -10)">+to_report()</text></g></g><g><g><path fill="none" stroke="none"/><text fill="#000000" stroke="none" font-family="Arial" font-size="13px" font-style="normal" font-weight="normal" text-decoration="undefined" x="386.648193359375" y="339.5" text-anchor="start" dominant-baseline="central" transform="matrix(1 0 0 1 -10 -10)">+__init__()</text></g></g><g><g><path fill="none" stroke="none"/><text fill="#000000" stroke="none" font-family="Arial" font-size="13px" font-style="normal" font-weight="normal" text-decoration="undefined" x="386.648193359375" y="354.5" text-anchor="start" dominant-baseline="central" transform="matrix(1 0 0 1 -10 -10)">+add_timing()</text></g></g><g><g><path fill="none" stroke="none"/><text fill="#000000" stroke="none" font-family="Arial" font-size="13px" font-style="normal" font-weight="normal" text-decoration="undefined" x="386.648193359375" y="369.5" text-anchor="start" dominant-baseline="central" transform="matrix(1 0 0 1 -10 -10)">+add_memory()</text></g></g><g><g><path fill="none" stroke="none"/><text fill="#000000" stroke="none" font-family="Arial" font-size="13px" font-style="normal" font-weight="normal" text-decoration="undefined" x="386.648193359375" y="384.5" text-anchor="start" dominant-baseline="central" transform="matrix(1 0 0 1 -10 -10)">+add_metric()</text></g></g><g><g><path fill="none" stroke="none"/><text fill="#000000" stroke="none" font-family="Arial" font-size="13px" font-style="normal" font-weight="normal" text-decoration="undefined" x="386.648193359375" y="399.5" text-anchor="start" dominant-baseline="central" transform="matrix(1 0 0 1 -10 -10)">+add_recommendation()</text></g></g><g><g><path fill="none" stroke="none"/><text fill="#000000" stroke="none" font-family="Arial" font-size="13px" font-style="normal" font-weight="normal" text-decoration="undefined" x="386.648193359375" y="414.5" text-anchor="start" dominant-baseline="central" transform="matrix(1 0 0 1 -10 -10)">+set_system_info()</text></g></g><g><g><path fill="none" stroke="none"/><text fill="#000000" stroke="none" font-family="Arial" font-size="13px" font-style="normal" font-weight="normal" text-decoration="undefined" x="386.648193359375" y="429.5" text-anchor="start" dominant-baseline="central" transform="matrix(1 0 0 1 -10 -10)">+to_report()</text></g></g><g><rect fill="#C0C0C0" stroke="none" x="398.747314453125" y="478" width="159.20166015625" height="236" transform="matrix(1 0 0 1 -10 -10)" fill-opacity="0.2"/></g><g><rect fill="#e9e9e9" stroke="none" x="391.747314453125" y="471" width="159.20166015625" height="236" transform="matrix(1 0 0 1 -10 -10)"/></g><g><path fill="none" stroke="#000000" paint-order="fill stroke markers" d=" M 381.747314453125 461 L 540.948974609375 461 L 540.948974609375 697 L 381.747314453125 697 L 381.747314453125 461 Z Z" stroke-miterlimit="10" stroke-dasharray=""/></g><g><path fill="none" stroke="#000000" paint-order="fill stroke markers" d=" M 381.747314453125 486 L 540.948974609375 486" stroke-miterlimit="10" stroke-dasharray=""/></g><g><path fill="none" stroke="#000000" paint-order="fill stroke markers" d=" M 381.747314453125 524 L 540.948974609375 524" stroke-miterlimit="10" stroke-dasharray=""/></g><g><g><path fill="none" stroke="none"/><text fill="#000000" stroke="none" font-family="Arial" font-size="13px" font-style="normal" font-weight="bold" text-decoration="undefined" x="471.84814453125" y="484.5" text-anchor="middle" dominant-baseline="central" transform="matrix(1 0 0 1 -10 -10)">Benchmark</text></g></g><g><g><path fill="none" stroke="none"/><text fill="#000000" stroke="none" font-family="Arial" font-size="13px" font-style="normal" font-weight="normal" text-decoration="undefined" x="396.747314453125" y="507.5" text-anchor="start" dominant-baseline="central" transform="matrix(1 0 0 1 -10 -10)">+name: str</text></g></g><g><g><path fill="none" stroke="none"/><text fill="#000000" stroke="none" font-family="Arial" font-size="13px" font-style="normal" font-weight="normal" text-decoration="undefined" x="396.747314453125" y="522.5" text-anchor="start" dominant-baseline="central" transform="matrix(1 0 0 1 -10 -10)">+result: BenchmarkResult</text></g></g><g><g><path fill="none" stroke="none"/><text fill="#000000" stroke="none" font-family="Arial" font-size="13px" font-style="normal" font-weight="normal" text-decoration="undefined" x="396.747314453125" y="545.5" text-anchor="start" dominant-baseline="central" transform="matrix(1 0 0 1 -10 -10)">+time_it()</text></g></g><g><g><path fill="none" stroke="none"/><text fill="#000000" stroke="none" font-family="Arial" font-size="13px" font-style="normal" font-weight="normal" text-decoration="undefined" x="396.747314453125" y="560.5" text-anchor="start" dominant-baseline="central" transform="matrix(1 0 0 1 -10 -10)">+__init__()</text></g></g><g><g><path fill="none" stroke="none"/><text fill="#000000" stroke="none" font-family="Arial" font-size="13px" font-style="normal" font-weight="normal" text-decoration="undefined" x="396.747314453125" y="575.5" text-anchor="start" dominant-baseline="central" transform="matrix(1 0 0 1 -10 -10)">+timer()</text></g></g><g><g><path fill="none" stroke="none"/><text fill="#000000" stroke="none" font-family="Arial" font-size="13px" font-style="normal" font-weight="normal" text-decoration="undefined" x="396.747314453125" y="590.5" text-anchor="start" dominant-baseline="central" transform="matrix(1 0 0 1 -10 -10)">+memory()</text></g></g><g><g><path fill="none" stroke="none"/><text fill="#000000" stroke="none" font-family="Arial" font-size="13px" font-style="normal" font-weight="normal" text-decoration="undefined" x="396.747314453125" y="605.5" text-anchor="start" dominant-baseline="central" transform="matrix(1 0 0 1 -10 -10)">+measure()</text></g></g><g><g><path fill="none" stroke="none"/><text fill="#000000" stroke="none" font-family="Arial" font-size="13px" font-style="normal" font-weight="normal" text-decoration="undefined" x="396.747314453125" y="620.5" text-anchor="start" dominant-baseline="central" transform="matrix(1 0 0 1 -10 -10)">+timed()</text></g></g><g><g><path fill="none" stroke="none"/><text fill="#000000" stroke="none" font-family="Arial" font-size="13px" font-style="normal" font-weight="normal" text-decoration="undefined" x="396.747314453125" y="635.5" text-anchor="start" dominant-baseline="central" transform="matrix(1 0 0 1 -10 -10)">+metric()</text></g></g><g><g><path fill="none" stroke="none"/><text fill="#000000" stroke="none" font-family="Arial" font-size="13px" font-style="normal" font-weight="normal" text-decoration="undefined" x="396.747314453125" y="650.5" text-anchor="start" dominant-baseline="central" transform="matrix(1 0 0 1 -10 -10)">+recommend()</text></g></g><g><g><path fill="none" stroke="none"/><text fill="#000000" stroke="none" font-family="Arial" font-size="13px" font-style="normal" font-weight="normal" text-decoration="undefined" x="396.747314453125" y="665.5" text-anchor="start" dominant-baseline="central" transform="matrix(1 0 0 1 -10 -10)">+report()</text></g></g><g><g><path fill="none" stroke="none"/><text fill="#000000" stroke="none" font-family="Arial" font-size="13px" font-style="normal" font-weight="normal" text-decoration="undefined" x="396.747314453125" y="680.5" text-anchor="start" dominant-baseline="central" transform="matrix(1 0 0 1 -10 -10)">+save()</text></g></g><g><g><path fill="none" stroke="none"/><text fill="#000000" stroke="none" font-family="Arial" font-size="13px" font-style="normal" font-weight="normal" text-decoration="undefined" x="396.747314453125" y="695.5" text-anchor="start" dominant-baseline="central" transform="matrix(1 0 0 1 -10 -10)">+analyze()</text></g></g><g><rect fill="#C0C0C0" stroke="none" x="415.194091796875" y="744" width="126.30810546875" height="191" transform="matrix(1 0 0 1 -10 -10)" fill-opacity="0.2"/></g><g><rect fill="#e9e9e9" stroke="none" x="408.194091796875" y="737" width="126.30810546875" height="191" transform="matrix(1 0 0 1 -10 -10)"/></g><g><path fill="none" stroke="#000000" paint-order="fill stroke markers" d=" M 398.194091796875 727 L 524.502197265625 727 L 524.502197265625 918 L 398.194091796875 918 L 398.194091796875 727 Z Z" stroke-miterlimit="10" stroke-dasharray=""/></g><g><path fill="none" stroke="#000000" paint-order="fill stroke markers" d=" M 398.194091796875 752 L 524.502197265625 752" stroke-miterlimit="10" stroke-dasharray=""/></g><g><path fill="none" stroke="#000000" paint-order="fill stroke markers" d=" M 398.194091796875 775 L 524.502197265625 775" stroke-miterlimit="10" stroke-dasharray=""/></g><g><g><path fill="none" stroke="none"/><text fill="#000000" stroke="none" font-family="Arial" font-size="13px" font-style="normal" font-weight="bold" text-decoration="undefined" x="471.84814453125" y="750.5" text-anchor="middle" dominant-baseline="central" transform="matrix(1 0 0 1 -10 -10)">BenchmarkRunner</text></g></g><g><g><path fill="none" stroke="none"/><text fill="#000000" stroke="none" font-family="Arial" font-size="13px" font-style="normal" font-weight="normal" text-decoration="undefined" x="413.194091796875" y="773.5" text-anchor="start" dominant-baseline="central" transform="matrix(1 0 0 1 -10 -10)">+output_dir: Path</text></g></g><g><g><path fill="none" stroke="none"/><text fill="#000000" stroke="none" font-family="Arial" font-size="13px" font-style="normal" font-weight="normal" text-decoration="undefined" x="413.194091796875" y="796.5" text-anchor="start" dominant-baseline="central" transform="matrix(1 0 0 1 -10 -10)">+run_all()</text></g></g><g><g><path fill="none" stroke="none"/><text fill="#000000" stroke="none" font-family="Arial" font-size="13px" font-style="normal" font-weight="normal" text-decoration="undefined" x="413.194091796875" y="811.5" text-anchor="start" dominant-baseline="central" transform="matrix(1 0 0 1 -10 -10)">+compare()</text></g></g><g><g><path fill="none" stroke="none"/><text fill="#000000" stroke="none" font-family="Arial" font-size="13px" font-style="normal" font-weight="normal" text-decoration="undefined" x="413.194091796875" y="826.5" text-anchor="start" dominant-baseline="central" transform="matrix(1 0 0 1 -10 -10)">+__init__()</text></g></g><g><g><path fill="none" stroke="none"/><text fill="#000000" stroke="none" font-family="Arial" font-size="13px" font-style="normal" font-weight="normal" text-decoration="undefined" x="413.194091796875" y="841.5" text-anchor="start" dominant-baseline="central" transform="matrix(1 0 0 1 -10 -10)">+run()</text></g></g><g><g><path fill="none" stroke="none"/><text fill="#000000" stroke="none" font-family="Arial" font-size="13px" font-style="normal" font-weight="normal" text-decoration="undefined" x="413.194091796875" y="856.5" text-anchor="start" dominant-baseline="central" transform="matrix(1 0 0 1 -10 -10)">+run_suite()</text></g></g><g><g><path fill="none" stroke="none"/><text fill="#000000" stroke="none" font-family="Arial" font-size="13px" font-style="normal" font-weight="normal" text-decoration="undefined" x="413.194091796875" y="871.5" text-anchor="start" dominant-baseline="central" transform="matrix(1 0 0 1 -10 -10)">+compare()</text></g></g><g><g><path fill="none" stroke="none"/><text fill="#000000" stroke="none" font-family="Arial" font-size="13px" font-style="normal" font-weight="normal" text-decoration="undefined" x="413.194091796875" y="886.5" text-anchor="start" dominant-baseline="central" transform="matrix(1 0 0 1 -10 -10)">+list_benchmarks()</text></g></g><g><g><path fill="none" stroke="none"/><text fill="#000000" stroke="none" font-family="Arial" font-size="13px" font-style="normal" font-weight="normal" text-decoration="undefined" x="413.194091796875" y="901.5" text-anchor="start" dominant-baseline="central" transform="matrix(1 0 0 1 -10 -10)">+get_latest()</text></g></g><g><g><path fill="none" stroke="none"/><text fill="#000000" stroke="none" font-family="Arial" font-size="13px" font-style="normal" font-weight="normal" text-decoration="undefined" x="413.194091796875" y="916.5" text-anchor="start" dominant-baseline="central" transform="matrix(1 0 0 1 -10 -10)">+cleanup_old()</text></g></g><g><rect fill="#C0C0C0" stroke="none" x="27" y="27" width="100" height="80" transform="matrix(1 0 0 1 -10 -10)" fill-opacity="0.2"/></g><g><rect fill="#e9e9e9" stroke="none" x="20" y="20" width="100" height="80" transform="matrix(1 0 0 1 -10 -10)"/></g><g><path fill="none" stroke="#000000" paint-order="fill stroke markers" d=" M 10 10 L 110 10 L 110 90 L 10 90 L 10 10 Z Z" stroke-miterlimit="10" stroke-dasharray=""/></g><g><g><path fill="none" stroke="none"/><text fill="#000000" stroke="none" font-family="Arial" font-size="13px" font-style="normal" font-weight="normal" text-decoration="undefined" x="70.5" y="31.5" text-anchor="middle" dominant-baseline="central" transform="matrix(1 0 0 1 -10 -10)">«dataType»</text></g></g><g><g><path fill="none" stroke="none"/><text fill="#000000" stroke="none" font-family="Arial" font-size="13px" font-style="normal" font-weight="bold" text-decoration="undefined" x="70.5" y="46.5" text-anchor="middle" dominant-baseline="central" transform="matrix(1 0 0 1 -10 -10)">Metric</text></g></g><g><rect fill="#C0C0C0" stroke="none" x="157" y="27" width="100" height="80" transform="matrix(1 0 0 1 -10 -10)" fill-opacity="0.2"/></g><g><rect fill="#e9e9e9" stroke="none" x="150" y="20" width="100" height="80" transform="matrix(1 0 0 1 -10 -10)"/></g><g><path fill="none" stroke="#000000" paint-order="fill stroke markers" d=" M 140 10 L 240 10 L 240 90 L 140 90 L 140 10 Z Z" stroke-miterlimit="10" stroke-dasharray=""/></g><g><g><path fill="none" stroke="none"/><text fill="#000000" stroke="none" font-family="Arial" font-size="13px" font-style="normal" font-weight="normal" text-decoration="undefined" x="200.5" y="31.5" text-anchor="middle" dominant-baseline="central" transform="matrix(1 0 0 1 -10 -10)">«dataType»</text></g></g><g><g><path fill="none" stroke="none"/><text fill="#000000" stroke="none" font-family="Arial" font-size="13px" font-style="normal" font-weight="bold" text-decoration="undefined" x="200.5" y="46.5" text-anchor="middle" dominant-baseline="central" transform="matrix(1 0 0 1 -10 -10)">TimingResult</text></g></g><g><rect fill="#C0C0C0" stroke="none" x="287" y="27" width="100" height="80" transform="matrix(1 0 0 1 -10 -10)" fill-opacity="0.2"/></g><g><rect fill="#e9e9e9" stroke="none" x="280" y="20" width="100" height="80" transform="matrix(1 0 0 1 -10 -10)"/></g><g><path fill="none" stroke="#000000" paint-order="fill stroke markers" d=" M 270 10 L 370 10 L 370 90 L 270 90 L 270 10 Z Z" stroke-miterlimit="10" stroke-dasharray=""/></g><g><g><path fill="none" stroke="none"/><text fill="#000000" stroke="none" font-family="Arial" font-size="13px" font-style="normal" font-weight="normal" text-decoration="undefined" x="330.5" y="31.5" text-anchor="middle" dominant-baseline="central" transform="matrix(1 0 0 1 -10 -10)">«dataType»</text></g></g><g><g><path fill="none" stroke="none"/><text fill="#000000" stroke="none" font-family="Arial" font-size="13px" font-style="normal" font-weight="bold" text-decoration="undefined" x="330.5" y="46.5" text-anchor="middle" dominant-baseline="central" transform="matrix(1 0 0 1 -10 -10)">MemoryUsage</text></g></g><g><rect fill="#C0C0C0" stroke="none" x="417" y="27" width="122.6962890625" height="80" transform="matrix(1 0 0 1 -10 -10)" fill-opacity="0.2"/></g><g><rect fill="#e9e9e9" stroke="none" x="410" y="20" width="122.6962890625" height="80" transform="matrix(1 0 0 1 -10 -10)"/></g><g><path fill="none" stroke="#000000" paint-order="fill stroke markers" d=" M 400 10 L 522.6962890625 10 L 522.6962890625 90 L 400 90 L 400 10 Z Z" stroke-miterlimit="10" stroke-dasharray=""/></g><g><g><path fill="none" stroke="none"/><text fill="#000000" stroke="none" font-family="Arial" font-size="13px" font-style="normal" font-weight="normal" text-decoration="undefined" x="471.84814453125" y="31.5" text-anchor="middle" dominant-baseline="central" transform="matrix(1 0 0 1 -10 -10)">«dataType»</text></g></g><g><g><path fill="none" stroke="none"/><text fill="#000000" stroke="none" font-family="Arial" font-size="13px" font-style="normal" font-weight="bold" text-decoration="undefined" x="471.84814453125" y="46.5" text-anchor="middle" dominant-baseline="central" transform="matrix(1 0 0 1 -10 -10)">BenchmarkReport</text></g></g><g><rect fill="#C0C0C0" stroke="none" x="569.6962890625" y="27" width="127.72998046875" height="80" transform="matrix(1 0 0 1 -10 -10)" fill-opacity="0.2"/></g><g><rect fill="#e9e9e9" stroke="none" x="562.6962890625" y="20" width="127.72998046875" height="80" transform="matrix(1 0 0 1 -10 -10)"/></g><g><path fill="none" stroke="#000000" paint-order="fill stroke markers" d=" M 552.6962890625 10 L 680.42626953125 10 L 680.42626953125 90 L 552.6962890625 90 L 552.6962890625 10 Z Z" stroke-miterlimit="10" stroke-dasharray=""/></g><g><g><path fill="none" stroke="none"/><text fill="#000000" stroke="none" font-family="Arial" font-size="13px" font-style="normal" font-weight="normal" text-decoration="undefined" x="627.061279296875" y="31.5" text-anchor="middle" dominant-baseline="central" transform="matrix(1 0 0 1 -10 -10)">«dataType»</text></g></g><g><g><path fill="none" stroke="none"/><text fill="#000000" stroke="none" font-family="Arial" font-size="13px" font-style="normal" font-weight="bold" text-decoration="undefined" x="627.061279296875" y="46.5" text-anchor="middle" dominant-baseline="central" transform="matrix(1 0 0 1 -10 -10)">ComparisonReport</text></g></g><g><path fill="none" stroke="#000000" paint-order="fill stroke markers" d=" M 461 726 Q 461 712 461 698" stroke-miterlimit="10" stroke-dasharray="3"/></g><g><path fill="none" stroke="#000000" paint-order="fill stroke markers" d=" M 465.209517756016 708.1626748576241 L 461 698 L 456.790482243984 708.1626748576241" stroke-miterlimit="10" stroke-dasharray=""/></g><g><path fill="none" stroke="#000000" paint-order="fill stroke markers" d=" M 461 460 Q 461 446 461 432" stroke-miterlimit="10" stroke-dasharray="3"/></g><g><path fill="none" stroke="#000000" paint-order="fill stroke markers" d=" M 465.209517756016 442.16267485762415 L 461 432 L 456.790482243984 442.16267485762415" stroke-miterlimit="10" stroke-dasharray=""/></g><g><path fill="none" stroke="#000000" paint-order="fill stroke markers" d=" M 461 119 Q 461 105 461 91" stroke-miterlimit="10" stroke-dasharray="3"/></g><g><path fill="none" stroke="#000000" paint-order="fill stroke markers" d=" M 465.209517756016 101.16267485762415 L 461 91 L 456.790482243984 101.16267485762415" stroke-miterlimit="10" stroke-dasharray=""/></g></g></svg>