<svg version="1.1" xmlns="http://www.w3.org/2000/svg" xmlns:xlink="http://www.w3.org/1999/xlink" width="1322.37890625" height="791"><defs/><g><g><path fill="none" stroke="#000000" paint-order="fill stroke markers" d=" M 10 10 L 1240 10 L 1240 780 L 10 780 L 10 10" stroke-miterlimit="10" stroke-dasharray=""/></g><g><path fill="#e9e9e9" stroke="none" paint-order="stroke fill markers" d=" M 10 10 L 10 33 L 181.3525390625 33 L 192.8525390625 21.5 L 192.8525390625 10 L 10 10"/></g><g><path fill="none" stroke="#000000" paint-order="fill stroke markers" d=" M 10 10 L 10 33 L 181.3525390625 33 L 192.8525390625 21.5 L 192.8525390625 10 L 10 10 L 10 10" stroke-miterlimit="10" stroke-dasharray=""/></g><g><g><path fill="none" stroke="none"/><text fill="#000000" stroke="none" font-family="Arial" font-size="13px" font-style="normal" font-weight="normal" text-decoration="undefined" x="95.541259765625" y="21.5" text-anchor="middle" dominant-baseline="central" transform="matrix(1 0 0 1 10 0)">Create Pipeline (Unified)</text></g></g><g><g><path fill="none" stroke="none"/><text fill="#000000" stroke="none" font-family="Arial" font-size="13px" font-style="normal" font-weight="bold" text-decoration="undefined" x="11.864990234375" y="21.5" text-anchor="middle" dominant-baseline="central" transform="matrix(1 0 0 1 10 0)">sd</text></g></g><g><rect fill="#C0C0C0" stroke="none" x="107" y="47" width="100" height="40" transform="matrix(1 0 0 1 10 0)" fill-opacity="0.2"/></g><g><rect fill="#e9e9e9" stroke="none" x="100" y="40" width="100" height="40" transform="matrix(1 0 0 1 10 0)"/></g><g><path fill="none" stroke="#000000" paint-order="fill stroke markers" d=" M 110 40 L 210 40 L 210 80 L 110 80 L 110 40 Z Z" stroke-miterlimit="10" stroke-dasharray=""/></g><g><g><path fill="none" stroke="none"/><text fill="#000000" stroke="none" font-family="Arial" font-size="13px" font-style="normal" font-weight="bold" text-decoration="undefined" x="150.5" y="53.5" text-anchor="middle" dominant-baseline="central" transform="matrix(1 0 0 1 10 0)">User</text></g></g><g><path fill="none" stroke="#000000" paint-order="fill stroke markers" d=" M 160.5 81 L 160.5 781" stroke-miterlimit="10" stroke-dasharray="3"/></g><g><rect fill="#C0C0C0" stroke="none" x="357" y="47" width="124.025390625" height="40" transform="matrix(1 0 0 1 10 0)" fill-opacity="0.2"/></g><g><rect fill="#e9e9e9" stroke="none" x="350" y="40" width="124.025390625" height="40" transform="matrix(1 0 0 1 10 0)"/></g><g><path fill="none" stroke="#000000" paint-order="fill stroke markers" d=" M 360 40 L 484.025390625 40 L 484.025390625 80 L 360 80 L 360 40 Z Z" stroke-miterlimit="10" stroke-dasharray=""/></g><g><g><path fill="none" stroke="none"/><text fill="#000000" stroke="none" font-family="Arial" font-size="13px" font-style="normal" font-weight="bold" text-decoration="undefined" x="412.5126953125" y="53.5" text-anchor="middle" dominant-baseline="central" transform="matrix(1 0 0 1 10 0)">CreateCommand</text></g></g><g><path fill="none" stroke="#000000" paint-order="fill stroke markers" d=" M 422.5 81 L 422.5 781" stroke-miterlimit="10" stroke-dasharray="3"/></g><g><rect fill="#C0C0C0" stroke="none" x="607" y="47" width="116.80810546875" height="40" transform="matrix(1 0 0 1 10 0)" fill-opacity="0.2"/></g><g><rect fill="#e9e9e9" stroke="none" x="600" y="40" width="116.80810546875" height="40" transform="matrix(1 0 0 1 10 0)"/></g><g><path fill="none" stroke="#000000" paint-order="fill stroke markers" d=" M 610 40 L 726.80810546875 40 L 726.80810546875 80 L 610 80 L 610 40 Z Z" stroke-miterlimit="10" stroke-dasharray=""/></g><g><g><path fill="none" stroke="none"/><text fill="#000000" stroke="none" font-family="Arial" font-size="13px" font-style="normal" font-weight="bold" text-decoration="undefined" x="658.904052734375" y="53.5" text-anchor="middle" dominant-baseline="central" transform="matrix(1 0 0 1 10 0)">SourceDetector</text></g></g><g><path fill="none" stroke="#000000" paint-order="fill stroke markers" d=" M 668.5 81 L 668.5 590" stroke-miterlimit="10" stroke-dasharray="3"/></g><g><rect fill="#C0C0C0" stroke="none" x="857" y="47" width="130.5126953125" height="40" transform="matrix(1 0 0 1 10 0)" fill-opacity="0.2"/></g><g><rect fill="#e9e9e9" stroke="none" x="850" y="40" width="130.5126953125" height="40" transform="matrix(1 0 0 1 10 0)"/></g><g><path fill="none" stroke="#000000" paint-order="fill stroke markers" d=" M 860 40 L 990.5126953125 40 L 990.5126953125 80 L 860 80 L 860 40 Z Z" stroke-miterlimit="10" stroke-dasharray=""/></g><g><g><path fill="none" stroke="none"/><text fill="#000000" stroke="none" font-family="Arial" font-size="13px" font-style="normal" font-weight="bold" text-decoration="undefined" x="915.75634765625" y="53.5" text-anchor="middle" dominant-baseline="central" transform="matrix(1 0 0 1 10 0)">ExecutionContext</text></g></g><g><path fill="none" stroke="#000000" paint-order="fill stroke markers" d=" M 925.5 81 L 925.5 540" stroke-miterlimit="10" stroke-dasharray="3"/></g><g><rect fill="#C0C0C0" stroke="none" x="1107" y="47" width="108.1435546875" height="40" transform="matrix(1 0 0 1 10 0)" fill-opacity="0.2"/></g><g><rect fill="#e9e9e9" stroke="none" x="1100" y="40" width="108.1435546875" height="40" transform="matrix(1 0 0 1 10 0)"/></g><g><path fill="none" stroke="#000000" paint-order="fill stroke markers" d=" M 1110 40 L 1218.1435546875 40 L 1218.1435546875 80 L 1110 80 L 1110 40 Z Z" stroke-miterlimit="10" stroke-dasharray=""/></g><g><g><path fill="none" stroke="none"/><text fill="#000000" stroke="none" font-family="Arial" font-size="13px" font-style="normal" font-weight="bold" text-decoration="undefined" x="1154.57177734375" y="53.5" text-anchor="middle" dominant-baseline="central" transform="matrix(1 0 0 1 10 0)">SkillConverter</text></g></g><g><path fill="none" stroke="#000000" paint-order="fill stroke markers" d=" M 1164.5 81 L 1164.5 696" stroke-miterlimit="10" stroke-dasharray="3"/></g><g><path fill="none" stroke="#000000" paint-order="fill stroke markers" d=" M 161 150 L 415 150" stroke-miterlimit="10" stroke-dasharray=""/></g><g><path fill="#000000" stroke="none" paint-order="stroke fill markers" d=" M 404.83732514237585 154.209517756016 L 415 150 L 404.83732514237585 145.790482243984"/></g><g><path fill="none" stroke="#000000" paint-order="fill stroke markers" d=" M 404.83732514237585 154.209517756016 L 415 150 L 404.83732514237585 145.790482243984 L 404.83732514237585 154.209517756016" stroke-miterlimit="10" stroke-dasharray=""/></g><g><rect fill="#e9e9e9" stroke="none" x="242" y="134" width="72.25537109375" height="13" transform="matrix(1 0 0 1 10 0)"/></g><g><g><path fill="none" stroke="none"/><text fill="#000000" stroke="none" font-family="Arial" font-size="13px" font-style="normal" font-weight="normal" text-decoration="undefined" x="278.127685546875" y="140.5" text-anchor="middle" dominant-baseline="central" transform="matrix(1 0 0 1 10 0)">1 : execute()</text></g></g><g><rect fill="#e9e9e9" stroke="none" x="405" y="150" width="14" height="28" transform="matrix(1 0 0 1 10 0)"/></g><g><path fill="none" stroke="#000000" paint-order="fill stroke markers" d=" M 415 150 L 429 150 L 429 178 L 415 178 L 415 150 Z Z" stroke-miterlimit="10" stroke-dasharray=""/></g><g><path fill="none" stroke="#000000" paint-order="fill stroke markers" d=" M 423 200 L 661 200" stroke-miterlimit="10" stroke-dasharray=""/></g><g><path fill="#000000" stroke="none" paint-order="stroke fill markers" d=" M 650.8373251423759 204.209517756016 L 661 200 L 650.8373251423758 195.790482243984"/></g><g><path fill="none" stroke="#000000" paint-order="fill stroke markers" d=" M 650.8373251423759 204.209517756016 L 661 200 L 650.8373251423758 195.790482243984 L 650.8373251423759 204.209517756016" stroke-miterlimit="10" stroke-dasharray=""/></g><g><rect fill="#e9e9e9" stroke="none" x="475" y="184" width="115.60986328125" height="13" transform="matrix(1 0 0 1 10 0)"/></g><g><g><path fill="none" stroke="none"/><text fill="#000000" stroke="none" font-family="Arial" font-size="13px" font-style="normal" font-weight="normal" text-decoration="undefined" x="532.804931640625" y="190.5" text-anchor="middle" dominant-baseline="central" transform="matrix(1 0 0 1 10 0)">2 : 1: detect(source)</text></g></g><g><rect fill="#e9e9e9" stroke="none" x="651" y="200" width="14" height="28" transform="matrix(1 0 0 1 10 0)"/></g><g><path fill="none" stroke="#000000" paint-order="fill stroke markers" d=" M 661 200 L 675 200 L 675 228 L 661 228 L 661 200 Z Z" stroke-miterlimit="10" stroke-dasharray=""/></g><g><path fill="none" stroke="#000000" paint-order="fill stroke markers" d=" M 668 250 L 423 250" stroke-miterlimit="10" stroke-dasharray="3"/></g><g><path fill="none" stroke="#000000" paint-order="fill stroke markers" d=" M 433.16267485762415 245.790482243984 L 423 250 L 433.16267485762415 254.209517756016" stroke-miterlimit="10" stroke-dasharray=""/></g><g><rect fill="#e9e9e9" stroke="none" x="454" y="254" width="161.1416015625" height="13" transform="matrix(1 0 0 1 10 0)"/></g><g><g><path fill="none" stroke="none"/><text fill="#000000" stroke="none" font-family="Arial" font-size="13px" font-style="normal" font-weight="normal" text-decoration="undefined" x="534.57080078125" y="260.5" text-anchor="middle" dominant-baseline="central" transform="matrix(1 0 0 1 10 0)">3 : SourceInfo(type, parsed)</text></g></g><g><path fill="none" stroke="#000000" paint-order="fill stroke markers" d=" M 423 300 L 661 300" stroke-miterlimit="10" stroke-dasharray=""/></g><g><path fill="#000000" stroke="none" paint-order="stroke fill markers" d=" M 650.8373251423759 304.209517756016 L 661 300 L 650.8373251423758 295.790482243984"/></g><g><path fill="none" stroke="#000000" paint-order="fill stroke markers" d=" M 650.8373251423759 304.209517756016 L 661 300 L 650.8373251423758 295.790482243984 L 650.8373251423759 304.209517756016" stroke-miterlimit="10" stroke-dasharray=""/></g><g><rect fill="#e9e9e9" stroke="none" x="433" y="284" width="199.443359375" height="13" transform="matrix(1 0 0 1 10 0)"/></g><g><g><path fill="none" stroke="none"/><text fill="#000000" stroke="none" font-family="Arial" font-size="13px" font-style="normal" font-weight="normal" text-decoration="undefined" x="532.7216796875" y="290.5" text-anchor="middle" dominant-baseline="central" transform="matrix(1 0 0 1 10 0)">4 : 2: validate_source(source_info)</text></g></g><g><rect fill="#e9e9e9" stroke="none" x="651" y="300" width="14" height="28" transform="matrix(1 0 0 1 10 0)"/></g><g><path fill="none" stroke="#000000" paint-order="fill stroke markers" d=" M 661 300 L 675 300 L 675 328 L 661 328 L 661 300 Z Z" stroke-miterlimit="10" stroke-dasharray=""/></g><g><path fill="none" stroke="#000000" paint-order="fill stroke markers" d=" M 423 350 L 918 350" stroke-miterlimit="10" stroke-dasharray=""/></g><g><path fill="#000000" stroke="none" paint-order="stroke fill markers" d=" M 907.8373251423759 354.209517756016 L 918 350 L 907.8373251423758 345.790482243984"/></g><g><path fill="none" stroke="#000000" paint-order="fill stroke markers" d=" M 907.8373251423759 354.209517756016 L 918 350 L 907.8373251423758 345.790482243984 L 907.8373251423759 354.209517756016" stroke-miterlimit="10" stroke-dasharray=""/></g><g><rect fill="#e9e9e9" stroke="none" x="530" y="334" width="261.5869140625" height="13" transform="matrix(1 0 0 1 10 0)"/></g><g><g><path fill="none" stroke="none"/><text fill="#000000" stroke="none" font-family="Arial" font-size="13px" font-style="normal" font-weight="normal" text-decoration="undefined" x="660.79345703125" y="340.5" text-anchor="middle" dominant-baseline="central" transform="matrix(1 0 0 1 10 0)">5 : 3: initialize(args, config_path, source_info)</text></g></g><g><rect fill="#e9e9e9" stroke="none" x="908" y="350" width="14" height="28" transform="matrix(1 0 0 1 10 0)"/></g><g><path fill="none" stroke="#000000" paint-order="fill stroke markers" d=" M 918 350 L 932 350 L 932 378 L 918 378 L 918 350 Z Z" stroke-miterlimit="10" stroke-dasharray=""/></g><g><path fill="none" stroke="#000000" paint-order="fill stroke markers" d=" M 423 400 L 453 400 L 453 420 L 429 420" stroke-miterlimit="10" stroke-dasharray=""/></g><g><path fill="#000000" stroke="none" paint-order="stroke fill markers" d=" M 439.16267485762415 415.790482243984 L 429 420 L 439.16267485762415 424.209517756016"/></g><g><path fill="none" stroke="#000000" paint-order="fill stroke markers" d=" M 439.16267485762415 415.790482243984 L 429 420 L 439.16267485762415 424.209517756016 L 439.16267485762415 415.790482243984" stroke-miterlimit="10" stroke-dasharray=""/></g><g><rect fill="#e9e9e9" stroke="none" x="372" y="403" width="161.865234375" height="13" transform="matrix(1 0 0 1 10 0)"/></g><g><g><path fill="none" stroke="none"/><text fill="#000000" stroke="none" font-family="Arial" font-size="13px" font-style="normal" font-weight="normal" text-decoration="undefined" x="452.9326171875" y="409.5" text-anchor="middle" dominant-baseline="central" transform="matrix(1 0 0 1 10 0)">6 : 4: _validate_arguments()</text></g></g><g><rect fill="#e9e9e9" stroke="none" x="405" y="420" width="14" height="28" transform="matrix(1 0 0 1 10 0)"/></g><g><path fill="none" stroke="#000000" paint-order="fill stroke markers" d=" M 415 420 L 429 420 L 429 448 L 415 448 L 415 420 Z Z" stroke-miterlimit="10" stroke-dasharray=""/></g><g><path fill="none" stroke="#000000" paint-order="fill stroke markers" d=" M 423 450 L 1157 450" stroke-miterlimit="10" stroke-dasharray=""/></g><g><path fill="#000000" stroke="none" paint-order="stroke fill markers" d=" M 1146.837325142376 454.209517756016 L 1157 450 L 1146.837325142376 445.790482243984"/></g><g><path fill="none" stroke="#000000" paint-order="fill stroke markers" d=" M 1146.837325142376 454.209517756016 L 1157 450 L 1146.837325142376 445.790482243984 L 1146.837325142376 454.209517756016" stroke-miterlimit="10" stroke-dasharray=""/></g><g><rect fill="#e9e9e9" stroke="none" x="620" y="434" width="320.4677734375" height="13" transform="matrix(1 0 0 1 10 0)"/></g><g><g><path fill="none" stroke="none"/><text fill="#000000" stroke="none" font-family="Arial" font-size="13px" font-style="normal" font-weight="normal" text-decoration="undefined" x="780.23388671875" y="440.5" text-anchor="middle" dominant-baseline="central" transform="matrix(1 0 0 1 10 0)">7 : 5: _route_to_scraper() -&gt; get_converter(type, config)</text></g></g><g><rect fill="#e9e9e9" stroke="none" x="1147" y="450" width="14" height="28" transform="matrix(1 0 0 1 10 0)"/></g><g><path fill="none" stroke="#000000" paint-order="fill stroke markers" d=" M 1157 450 L 1171 450 L 1171 478 L 1157 478 L 1157 450 Z Z" stroke-miterlimit="10" stroke-dasharray=""/></g><g><path fill="none" stroke="#000000" paint-order="fill stroke markers" d=" M 423 500 L 1157 500" stroke-miterlimit="10" stroke-dasharray=""/></g><g><path fill="#000000" stroke="none" paint-order="stroke fill markers" d=" M 1146.837325142376 504.209517756016 L 1157 500 L 1146.837325142376 495.790482243984"/></g><g><path fill="none" stroke="#000000" paint-order="fill stroke markers" d=" M 1146.837325142376 504.209517756016 L 1157 500 L 1146.837325142376 495.790482243984 L 1146.837325142376 504.209517756016" stroke-miterlimit="10" stroke-dasharray=""/></g><g><rect fill="#e9e9e9" stroke="none" x="729" y="484" width="102.59716796875" height="13" transform="matrix(1 0 0 1 10 0)"/></g><g><g><path fill="none" stroke="none"/><text fill="#000000" stroke="none" font-family="Arial" font-size="13px" font-style="normal" font-weight="normal" text-decoration="undefined" x="780.298583984375" y="490.5" text-anchor="middle" dominant-baseline="central" transform="matrix(1 0 0 1 10 0)">8 : converter.run()</text></g></g><g><rect fill="#e9e9e9" stroke="none" x="1147" y="500" width="14" height="28" transform="matrix(1 0 0 1 10 0)"/></g><g><path fill="none" stroke="#000000" paint-order="fill stroke markers" d=" M 1157 500 L 1171 500 L 1171 528 L 1157 528 L 1157 500 Z Z" stroke-miterlimit="10" stroke-dasharray=""/></g><g><path fill="none" stroke="#000000" paint-order="fill stroke markers" d=" M 1164 540 L 423 540" stroke-miterlimit="10" stroke-dasharray="3"/></g><g><path fill="none" stroke="#000000" paint-order="fill stroke markers" d=" M 433.16267485762415 535.790482243984 L 423 540 L 433.16267485762415 544.209517756016" stroke-miterlimit="10" stroke-dasharray=""/></g><g><rect fill="#e9e9e9" stroke="none" x="725" y="544" width="114.88623046875" height="13" transform="matrix(1 0 0 1 10 0)"/></g><g><g><path fill="none" stroke="none"/><text fill="#000000" stroke="none" font-family="Arial" font-size="13px" font-style="normal" font-weight="normal" text-decoration="undefined" x="782.443115234375" y="550.5" text-anchor="middle" dominant-baseline="central" transform="matrix(1 0 0 1 10 0)">9 : converter result</text></g></g><g><path fill="none" stroke="#000000" paint-order="fill stroke markers" d=" M 1165 540 L 1195 540 L 1195 560 L 1171 560" stroke-miterlimit="10" stroke-dasharray=""/></g><g><path fill="#000000" stroke="none" paint-order="stroke fill markers" d=" M 1181.162674857624 555.790482243984 L 1171 560 L 1181.162674857624 564.209517756016"/></g><g><path fill="none" stroke="#000000" paint-order="fill stroke markers" d=" M 1181.162674857624 555.790482243984 L 1171 560 L 1181.162674857624 564.209517756016 L 1181.162674857624 555.790482243984" stroke-miterlimit="10" stroke-dasharray=""/></g><g><rect fill="#e9e9e9" stroke="none" x="1086" y="543" width="216.37890625" height="13" transform="matrix(1 0 0 1 10 0)"/></g><g><g><path fill="none" stroke="none"/><text fill="#000000" stroke="none" font-family="Arial" font-size="13px" font-style="normal" font-weight="normal" text-decoration="undefined" x="1194.189453125" y="549.5" text-anchor="middle" dominant-baseline="central" transform="matrix(1 0 0 1 10 0)">10 : internally: extract() -&gt; build_skill()</text></g></g><g><rect fill="#e9e9e9" stroke="none" x="1147" y="560" width="14" height="28" transform="matrix(1 0 0 1 10 0)"/></g><g><path fill="none" stroke="#000000" paint-order="fill stroke markers" d=" M 1157 560 L 1171 560 L 1171 588 L 1157 588 L 1157 560 Z Z" stroke-miterlimit="10" stroke-dasharray=""/></g><g><path fill="none" stroke="#000000" paint-order="fill stroke markers" d=" M 422 641 L 161 641" stroke-miterlimit="10" stroke-dasharray="3"/></g><g><path fill="none" stroke="#000000" paint-order="fill stroke markers" d=" M 171.16267485762415 636.790482243984 L 161 641 L 171.16267485762415 645.209517756016" stroke-miterlimit="10" stroke-dasharray=""/></g><g><rect fill="#e9e9e9" stroke="none" x="245" y="645" width="70.09716796875" height="13" transform="matrix(1 0 0 1 10 0)"/></g><g><g><path fill="none" stroke="none"/><text fill="#000000" stroke="none" font-family="Arial" font-size="13px" font-style="normal" font-weight="normal" text-decoration="undefined" x="280.048583984375" y="651.5" text-anchor="middle" dominant-baseline="central" transform="matrix(1 0 0 1 10 0)">11 : return 0</text></g></g><g><path fill="none" stroke="#000000" paint-order="fill stroke markers" d=" M 423 641 L 453 641 L 453 661 L 429 661" stroke-miterlimit="10" stroke-dasharray=""/></g><g><path fill="#000000" stroke="none" paint-order="stroke fill markers" d=" M 439.16267485762415 656.790482243984 L 429 661 L 439.16267485762415 665.209517756016"/></g><g><path fill="none" stroke="#000000" paint-order="fill stroke markers" d=" M 439.16267485762415 656.790482243984 L 429 661 L 439.16267485762415 665.209517756016 L 439.16267485762415 656.790482243984" stroke-miterlimit="10" stroke-dasharray=""/></g><g><rect fill="#e9e9e9" stroke="none" x="364" y="644" width="177.048828125" height="13" transform="matrix(1 0 0 1 10 0)"/></g><g><g><path fill="none" stroke="none"/><text fill="#000000" stroke="none" font-family="Arial" font-size="13px" font-style="normal" font-weight="normal" text-decoration="undefined" x="452.5244140625" y="650.5" text-anchor="middle" dominant-baseline="central" transform="matrix(1 0 0 1 10 0)">12 : 6: _run_enhancement(ctx)</text></g></g><g><rect fill="#e9e9e9" stroke="none" x="405" y="661" width="14" height="67" transform="matrix(1 0 0 1 10 0)"/></g><g><path fill="none" stroke="#000000" paint-order="fill stroke markers" d=" M 415 661 L 429 661 L 429 728 L 415 728 L 415 661 Z Z" stroke-miterlimit="10" stroke-dasharray=""/></g><g><path fill="none" stroke="#000000" paint-order="fill stroke markers" d=" M 423 641 L 453 641 L 453 661 L 429 661" stroke-miterlimit="10" stroke-dasharray=""/></g><g><path fill="#000000" stroke="none" paint-order="stroke fill markers" d=" M 439.16267485762415 656.790482243984 L 429 661 L 439.16267485762415 665.209517756016"/></g><g><path fill="none" stroke="#000000" paint-order="fill stroke markers" d=" M 439.16267485762415 656.790482243984 L 429 661 L 439.16267485762415 665.209517756016 L 439.16267485762415 656.790482243984" stroke-miterlimit="10" stroke-dasharray=""/></g><g><rect fill="#e9e9e9" stroke="none" x="383" y="644" width="138.7216796875" height="13" transform="matrix(1 0 0 1 10 0)"/></g><g><g><path fill="none" stroke="none"/><text fill="#000000" stroke="none" font-family="Arial" font-size="13px" font-style="normal" font-weight="normal" text-decoration="undefined" x="452.36083984375" y="650.5" text-anchor="middle" dominant-baseline="central" transform="matrix(1 0 0 1 10 0)">13 : 7: _run_workflows()</text></g></g><g><rect fill="#e9e9e9" stroke="none" x="405" y="661" width="14" height="70" transform="matrix(1 0 0 1 10 0)"/></g><g><path fill="none" stroke="#000000" paint-order="fill stroke markers" d=" M 415 661 L 429 661 L 429 731 L 415 731 L 415 661 Z Z" stroke-miterlimit="10" stroke-dasharray=""/></g></g></svg>