<svg version="1.1" xmlns="http://www.w3.org/2000/svg" xmlns:xlink="http://www.w3.org/1999/xlink" width="441" height="486"><defs/><g><g><path fill="#C0C0C0" stroke="none" paint-order="stroke fill markers" d=" M 105 272 C 105 265.3725824 110.3725824 260 117 260 C 123.6274176 260 129 265.3725824 129 272 C 129 278.6274176 123.6274176 284 117 284 C 110.3725824 284 105 278.6274176 105 272 Z" fill-opacity="0.2"/></g><g><path fill="#e9e9e9" stroke="none" paint-order="stroke fill markers" d=" M 98 265 C 98 258.3725824 103.3725824 253 110 253 C 116.6274176 253 122 258.3725824 122 265 C 122 271.6274176 116.6274176 277 110 277 C 103.3725824 277 98 271.6274176 98 265 Z"/></g><g><path fill="none" stroke="#000000" paint-order="fill stroke markers" d=" M 98 265 C 98 258.3725824 103.3725824 253 110 253 C 116.6274176 253 122 258.3725824 122 265 C 122 271.6274176 116.6274176 277 110 277 C 103.3725824 277 98 271.6274176 98 265 Z" stroke-miterlimit="10" stroke-dasharray=""/></g><g><path fill="none" stroke="#000000" paint-order="fill stroke markers" d=" M 10 302 L 210 302" stroke-miterlimit="10" stroke-dasharray=""/></g><g><g><path fill="none" stroke="none"/><text fill="#000000" stroke="none" font-family="Arial" font-size="13px" font-style="normal" font-weight="bold" text-decoration="undefined" x="120.5" y="300.5" text-anchor="middle" dominant-baseline="central" transform="matrix(1 0 0 1 -10 -10)">ICLIDispatcher</text></g></g><g><g><path fill="none" stroke="none"/><text fill="#000000" stroke="none" font-family="Arial" font-size="13px" font-style="normal" font-weight="normal" text-decoration="undefined" x="25" y="323.5" text-anchor="start" dominant-baseline="central" transform="matrix(1 0 0 1 -10 -10)">+main()</text></g></g><g><g><path fill="none" stroke="none"/><text fill="#000000" stroke="none" font-family="Arial" font-size="13px" font-style="normal" font-weight="normal" text-decoration="undefined" x="25" y="338.5" text-anchor="start" dominant-baseline="central" transform="matrix(1 0 0 1 -10 -10)">+create_parser()</text></g></g><g><rect fill="#C0C0C0" stroke="none" x="123.109130859375" y="407" width="227.78173828125" height="86" transform="matrix(1 0 0 1 -10 -10)" fill-opacity="0.2"/></g><g><rect fill="#e9e9e9" stroke="none" x="116.109130859375" y="400" width="227.78173828125" height="86" transform="matrix(1 0 0 1 -10 -10)"/></g><g><path fill="none" stroke="#000000" paint-order="fill stroke markers" d=" M 106.109130859375 390 L 333.890869140625 390 L 333.890869140625 476 L 106.109130859375 476 L 106.109130859375 390 Z Z" stroke-miterlimit="10" stroke-dasharray=""/></g><g><path fill="none" stroke="#000000" paint-order="fill stroke markers" d=" M 106.109130859375 415 L 333.890869140625 415" stroke-miterlimit="10" stroke-dasharray=""/></g><g><path fill="none" stroke="#000000" paint-order="fill stroke markers" d=" M 106.109130859375 438 L 333.890869140625 438" stroke-miterlimit="10" stroke-dasharray=""/></g><g><g><path fill="none" stroke="none"/><text fill="#000000" stroke="none" font-family="Arial" font-size="13px" font-style="normal" font-weight="bold" text-decoration="undefined" x="230.5" y="413.5" text-anchor="middle" dominant-baseline="central" transform="matrix(1 0 0 1 -10 -10)">CLIDispatcher</text></g></g><g><g><path fill="none" stroke="none"/><text fill="#000000" stroke="none" font-family="Arial" font-size="13px" font-style="normal" font-weight="normal" text-decoration="undefined" x="121.109130859375" y="436.5" text-anchor="start" dominant-baseline="central" transform="matrix(1 0 0 1 -10 -10)">-COMMAND_MODULES: dict[str, str]</text></g></g><g><g><path fill="none" stroke="none"/><text fill="#000000" stroke="none" font-family="Arial" font-size="13px" font-style="normal" font-weight="normal" text-decoration="undefined" x="121.109130859375" y="459.5" text-anchor="start" dominant-baseline="central" transform="matrix(1 0 0 1 -10 -10)">+main()</text></g></g><g><g><path fill="none" stroke="none"/><text fill="#000000" stroke="none" font-family="Arial" font-size="13px" font-style="normal" font-weight="normal" text-decoration="undefined" x="121.109130859375" y="474.5" text-anchor="start" dominant-baseline="central" transform="matrix(1 0 0 1 -10 -10)">+create_parser()</text></g></g><g><rect fill="#C0C0C0" stroke="none" x="247" y="278.5" width="200" height="70" transform="matrix(1 0 0 1 -10 -10)" fill-opacity="0.2"/></g><g><rect fill="#e9e9e9" stroke="none" x="240" y="271.5" width="200" height="70" transform="matrix(1 0 0 1 -10 -10)"/></g><g><path fill="none" stroke="#000000" paint-order="fill stroke markers" d=" M 230 261.5 L 430 261.5 L 430 331.5 L 230 331.5 L 230 261.5 Z Z" stroke-miterlimit="10" stroke-dasharray=""/></g><g><path fill="none" stroke="#000000" paint-order="fill stroke markers" d=" M 230 286.5 L 430 286.5" stroke-miterlimit="10" stroke-dasharray=""/></g><g><path fill="none" stroke="#000000" paint-order="fill stroke markers" d=" M 230 296.5 L 430 296.5" stroke-miterlimit="10" stroke-dasharray=""/></g><g><g><path fill="none" stroke="none"/><text fill="#000000" stroke="none" font-family="Arial" font-size="13px" font-style="normal" font-weight="bold" text-decoration="undefined" x="340.5" y="285" text-anchor="middle" dominant-baseline="central" transform="matrix(1 0 0 1 -10 -10)">CreateCommand</text></g></g><g><g><path fill="none" stroke="none"/><text fill="#000000" stroke="none" font-family="Arial" font-size="13px" font-style="normal" font-weight="normal" text-decoration="undefined" x="245" y="318" text-anchor="start" dominant-baseline="central" transform="matrix(1 0 0 1 -10 -10)">+execute()</text></g></g><g><rect fill="#C0C0C0" stroke="none" x="247" y="147" width="200" height="73" transform="matrix(1 0 0 1 -10 -10)" fill-opacity="0.2"/></g><g><rect fill="#e9e9e9" stroke="none" x="240" y="140" width="200" height="73" transform="matrix(1 0 0 1 -10 -10)"/></g><g><path fill="none" stroke="#000000" paint-order="fill stroke markers" d=" M 230 130 L 430 130 L 430 203 L 230 203 L 230 130 Z Z" stroke-miterlimit="10" stroke-dasharray=""/></g><g><path fill="none" stroke="#000000" paint-order="fill stroke markers" d=" M 230 155 L 430 155" stroke-miterlimit="10" stroke-dasharray=""/></g><g><path fill="none" stroke="#000000" paint-order="fill stroke markers" d=" M 230 165 L 430 165" stroke-miterlimit="10" stroke-dasharray=""/></g><g><g><path fill="none" stroke="none"/><text fill="#000000" stroke="none" font-family="Arial" font-size="13px" font-style="normal" font-weight="bold" text-decoration="undefined" x="340.5" y="153.5" text-anchor="middle" dominant-baseline="central" transform="matrix(1 0 0 1 -10 -10)">SourceDetector</text></g></g><g><g><path fill="none" stroke="none"/><text fill="#000000" stroke="none" font-family="Arial" font-size="13px" font-style="normal" font-weight="normal" text-decoration="undefined" x="245" y="186.5" text-anchor="start" dominant-baseline="central" transform="matrix(1 0 0 1 -10 -10)">+detect()</text></g></g><g><g><path fill="none" stroke="none"/><text fill="#000000" stroke="none" font-family="Arial" font-size="13px" font-style="normal" font-weight="normal" text-decoration="undefined" x="245" y="201.5" text-anchor="start" dominant-baseline="central" transform="matrix(1 0 0 1 -10 -10)">+validate_source()</text></g></g><g><rect fill="#C0C0C0" stroke="none" x="272" y="27" width="150" height="70" transform="matrix(1 0 0 1 -10 -10)" fill-opacity="0.2"/></g><g><rect fill="#e9e9e9" stroke="none" x="265" y="20" width="150" height="70" transform="matrix(1 0 0 1 -10 -10)"/></g><g><path fill="none" stroke="#000000" paint-order="fill stroke markers" d=" M 255 10 L 405 10 L 405 80 L 255 80 L 255 10 Z Z" stroke-miterlimit="10" stroke-dasharray=""/></g><g><g><path fill="none" stroke="none"/><text fill="#000000" stroke="none" font-family="Arial" font-size="13px" font-style="normal" font-weight="normal" text-decoration="undefined" x="340.5" y="31.5" text-anchor="middle" dominant-baseline="central" transform="matrix(1 0 0 1 -10 -10)">«dataType»</text></g></g><g><g><path fill="none" stroke="none"/><text fill="#000000" stroke="none" font-family="Arial" font-size="13px" font-style="normal" font-weight="bold" text-decoration="undefined" x="340.5" y="46.5" text-anchor="middle" dominant-baseline="central" transform="matrix(1 0 0 1 -10 -10)">SourceInfo</text></g></g><g><path fill="none" stroke="#000000" paint-order="fill stroke markers" d=" M 149 389 L 110 365 L 110 277" stroke-miterlimit="10" stroke-dasharray=""/></g><g><path fill="none" stroke="#000000" paint-order="fill stroke markers" d=" M 291 389 L 330 365 L 330 333" stroke-miterlimit="10" stroke-dasharray="3"/></g><g><path fill="none" stroke="#000000" paint-order="fill stroke markers" d=" M 334.209517756016 343.16267485762415 L 330 333 L 325.790482243984 343.16267485762415" stroke-miterlimit="10" stroke-dasharray=""/></g><g><path fill="none" stroke="#000000" paint-order="fill stroke markers" d=" M 330 261 L 330 228 L 330 204" stroke-miterlimit="10" stroke-dasharray="3"/></g><g><path fill="none" stroke="#000000" paint-order="fill stroke markers" d=" M 334.209517756016 214.16267485762415 L 330 204 L 325.790482243984 214.16267485762415" stroke-miterlimit="10" stroke-dasharray=""/></g><g><path fill="none" stroke="#000000" paint-order="fill stroke markers" d=" M 330 129 L 330 105 L 330 81" stroke-miterlimit="10" stroke-dasharray="3"/></g><g><path fill="none" stroke="#000000" paint-order="fill stroke markers" d=" M 334.209517756016 91.16267485762415 L 330 81 L 325.790482243984 91.16267485762415" stroke-miterlimit="10" stroke-dasharray=""/></g></g></svg>