<svg version="1.1" xmlns="http://www.w3.org/2000/svg" xmlns:xlink="http://www.w3.org/1999/xlink" width="744.733642578125" height="757"><defs/><g><g><path fill="#C0C0C0" stroke="none" paint-order="stroke fill markers" d=" M 105 511 C 105 504.37258240000006 110.3725824 499 117 499 C 123.6274176 499 129 504.37258240000006 129 511 C 129 517.6274176 123.6274176 523 117 523 C 110.3725824 523 105 517.6274176 105 511 Z" fill-opacity="0.2"/></g><g><path fill="#e9e9e9" stroke="none" paint-order="stroke fill markers" d=" M 98 504 C 98 497.3725824 103.3725824 492 110 492 C 116.6274176 492 122 497.3725824 122 504 C 122 510.62741759999994 116.6274176 516 110 516 C 103.3725824 516 98 510.62741759999994 98 504 Z"/></g><g><path fill="none" stroke="#000000" paint-order="fill stroke markers" d=" M 98 504 C 98 497.3725824 103.3725824 492 110 492 C 116.6274176 492 122 497.3725824 122 504 C 122 510.62741759999994 116.6274176 516 110 516 C 103.3725824 516 98 510.62741759999994 98 504 Z" stroke-miterlimit="10" stroke-dasharray=""/></g><g><path fill="none" stroke="#000000" paint-order="fill stroke markers" d=" M 10 541 L 210 541" stroke-miterlimit="10" stroke-dasharray=""/></g><g><g><path fill="none" stroke="none"/><text fill="#000000" stroke="none" font-family="Arial" font-size="13px" font-style="normal" font-weight="bold" text-decoration="undefined" x="120.5" y="539.5" text-anchor="middle" dominant-baseline="central" transform="matrix(1 0 0 1 -10 -10)">ICLIDispatcher</text></g></g><g><g><path fill="none" stroke="none"/><text fill="#000000" stroke="none" font-family="Arial" font-size="13px" font-style="normal" font-weight="normal" text-decoration="undefined" x="25" y="562.5" text-anchor="start" dominant-baseline="central" transform="matrix(1 0 0 1 -10 -10)">+main()</text></g></g><g><g><path fill="none" stroke="none"/><text fill="#000000" stroke="none" font-family="Arial" font-size="13px" font-style="normal" font-weight="normal" text-decoration="undefined" x="25" y="577.5" text-anchor="start" dominant-baseline="central" transform="matrix(1 0 0 1 -10 -10)">+create_parser()</text></g></g><g><rect fill="#C0C0C0" stroke="none" x="28.109130859375" y="678" width="227.78173828125" height="86" transform="matrix(1 0 0 1 -10 -10)" fill-opacity="0.2"/></g><g><rect fill="#e9e9e9" stroke="none" x="21.109130859375" y="671" width="227.78173828125" height="86" transform="matrix(1 0 0 1 -10 -10)"/></g><g><path fill="none" stroke="#000000" paint-order="fill stroke markers" d=" M 11.109130859375 661 L 238.890869140625 661 L 238.890869140625 747 L 11.109130859375 747 L 11.109130859375 661 Z Z" stroke-miterlimit="10" stroke-dasharray=""/></g><g><path fill="none" stroke="#000000" paint-order="fill stroke markers" d=" M 11.109130859375 686 L 238.890869140625 686" stroke-miterlimit="10" stroke-dasharray=""/></g><g><path fill="none" stroke="#000000" paint-order="fill stroke markers" d=" M 11.109130859375 709 L 238.890869140625 709" stroke-miterlimit="10" stroke-dasharray=""/></g><g><g><path fill="none" stroke="none"/><text fill="#000000" stroke="none" font-family="Arial" font-size="13px" font-style="normal" font-weight="bold" text-decoration="undefined" x="135.5" y="684.5" text-anchor="middle" dominant-baseline="central" transform="matrix(1 0 0 1 -10 -10)">CLIDispatcher</text></g></g><g><g><path fill="none" stroke="none"/><text fill="#000000" stroke="none" font-family="Arial" font-size="13px" font-style="normal" font-weight="normal" text-decoration="undefined" x="26.109130859375" y="707.5" text-anchor="start" dominant-baseline="central" transform="matrix(1 0 0 1 -10 -10)">-COMMAND_MODULES: dict[str, str]</text></g></g><g><g><path fill="none" stroke="none"/><text fill="#000000" stroke="none" font-family="Arial" font-size="13px" font-style="normal" font-weight="normal" text-decoration="undefined" x="26.109130859375" y="730.5" text-anchor="start" dominant-baseline="central" transform="matrix(1 0 0 1 -10 -10)">+main()</text></g></g><g><g><path fill="none" stroke="none"/><text fill="#000000" stroke="none" font-family="Arial" font-size="13px" font-style="normal" font-weight="normal" text-decoration="undefined" x="26.109130859375" y="745.5" text-anchor="start" dominant-baseline="central" transform="matrix(1 0 0 1 -10 -10)">+create_parser()</text></g></g><g><rect fill="#C0C0C0" stroke="none" x="270.4827880859375" y="457" width="283.8505859375" height="191" transform="matrix(1 0 0 1 -10 -10)" fill-opacity="0.2"/></g><g><rect fill="#e9e9e9" stroke="none" x="263.4827880859375" y="450" width="283.8505859375" height="191" transform="matrix(1 0 0 1 -10 -10)"/></g><g><path fill="none" stroke="#000000" paint-order="fill stroke markers" d=" M 253.4827880859375 440 L 537.3333740234375 440 L 537.3333740234375 631 L 253.4827880859375 631 L 253.4827880859375 440 Z Z" stroke-miterlimit="10" stroke-dasharray=""/></g><g><path fill="none" stroke="#000000" paint-order="fill stroke markers" d=" M 253.4827880859375 465 L 537.3333740234375 465" stroke-miterlimit="10" stroke-dasharray=""/></g><g><path fill="none" stroke="#000000" paint-order="fill stroke markers" d=" M 253.4827880859375 518 L 537.3333740234375 518" stroke-miterlimit="10" stroke-dasharray=""/></g><g><g><path fill="none" stroke="none"/><text fill="#000000" stroke="none" font-family="Arial" font-size="13px" font-style="normal" font-weight="bold" text-decoration="undefined" x="405.9080810546875" y="463.5" text-anchor="middle" dominant-baseline="central" transform="matrix(1 0 0 1 -10 -10)">CreateCommand</text></g></g><g><g><path fill="none" stroke="none"/><text fill="#000000" stroke="none" font-family="Arial" font-size="13px" font-style="normal" font-weight="normal" text-decoration="undefined" x="268.4827880859375" y="486.5" text-anchor="start" dominant-baseline="central" transform="matrix(1 0 0 1 -10 -10)">+args: argparse.Namespace</text></g></g><g><g><path fill="none" stroke="none"/><text fill="#000000" stroke="none" font-family="Arial" font-size="13px" font-style="normal" font-weight="normal" text-decoration="undefined" x="268.4827880859375" y="501.5" text-anchor="start" dominant-baseline="central" transform="matrix(1 0 0 1 -10 -10)">+source_info: SourceInfo</text></g></g><g><g><path fill="none" stroke="none"/><text fill="#000000" stroke="none" font-family="Arial" font-size="13px" font-style="normal" font-weight="normal" text-decoration="undefined" x="268.4827880859375" y="516.5" text-anchor="start" dominant-baseline="central" transform="matrix(1 0 0 1 -10 -10)">-_parser_defaults: dict[str, Any]</text></g></g><g><g><path fill="none" stroke="none"/><text fill="#000000" stroke="none" font-family="Arial" font-size="13px" font-style="normal" font-weight="normal" text-decoration="undefined" x="268.4827880859375" y="539.5" text-anchor="start" dominant-baseline="central" transform="matrix(1 0 0 1 -10 -10)">+execute(): int()</text></g></g><g><g><path fill="none" stroke="none"/><text fill="#000000" stroke="none" font-family="Arial" font-size="13px" font-style="normal" font-weight="normal" text-decoration="undefined" x="268.4827880859375" y="554.5" text-anchor="start" dominant-baseline="central" transform="matrix(1 0 0 1 -10 -10)">-_build_config(source_type, ctx): dict()</text></g></g><g><g><path fill="none" stroke="none"/><text fill="#000000" stroke="none" font-family="Arial" font-size="13px" font-style="normal" font-weight="normal" text-decoration="undefined" x="268.4827880859375" y="569.5" text-anchor="start" dominant-baseline="central" transform="matrix(1 0 0 1 -10 -10)">-_route_to_scraper(): int()</text></g></g><g><g><path fill="none" stroke="none"/><text fill="#000000" stroke="none" font-family="Arial" font-size="13px" font-style="normal" font-weight="normal" text-decoration="undefined" x="268.4827880859375" y="584.5" text-anchor="start" dominant-baseline="central" transform="matrix(1 0 0 1 -10 -10)">-_validate_arguments()()</text></g></g><g><g><path fill="none" stroke="none"/><text fill="#000000" stroke="none" font-family="Arial" font-size="13px" font-style="normal" font-weight="normal" text-decoration="undefined" x="268.4827880859375" y="599.5" text-anchor="start" dominant-baseline="central" transform="matrix(1 0 0 1 -10 -10)">-_run_enhancement(ctx)()</text></g></g><g><g><path fill="none" stroke="none"/><text fill="#000000" stroke="none" font-family="Arial" font-size="13px" font-style="normal" font-weight="normal" text-decoration="undefined" x="268.4827880859375" y="614.5" text-anchor="start" dominant-baseline="central" transform="matrix(1 0 0 1 -10 -10)">-_is_explicitly_set(arg_name, arg_value): bool()</text></g></g><g><g><path fill="none" stroke="none"/><text fill="#000000" stroke="none" font-family="Arial" font-size="13px" font-style="normal" font-weight="normal" text-decoration="undefined" x="268.4827880859375" y="629.5" text-anchor="start" dominant-baseline="central" transform="matrix(1 0 0 1 -10 -10)">-_run_workflows()()</text></g></g><g><rect fill="#C0C0C0" stroke="none" x="156.299560546875" y="240.5" width="200" height="73" transform="matrix(1 0 0 1 -10 -10)" fill-opacity="0.2"/></g><g><rect fill="#e9e9e9" stroke="none" x="149.299560546875" y="233.5" width="200" height="73" transform="matrix(1 0 0 1 -10 -10)"/></g><g><path fill="none" stroke="#000000" paint-order="fill stroke markers" d=" M 139.299560546875 223.5 L 339.299560546875 223.5 L 339.299560546875 296.5 L 139.299560546875 296.5 L 139.299560546875 223.5 Z Z" stroke-miterlimit="10" stroke-dasharray=""/></g><g><path fill="none" stroke="#000000" paint-order="fill stroke markers" d=" M 139.299560546875 248.5 L 339.299560546875 248.5" stroke-miterlimit="10" stroke-dasharray=""/></g><g><path fill="none" stroke="#000000" paint-order="fill stroke markers" d=" M 139.299560546875 258.5 L 339.299560546875 258.5" stroke-miterlimit="10" stroke-dasharray=""/></g><g><g><path fill="none" stroke="none"/><text fill="#000000" stroke="none" font-family="Arial" font-size="13px" font-style="normal" font-weight="bold" text-decoration="undefined" x="249.799560546875" y="247" text-anchor="middle" dominant-baseline="central" transform="matrix(1 0 0 1 -10 -10)">SourceDetector</text></g></g><g><g><path fill="none" stroke="none"/><text fill="#000000" stroke="none" font-family="Arial" font-size="13px" font-style="normal" font-weight="normal" text-decoration="undefined" x="154.299560546875" y="280" text-anchor="start" dominant-baseline="central" transform="matrix(1 0 0 1 -10 -10)">+detect()</text></g></g><g><g><path fill="none" stroke="none"/><text fill="#000000" stroke="none" font-family="Arial" font-size="13px" font-style="normal" font-weight="normal" text-decoration="undefined" x="154.299560546875" y="295" text-anchor="start" dominant-baseline="central" transform="matrix(1 0 0 1 -10 -10)">+validate_source()</text></g></g><g><rect fill="#C0C0C0" stroke="none" x="181.299560546875" y="27" width="150" height="70" transform="matrix(1 0 0 1 -10 -10)" fill-opacity="0.2"/></g><g><rect fill="#e9e9e9" stroke="none" x="174.299560546875" y="20" width="150" height="70" transform="matrix(1 0 0 1 -10 -10)"/></g><g><path fill="none" stroke="#000000" paint-order="fill stroke markers" d=" M 164.299560546875 10 L 314.299560546875 10 L 314.299560546875 80 L 164.299560546875 80 L 164.299560546875 10 Z Z" stroke-miterlimit="10" stroke-dasharray=""/></g><g><g><path fill="none" stroke="none"/><text fill="#000000" stroke="none" font-family="Arial" font-size="13px" font-style="normal" font-weight="normal" text-decoration="undefined" x="249.799560546875" y="31.5" text-anchor="middle" dominant-baseline="central" transform="matrix(1 0 0 1 -10 -10)">«dataType»</text></g></g><g><g><path fill="none" stroke="none"/><text fill="#000000" stroke="none" font-family="Arial" font-size="13px" font-style="normal" font-weight="bold" text-decoration="undefined" x="249.799560546875" y="46.5" text-anchor="middle" dominant-baseline="central" transform="matrix(1 0 0 1 -10 -10)">SourceInfo</text></g></g><g><path fill="none" stroke="#000000" paint-order="fill stroke markers" d=" M 114 660 Q 110 646 110 516" stroke-miterlimit="10" stroke-dasharray=""/></g><g><path fill="none" stroke="#000000" paint-order="fill stroke markers" d=" M 228 660 Q 261 646 278 632" stroke-miterlimit="10" stroke-dasharray="3"/></g><g><path fill="none" stroke="#000000" paint-order="fill stroke markers" d=" M 272.83114497120164 641.7099401486964 L 278 632 L 267.47910303410777 635.2110320822252" stroke-miterlimit="10" stroke-dasharray=""/></g><g><path fill="none" stroke="#000000" paint-order="fill stroke markers" d=" M 259 439 Q 239 425 239 298" stroke-miterlimit="10" stroke-dasharray="3"/></g><g><path fill="none" stroke="#000000" paint-order="fill stroke markers" d=" M 243.209517756016 308.16267485762415 L 239 298 L 234.790482243984 308.16267485762415" stroke-miterlimit="10" stroke-dasharray=""/></g><g><path fill="none" stroke="#000000" paint-order="fill stroke markers" d=" M 239 223 Q 239 95 239 81" stroke-miterlimit="10" stroke-dasharray="3"/></g><g><path fill="none" stroke="#000000" paint-order="fill stroke markers" d=" M 243.209517756016 91.16267485762415 L 239 81 L 234.790482243984 91.16267485762415" stroke-miterlimit="10" stroke-dasharray=""/></g><g><rect fill="#C0C0C0" stroke="none" x="386.299560546875" y="127" width="364.43408203125" height="300" transform="matrix(1 0 0 1 -10 -10)" fill-opacity="0.2"/></g><g><rect fill="#e9e9e9" stroke="none" x="379.299560546875" y="120" width="364.43408203125" height="300" transform="matrix(1 0 0 1 -10 -10)"/></g><g><path fill="none" stroke="#000000" paint-order="fill stroke markers" d=" M 369.299560546875 110 L 733.733642578125 110 L 733.733642578125 410 L 369.299560546875 410 L 369.299560546875 110 Z Z" stroke-miterlimit="10" stroke-dasharray=""/></g><g><path fill="none" stroke="#000000" paint-order="fill stroke markers" d=" M 369.299560546875 135 L 733.733642578125 135" stroke-miterlimit="10" stroke-dasharray=""/></g><g><path fill="none" stroke="#000000" paint-order="fill stroke markers" d=" M 369.299560546875 233 L 733.733642578125 233" stroke-miterlimit="10" stroke-dasharray=""/></g><g><g><path fill="none" stroke="none"/><text fill="#000000" stroke="none" font-family="Arial" font-size="13px" font-style="normal" font-weight="bold" text-decoration="undefined" x="562.0166015625" y="133.5" text-anchor="middle" dominant-baseline="central" transform="matrix(1 0 0 1 -10 -10)">ExecutionContext</text></g></g><g><g><path fill="none" stroke="none"/><text fill="#000000" stroke="none" font-family="Arial" font-size="13px" font-style="normal" font-weight="normal" text-decoration="undefined" x="384.299560546875" y="156.5" text-anchor="start" dominant-baseline="central" transform="matrix(1 0 0 1 -10 -10)">+source: SourceInfoConfig</text></g></g><g><g><path fill="none" stroke="none"/><text fill="#000000" stroke="none" font-family="Arial" font-size="13px" font-style="normal" font-weight="normal" text-decoration="undefined" x="384.299560546875" y="171.5" text-anchor="start" dominant-baseline="central" transform="matrix(1 0 0 1 -10 -10)">+enhancement: EnhancementSettings</text></g></g><g><g><path fill="none" stroke="none"/><text fill="#000000" stroke="none" font-family="Arial" font-size="13px" font-style="normal" font-weight="normal" text-decoration="undefined" x="384.299560546875" y="186.5" text-anchor="start" dominant-baseline="central" transform="matrix(1 0 0 1 -10 -10)">+output: OutputSettings</text></g></g><g><g><path fill="none" stroke="none"/><text fill="#000000" stroke="none" font-family="Arial" font-size="13px" font-style="normal" font-weight="normal" text-decoration="undefined" x="384.299560546875" y="201.5" text-anchor="start" dominant-baseline="central" transform="matrix(1 0 0 1 -10 -10)">+scraping: ScrapingSettings</text></g></g><g><g><path fill="none" stroke="none"/><text fill="#000000" stroke="none" font-family="Arial" font-size="13px" font-style="normal" font-weight="normal" text-decoration="undefined" x="384.299560546875" y="216.5" text-anchor="start" dominant-baseline="central" transform="matrix(1 0 0 1 -10 -10)">+analysis: AnalysisSettings</text></g></g><g><g><path fill="none" stroke="none"/><text fill="#000000" stroke="none" font-family="Arial" font-size="13px" font-style="normal" font-weight="normal" text-decoration="undefined" x="384.299560546875" y="231.5" text-anchor="start" dominant-baseline="central" transform="matrix(1 0 0 1 -10 -10)">+rag: RAGSettings</text></g></g><g><g><path fill="none" stroke="none"/><text fill="#000000" stroke="none" font-family="Arial" font-size="13px" font-style="normal" font-weight="normal" text-decoration="undefined" x="384.299560546875" y="254.5" text-anchor="start" dominant-baseline="central" transform="matrix(1 0 0 1 -10 -10)">+get(): ExecutionContext()</text></g></g><g><g><path fill="none" stroke="none"/><text fill="#000000" stroke="none" font-family="Arial" font-size="13px" font-style="normal" font-weight="normal" text-decoration="undefined" x="384.299560546875" y="269.5" text-anchor="start" dominant-baseline="central" transform="matrix(1 0 0 1 -10 -10)">+initialize(args, config_path, source_info): ExecutionContext()</text></g></g><g><g><path fill="none" stroke="none"/><text fill="#000000" stroke="none" font-family="Arial" font-size="13px" font-style="normal" font-weight="normal" text-decoration="undefined" x="384.299560546875" y="284.5" text-anchor="start" dominant-baseline="central" transform="matrix(1 0 0 1 -10 -10)">+reset()()</text></g></g><g><g><path fill="none" stroke="none"/><text fill="#000000" stroke="none" font-family="Arial" font-size="13px" font-style="normal" font-weight="normal" text-decoration="undefined" x="384.299560546875" y="299.5" text-anchor="start" dominant-baseline="central" transform="matrix(1 0 0 1 -10 -10)">+override(**kwargs): Generator()</text></g></g><g><g><path fill="none" stroke="none"/><text fill="#000000" stroke="none" font-family="Arial" font-size="13px" font-style="normal" font-weight="normal" text-decoration="undefined" x="384.299560546875" y="314.5" text-anchor="start" dominant-baseline="central" transform="matrix(1 0 0 1 -10 -10)">+get_raw(name, default): Any()</text></g></g><g><g><path fill="none" stroke="none"/><text fill="#000000" stroke="none" font-family="Arial" font-size="13px" font-style="normal" font-weight="normal" text-decoration="undefined" x="384.299560546875" y="329.5" text-anchor="start" dominant-baseline="central" transform="matrix(1 0 0 1 -10 -10)">+get_agent_client(): AgentClient()</text></g></g><g><path fill="none" stroke="#000000" paint-order="fill stroke markers" d=" M 532 439 Q 552 425 552 411" stroke-miterlimit="10" stroke-dasharray="3"/></g><g><path fill="none" stroke="#000000" paint-order="fill stroke markers" d=" M 556.209517756016 421.16267485762415 L 552 411 L 547.790482243984 421.16267485762415" stroke-miterlimit="10" stroke-dasharray=""/></g><g><rect fill="#e9e9e9" stroke="none" x="530" y="428" width="35.0517578125" height="13" transform="matrix(1 0 0 1 -10 -10)"/></g><g><g><path fill="none" stroke="none"/><text fill="#000000" stroke="none" font-family="Arial" font-size="13px" font-style="normal" font-weight="normal" text-decoration="undefined" x="547.52587890625" y="434.5" text-anchor="middle" dominant-baseline="central" transform="matrix(1 0 0 1 -10 -10)">+uses</text></g></g><g><path fill="#e9e9e9" stroke="none" paint-order="stroke fill markers" d=" M 285.4080810546875 664 L 524.4080810546875 664 L 534.4080810546875 674 L 534.4080810546875 743 L 285.4080810546875 743 L 285.4080810546875 664"/></g><g><path fill="none" stroke="#000000" paint-order="fill stroke markers" d=" M 285.4080810546875 664 L 524.4080810546875 664 L 534.4080810546875 674 L 534.4080810546875 743 L 285.4080810546875 743 L 285.4080810546875 664 L 285.4080810546875 664" stroke-miterlimit="10" stroke-dasharray=""/></g><g><path fill="none" stroke="#000000" paint-order="fill stroke markers" d=" M 524.4080810546875 664 L 524.4080810546875 674 L 534.4080810546875 674 L 524.4080810546875 664" stroke-miterlimit="10" stroke-dasharray=""/></g><g><g><path fill="none" stroke="none"/><text fill="#000000" stroke="none" font-family="Arial" font-size="13px" font-style="normal" font-weight="normal" text-decoration="undefined" x="300.4080810546875" y="679" text-anchor="start" dominant-baseline="text-before-edge" transform="matrix(1 0 0 1 -10 -10)">CreateCommand._route_to_scraper()</text><text fill="#000000" stroke="none" font-family="Arial" font-size="13px" font-style="normal" font-weight="normal" text-decoration="undefined" x="300.4080810546875" y="692" text-anchor="start" dominant-baseline="text-before-edge" transform="matrix(1 0 0 1 -10 -10)">calls get_converter() which returns a</text><text fill="#000000" stroke="none" font-family="Arial" font-size="13px" font-style="normal" font-weight="normal" text-decoration="undefined" x="300.4080810546875" y="705" text-anchor="start" dominant-baseline="text-before-edge" transform="matrix(1 0 0 1 -10 -10)">SkillConverter (see Diagram 02:</text><text fill="#000000" stroke="none" font-family="Arial" font-size="13px" font-style="normal" font-weight="normal" text-decoration="undefined" x="300.4080810546875" y="718" text-anchor="start" dominant-baseline="text-before-edge" transform="matrix(1 0 0 1 -10 -10)">Scrapers). converter.run() replaces the</text><text fill="#000000" stroke="none" font-family="Arial" font-size="13px" font-style="normal" font-weight="normal" text-decoration="undefined" x="300.4080810546875" y="731" text-anchor="start" dominant-baseline="text-before-edge" transform="matrix(1 0 0 1 -10 -10)">old scraper.main() pattern.</text></g></g><g><path fill="none" stroke="#000000" paint-order="fill stroke markers" d=" M 410 663 Q 410 646 408 632" stroke-miterlimit="10" stroke-dasharray="3"/></g></g></svg>