<svg version="1.1" xmlns="http://www.w3.org/2000/svg" xmlns:xlink="http://www.w3.org/1999/xlink" width="1420" height="670"><defs/><g><g><path fill="none" stroke="#000000" paint-order="fill stroke markers" d=" M 10 10 L 1410 10 L 1410 660 L 10 660 L 10 10" stroke-miterlimit="10" stroke-dasharray=""/></g><g><path fill="#e9e9e9" stroke="none" paint-order="stroke fill markers" d=" M 10 10 L 10 33 L 158.95166015625 33 L 170.45166015625 21.5 L 170.45166015625 10 L 10 10"/></g><g><path fill="none" stroke="#000000" paint-order="fill stroke markers" d=" M 10 10 L 10 33 L 158.95166015625 33 L 170.45166015625 21.5 L 170.45166015625 10 L 10 10 L 10 10" stroke-miterlimit="10" stroke-dasharray=""/></g><g><g><path fill="none" stroke="none"/><text fill="#000000" stroke="none" font-family="Arial" font-size="13px" font-style="normal" font-weight="normal" text-decoration="undefined" x="92.3408203125" y="19.5" text-anchor="middle" dominant-baseline="central" transform="matrix(1 0 0 1 2 2)">MCP Tool Invocation</text></g></g><g><g><path fill="none" stroke="none"/><text fill="#000000" stroke="none" font-family="Arial" font-size="13px" font-style="normal" font-weight="bold" text-decoration="undefined" x="19.864990234375" y="19.5" text-anchor="middle" dominant-baseline="central" transform="matrix(1 0 0 1 2 2)">sd</text></g></g><g><rect fill="#C0C0C0" stroke="none" x="107" y="47" width="100" height="40" transform="matrix(1 0 0 1 2 2)" fill-opacity="0.2"/></g><g><rect fill="#e9e9e9" stroke="none" x="100" y="40" width="100" height="40" transform="matrix(1 0 0 1 2 2)"/></g><g><path fill="none" stroke="#000000" paint-order="fill stroke markers" d=" M 102 42 L 202 42 L 202 82 L 102 82 L 102 42 Z Z" stroke-miterlimit="10" stroke-dasharray=""/></g><g><g><path fill="none" stroke="none"/><text fill="#000000" stroke="none" font-family="Arial" font-size="13px" font-style="normal" font-weight="bold" text-decoration="undefined" x="150.5" y="53.5" text-anchor="middle" dominant-baseline="central" transform="matrix(1 0 0 1 2 2)">MCP Client</text></g></g><g><path fill="none" stroke="#000000" paint-order="fill stroke markers" d=" M 152.5 83 L 152.5 542" stroke-miterlimit="10" stroke-dasharray="3"/></g><g><rect fill="#C0C0C0" stroke="none" x="357" y="47" width="116.09716796875" height="40" transform="matrix(1 0 0 1 2 2)" fill-opacity="0.2"/></g><g><rect fill="#e9e9e9" stroke="none" x="350" y="40" width="116.09716796875" height="40" transform="matrix(1 0 0 1 2 2)"/></g><g><path fill="none" stroke="#000000" paint-order="fill stroke markers" d=" M 352 42 L 468.09716796875 42 L 468.09716796875 82 L 352 82 L 352 42 Z Z" stroke-miterlimit="10" stroke-dasharray=""/></g><g><g><path fill="none" stroke="none"/><text fill="#000000" stroke="none" font-family="Arial" font-size="13px" font-style="normal" font-weight="bold" text-decoration="undefined" x="408.548583984375" y="53.5" text-anchor="middle" dominant-baseline="central" transform="matrix(1 0 0 1 2 2)">FastMCPServer</text></g></g><g><path fill="none" stroke="#000000" paint-order="fill stroke markers" d=" M 410.5 83 L 410.5 542" stroke-miterlimit="10" stroke-dasharray="3"/></g><g><rect fill="#C0C0C0" stroke="none" x="607" y="47" width="186.15625" height="40" transform="matrix(1 0 0 1 2 2)" fill-opacity="0.2"/></g><g><rect fill="#e9e9e9" stroke="none" x="600" y="40" width="186.15625" height="40" transform="matrix(1 0 0 1 2 2)"/></g><g><path fill="none" stroke="#000000" paint-order="fill stroke markers" d=" M 602 42 L 788.15625 42 L 788.15625 82 L 602 82 L 602 42 Z Z" stroke-miterlimit="10" stroke-dasharray=""/></g><g><g><path fill="none" stroke="none"/><text fill="#000000" stroke="none" font-family="Arial" font-size="13px" font-style="normal" font-weight="bold" text-decoration="undefined" x="693.578125" y="53.5" text-anchor="middle" dominant-baseline="central" transform="matrix(1 0 0 1 2 2)">SkillConverter (in-process)</text></g></g><g><path fill="none" stroke="#000000" paint-order="fill stroke markers" d=" M 695.5 83 L 695.5 542" stroke-miterlimit="10" stroke-dasharray="3"/></g><g><rect fill="#C0C0C0" stroke="none" x="907" y="47" width="124.00634765625" height="40" transform="matrix(1 0 0 1 2 2)" fill-opacity="0.2"/></g><g><rect fill="#e9e9e9" stroke="none" x="900" y="40" width="124.00634765625" height="40" transform="matrix(1 0 0 1 2 2)"/></g><g><path fill="none" stroke="#000000" paint-order="fill stroke markers" d=" M 902 42 L 1026.00634765625 42 L 1026.00634765625 82 L 902 82 L 902 42 Z Z" stroke-miterlimit="10" stroke-dasharray=""/></g><g><g><path fill="none" stroke="none"/><text fill="#000000" stroke="none" font-family="Arial" font-size="13px" font-style="normal" font-weight="bold" text-decoration="undefined" x="962.503173828125" y="53.5" text-anchor="middle" dominant-baseline="central" transform="matrix(1 0 0 1 2 2)">CLI direct import</text></g></g><g><path fill="none" stroke="#000000" paint-order="fill stroke markers" d=" M 964.5 83 L 964.5 542" stroke-miterlimit="10" stroke-dasharray="3"/></g><g><path fill="none" stroke="#000000" paint-order="fill stroke markers" d=" M 153 152 L 403 152" stroke-miterlimit="10" stroke-dasharray=""/></g><g><path fill="#000000" stroke="none" paint-order="stroke fill markers" d=" M 392.83732514237585 156.209517756016 L 403 152 L 392.83732514237585 147.790482243984"/></g><g><path fill="none" stroke="#000000" paint-order="fill stroke markers" d=" M 392.83732514237585 156.209517756016 L 403 152 L 392.83732514237585 147.790482243984 L 392.83732514237585 156.209517756016" stroke-miterlimit="10" stroke-dasharray=""/></g><g><rect fill="#e9e9e9" stroke="none" x="169" y="134" width="215.2998046875" height="13" transform="matrix(1 0 0 1 2 2)"/></g><g><g><path fill="none" stroke="none"/><text fill="#000000" stroke="none" font-family="Arial" font-size="13px" font-style="normal" font-weight="normal" text-decoration="undefined" x="276.64990234375" y="140.5" text-anchor="middle" dominant-baseline="central" transform="matrix(1 0 0 1 2 2)">1 : tool_call(name, args) [stdio/HTTP]</text></g></g><g><rect fill="#e9e9e9" stroke="none" x="401" y="150" width="14" height="28" transform="matrix(1 0 0 1 2 2)"/></g><g><path fill="none" stroke="#000000" paint-order="fill stroke markers" d=" M 403 152 L 417 152 L 417 180 L 403 180 L 403 152 Z Z" stroke-miterlimit="10" stroke-dasharray=""/></g><g><path fill="none" stroke="#000000" paint-order="fill stroke markers" d=" M 411 212 L 688 212" stroke-miterlimit="10" stroke-dasharray=""/></g><g><path fill="#000000" stroke="none" paint-order="stroke fill markers" d=" M 677.8373251423759 216.209517756016 L 688 212 L 677.8373251423758 207.790482243984"/></g><g><path fill="none" stroke="#000000" paint-order="fill stroke markers" d=" M 677.8373251423759 216.209517756016 L 688 212 L 677.8373251423758 207.790482243984 L 677.8373251423759 216.209517756016" stroke-miterlimit="10" stroke-dasharray=""/></g><g><rect fill="#e9e9e9" stroke="none" x="335" y="194" width="424.861328125" height="13" transform="matrix(1 0 0 1 2 2)"/></g><g><g><path fill="none" stroke="none"/><text fill="#000000" stroke="none" font-family="Arial" font-size="13px" font-style="normal" font-weight="normal" text-decoration="undefined" x="547.4306640625" y="200.5" text-anchor="middle" dominant-baseline="central" transform="matrix(1 0 0 1 2 2)">2 : Path A: scraping_tools → get_converter(type, config).run() [in-process]</text></g></g><g><rect fill="#e9e9e9" stroke="none" x="686" y="210" width="14" height="28" transform="matrix(1 0 0 1 2 2)"/></g><g><path fill="none" stroke="#000000" paint-order="fill stroke markers" d=" M 688 212 L 702 212 L 702 240 L 688 240 L 688 212 Z Z" stroke-miterlimit="10" stroke-dasharray=""/></g><g><path fill="none" stroke="#000000" paint-order="fill stroke markers" d=" M 695 282 L 411 282" stroke-miterlimit="10" stroke-dasharray="3"/></g><g><path fill="none" stroke="#000000" paint-order="fill stroke markers" d=" M 421.16267485762415 277.790482243984 L 411 282 L 421.16267485762415 286.209517756016" stroke-miterlimit="10" stroke-dasharray=""/></g><g><rect fill="#e9e9e9" stroke="none" x="435" y="284" width="230.5087890625" height="13" transform="matrix(1 0 0 1 2 2)"/></g><g><g><path fill="none" stroke="none"/><text fill="#000000" stroke="none" font-family="Arial" font-size="13px" font-style="normal" font-weight="normal" text-decoration="undefined" x="550.25439453125" y="290.5" text-anchor="middle" dominant-baseline="central" transform="matrix(1 0 0 1 2 2)">3 : converter result {pages_dir, skill_md}</text></g></g><g><path fill="none" stroke="#000000" paint-order="fill stroke markers" d=" M 411 352 L 957 352" stroke-miterlimit="10" stroke-dasharray=""/></g><g><path fill="#000000" stroke="none" paint-order="stroke fill markers" d=" M 946.8373251423759 356.209517756016 L 957 352 L 946.8373251423758 347.790482243984"/></g><g><path fill="none" stroke="#000000" paint-order="fill stroke markers" d=" M 946.8373251423759 356.209517756016 L 957 352 L 946.8373251423758 347.790482243984 L 946.8373251423759 356.209517756016" stroke-miterlimit="10" stroke-dasharray=""/></g><g><rect fill="#e9e9e9" stroke="none" x="510" y="334" width="344.6904296875" height="13" transform="matrix(1 0 0 1 2 2)"/></g><g><g><path fill="none" stroke="none"/><text fill="#000000" stroke="none" font-family="Arial" font-size="13px" font-style="normal" font-weight="normal" text-decoration="undefined" x="682.34521484375" y="340.5" text-anchor="middle" dominant-baseline="central" transform="matrix(1 0 0 1 2 2)">4 : Path B: packaging_tools → get_adaptor() / sync_config()</text></g></g><g><rect fill="#e9e9e9" stroke="none" x="955" y="350" width="14" height="28" transform="matrix(1 0 0 1 2 2)"/></g><g><path fill="none" stroke="#000000" paint-order="fill stroke markers" d=" M 957 352 L 971 352 L 971 380 L 957 380 L 957 352 Z Z" stroke-miterlimit="10" stroke-dasharray=""/></g><g><path fill="none" stroke="#000000" paint-order="fill stroke markers" d=" M 964 422 L 411 422" stroke-miterlimit="10" stroke-dasharray="3"/></g><g><path fill="none" stroke="#000000" paint-order="fill stroke markers" d=" M 421.16267485762415 417.790482243984 L 411 422 L 421.16267485762415 426.209517756016" stroke-miterlimit="10" stroke-dasharray=""/></g><g><rect fill="#e9e9e9" stroke="none" x="640" y="424" width="88.15625" height="13" transform="matrix(1 0 0 1 2 2)"/></g><g><g><path fill="none" stroke="none"/><text fill="#000000" stroke="none" font-family="Arial" font-size="13px" font-style="normal" font-weight="normal" text-decoration="undefined" x="684.078125" y="430.5" text-anchor="middle" dominant-baseline="central" transform="matrix(1 0 0 1 2 2)">5 : result object</text></g></g><g><path fill="none" stroke="#000000" paint-order="fill stroke markers" d=" M 410 492 L 153 492" stroke-miterlimit="10" stroke-dasharray="3"/></g><g><path fill="none" stroke="#000000" paint-order="fill stroke markers" d=" M 163.16267485762415 487.790482243984 L 153 492 L 163.16267485762415 496.209517756016" stroke-miterlimit="10" stroke-dasharray=""/></g><g><rect fill="#e9e9e9" stroke="none" x="163" y="494" width="231.20068359375" height="13" transform="matrix(1 0 0 1 2 2)"/></g><g><g><path fill="none" stroke="none"/><text fill="#000000" stroke="none" font-family="Arial" font-size="13px" font-style="normal" font-weight="normal" text-decoration="undefined" x="278.600341796875" y="500.5" text-anchor="middle" dominant-baseline="central" transform="matrix(1 0 0 1 2 2)">6 : TextContent → JSON-RPC response</text></g></g></g></svg>