<svg version="1.1" xmlns="http://www.w3.org/2000/svg" xmlns:xlink="http://www.w3.org/1999/xlink" width="1693.01123046875" height="301"><defs/><g><g><rect fill="#C0C0C0" stroke="none" x="750.02783203125" y="27" width="136.4326171875" height="133" transform="matrix(1 0 0 1 -10 -10)" fill-opacity="0.2"/></g><g><rect fill="#e9e9e9" stroke="none" x="743.02783203125" y="20" width="136.4326171875" height="133" transform="matrix(1 0 0 1 -10 -10)"/></g><g><path fill="none" stroke="#000000" paint-order="fill stroke markers" d=" M 733.02783203125 10 L 869.46044921875 10 L 869.46044921875 143 L 733.02783203125 143 L 733.02783203125 10 Z Z" stroke-miterlimit="10" stroke-dasharray=""/></g><g><path fill="none" stroke="#000000" paint-order="fill stroke markers" d=" M 733.02783203125 35 L 869.46044921875 35" stroke-miterlimit="10" stroke-dasharray=""/></g><g><path fill="none" stroke="#000000" paint-order="fill stroke markers" d=" M 733.02783203125 45 L 869.46044921875 45" stroke-miterlimit="10" stroke-dasharray=""/></g><g><g><path fill="none" stroke="none"/><text fill="#000000" stroke="none" font-family="Arial" font-size="13px" font-style="italic" font-weight="bold" text-decoration="undefined" x="811.744140625" y="33.5" text-anchor="middle" dominant-baseline="central" transform="matrix(1 0 0 1 -10 -10)">SubcommandParser</text></g></g><g><g><path fill="none" stroke="none"/><text fill="#000000" stroke="none" font-family="Arial" font-size="13px" font-style="normal" font-weight="normal" text-decoration="undefined" x="748.02783203125" y="66.5" text-anchor="start" dominant-baseline="central" transform="matrix(1 0 0 1 -10 -10)">+register()</text></g></g><g><g><path fill="none" stroke="none"/><text fill="#000000" stroke="none" font-family="Arial" font-size="13px" font-style="normal" font-weight="normal" text-decoration="undefined" x="748.02783203125" y="81.5" text-anchor="start" dominant-baseline="central" transform="matrix(1 0 0 1 -10 -10)">+name()</text></g></g><g><g><path fill="none" stroke="none"/><text fill="#000000" stroke="none" font-family="Arial" font-size="13px" font-style="normal" font-weight="normal" text-decoration="undefined" x="748.02783203125" y="96.5" text-anchor="start" dominant-baseline="central" transform="matrix(1 0 0 1 -10 -10)">+help()</text></g></g><g><g><path fill="none" stroke="none"/><text fill="#000000" stroke="none" font-family="Arial" font-size="13px" font-style="normal" font-weight="normal" text-decoration="undefined" x="748.02783203125" y="111.5" text-anchor="start" dominant-baseline="central" transform="matrix(1 0 0 1 -10 -10)">+description()</text></g></g><g><g><path fill="none" stroke="none"/><text fill="#000000" stroke="none" font-family="Arial" font-size="13px" font-style="normal" font-weight="normal" text-decoration="undefined" x="748.02783203125" y="126.5" text-anchor="start" dominant-baseline="central" transform="matrix(1 0 0 1 -10 -10)">+add_arguments()</text></g></g><g><g><path fill="none" stroke="none"/><text fill="#000000" stroke="none" font-family="Arial" font-size="13px" font-style="normal" font-weight="normal" text-decoration="undefined" x="748.02783203125" y="141.5" text-anchor="start" dominant-baseline="central" transform="matrix(1 0 0 1 -10 -10)">+create_parser()</text></g></g><g><rect fill="#C0C0C0" stroke="none" x="27" y="190" width="116.58984375" height="118" transform="matrix(1 0 0 1 -10 -10)" fill-opacity="0.2"/></g><g><rect fill="#e9e9e9" stroke="none" x="20" y="183" width="116.58984375" height="118" transform="matrix(1 0 0 1 -10 -10)"/></g><g><path fill="none" stroke="#000000" paint-order="fill stroke markers" d=" M 10 173 L 126.58984375 173 L 126.58984375 291 L 10 291 L 10 173 Z Z" stroke-miterlimit="10" stroke-dasharray=""/></g><g><path fill="none" stroke="#000000" paint-order="fill stroke markers" d=" M 10 198 L 126.58984375 198" stroke-miterlimit="10" stroke-dasharray=""/></g><g><path fill="none" stroke="#000000" paint-order="fill stroke markers" d=" M 10 208 L 126.58984375 208" stroke-miterlimit="10" stroke-dasharray=""/></g><g><g><path fill="none" stroke="none"/><text fill="#000000" stroke="none" font-family="Arial" font-size="13px" font-style="normal" font-weight="bold" text-decoration="undefined" x="78.794921875" y="196.5" text-anchor="middle" dominant-baseline="central" transform="matrix(1 0 0 1 -10 -10)">CreateParser</text></g></g><g><g><path fill="none" stroke="none"/><text fill="#000000" stroke="none" font-family="Arial" font-size="13px" font-style="normal" font-weight="normal" text-decoration="undefined" x="25" y="229.5" text-anchor="start" dominant-baseline="central" transform="matrix(1 0 0 1 -10 -10)">+name()</text></g></g><g><g><path fill="none" stroke="none"/><text fill="#000000" stroke="none" font-family="Arial" font-size="13px" font-style="normal" font-weight="normal" text-decoration="undefined" x="25" y="244.5" text-anchor="start" dominant-baseline="central" transform="matrix(1 0 0 1 -10 -10)">+help()</text></g></g><g><g><path fill="none" stroke="none"/><text fill="#000000" stroke="none" font-family="Arial" font-size="13px" font-style="normal" font-weight="normal" text-decoration="undefined" x="25" y="259.5" text-anchor="start" dominant-baseline="central" transform="matrix(1 0 0 1 -10 -10)">+description()</text></g></g><g><g><path fill="none" stroke="none"/><text fill="#000000" stroke="none" font-family="Arial" font-size="13px" font-style="normal" font-weight="normal" text-decoration="undefined" x="25" y="274.5" text-anchor="start" dominant-baseline="central" transform="matrix(1 0 0 1 -10 -10)">+add_arguments()</text></g></g><g><g><path fill="none" stroke="none"/><text fill="#000000" stroke="none" font-family="Arial" font-size="13px" font-style="normal" font-weight="normal" text-decoration="undefined" x="25" y="289.5" text-anchor="start" dominant-baseline="central" transform="matrix(1 0 0 1 -10 -10)">+register()</text></g></g><g><rect fill="#C0C0C0" stroke="none" x="173.58984375" y="197.5" width="116.58984375" height="103" transform="matrix(1 0 0 1 -10 -10)" fill-opacity="0.2"/></g><g><rect fill="#e9e9e9" stroke="none" x="166.58984375" y="190.5" width="116.58984375" height="103" transform="matrix(1 0 0 1 -10 -10)"/></g><g><path fill="none" stroke="#000000" paint-order="fill stroke markers" d=" M 156.58984375 180.5 L 273.1796875 180.5 L 273.1796875 283.5 L 156.58984375 283.5 L 156.58984375 180.5 Z Z" stroke-miterlimit="10" stroke-dasharray=""/></g><g><path fill="none" stroke="#000000" paint-order="fill stroke markers" d=" M 156.58984375 205.5 L 273.1796875 205.5" stroke-miterlimit="10" stroke-dasharray=""/></g><g><path fill="none" stroke="#000000" paint-order="fill stroke markers" d=" M 156.58984375 215.5 L 273.1796875 215.5" stroke-miterlimit="10" stroke-dasharray=""/></g><g><g><path fill="none" stroke="none"/><text fill="#000000" stroke="none" font-family="Arial" font-size="13px" font-style="normal" font-weight="bold" text-decoration="undefined" x="225.384765625" y="204" text-anchor="middle" dominant-baseline="central" transform="matrix(1 0 0 1 -10 -10)">EnhanceParser</text></g></g><g><g><path fill="none" stroke="none"/><text fill="#000000" stroke="none" font-family="Arial" font-size="13px" font-style="normal" font-weight="normal" text-decoration="undefined" x="171.58984375" y="237" text-anchor="start" dominant-baseline="central" transform="matrix(1 0 0 1 -10 -10)">+name()</text></g></g><g><g><path fill="none" stroke="none"/><text fill="#000000" stroke="none" font-family="Arial" font-size="13px" font-style="normal" font-weight="normal" text-decoration="undefined" x="171.58984375" y="252" text-anchor="start" dominant-baseline="central" transform="matrix(1 0 0 1 -10 -10)">+help()</text></g></g><g><g><path fill="none" stroke="none"/><text fill="#000000" stroke="none" font-family="Arial" font-size="13px" font-style="normal" font-weight="normal" text-decoration="undefined" x="171.58984375" y="267" text-anchor="start" dominant-baseline="central" transform="matrix(1 0 0 1 -10 -10)">+description()</text></g></g><g><g><path fill="none" stroke="none"/><text fill="#000000" stroke="none" font-family="Arial" font-size="13px" font-style="normal" font-weight="normal" text-decoration="undefined" x="171.58984375" y="282" text-anchor="start" dominant-baseline="central" transform="matrix(1 0 0 1 -10 -10)">+add_arguments()</text></g></g><g><rect fill="#C0C0C0" stroke="none" x="320.1796875" y="197.5" width="116.58984375" height="103" transform="matrix(1 0 0 1 -10 -10)" fill-opacity="0.2"/></g><g><rect fill="#e9e9e9" stroke="none" x="313.1796875" y="190.5" width="116.58984375" height="103" transform="matrix(1 0 0 1 -10 -10)"/></g><g><path fill="none" stroke="#000000" paint-order="fill stroke markers" d=" M 303.1796875 180.5 L 419.76953125 180.5 L 419.76953125 283.5 L 303.1796875 283.5 L 303.1796875 180.5 Z Z" stroke-miterlimit="10" stroke-dasharray=""/></g><g><path fill="none" stroke="#000000" paint-order="fill stroke markers" d=" M 303.1796875 205.5 L 419.76953125 205.5" stroke-miterlimit="10" stroke-dasharray=""/></g><g><path fill="none" stroke="#000000" paint-order="fill stroke markers" d=" M 303.1796875 215.5 L 419.76953125 215.5" stroke-miterlimit="10" stroke-dasharray=""/></g><g><g><path fill="none" stroke="none"/><text fill="#000000" stroke="none" font-family="Arial" font-size="13px" font-style="normal" font-weight="bold" text-decoration="undefined" x="371.974609375" y="204" text-anchor="middle" dominant-baseline="central" transform="matrix(1 0 0 1 -10 -10)">PackageParser</text></g></g><g><g><path fill="none" stroke="none"/><text fill="#000000" stroke="none" font-family="Arial" font-size="13px" font-style="normal" font-weight="normal" text-decoration="undefined" x="318.1796875" y="237" text-anchor="start" dominant-baseline="central" transform="matrix(1 0 0 1 -10 -10)">+name()</text></g></g><g><g><path fill="none" stroke="none"/><text fill="#000000" stroke="none" font-family="Arial" font-size="13px" font-style="normal" font-weight="normal" text-decoration="undefined" x="318.1796875" y="252" text-anchor="start" dominant-baseline="central" transform="matrix(1 0 0 1 -10 -10)">+help()</text></g></g><g><g><path fill="none" stroke="none"/><text fill="#000000" stroke="none" font-family="Arial" font-size="13px" font-style="normal" font-weight="normal" text-decoration="undefined" x="318.1796875" y="267" text-anchor="start" dominant-baseline="central" transform="matrix(1 0 0 1 -10 -10)">+description()</text></g></g><g><g><path fill="none" stroke="none"/><text fill="#000000" stroke="none" font-family="Arial" font-size="13px" font-style="normal" font-weight="normal" text-decoration="undefined" x="318.1796875" y="282" text-anchor="start" dominant-baseline="central" transform="matrix(1 0 0 1 -10 -10)">+add_arguments()</text></g></g><g><rect fill="#C0C0C0" stroke="none" x="466.76953125" y="197.5" width="116.58984375" height="103" transform="matrix(1 0 0 1 -10 -10)" fill-opacity="0.2"/></g><g><rect fill="#e9e9e9" stroke="none" x="459.76953125" y="190.5" width="116.58984375" height="103" transform="matrix(1 0 0 1 -10 -10)"/></g><g><path fill="none" stroke="#000000" paint-order="fill stroke markers" d=" M 449.76953125 180.5 L 566.359375 180.5 L 566.359375 283.5 L 449.76953125 283.5 L 449.76953125 180.5 Z Z" stroke-miterlimit="10" stroke-dasharray=""/></g><g><path fill="none" stroke="#000000" paint-order="fill stroke markers" d=" M 449.76953125 205.5 L 566.359375 205.5" stroke-miterlimit="10" stroke-dasharray=""/></g><g><path fill="none" stroke="#000000" paint-order="fill stroke markers" d=" M 449.76953125 215.5 L 566.359375 215.5" stroke-miterlimit="10" stroke-dasharray=""/></g><g><g><path fill="none" stroke="none"/><text fill="#000000" stroke="none" font-family="Arial" font-size="13px" font-style="normal" font-weight="bold" text-decoration="undefined" x="518.564453125" y="204" text-anchor="middle" dominant-baseline="central" transform="matrix(1 0 0 1 -10 -10)">UploadParser</text></g></g><g><g><path fill="none" stroke="none"/><text fill="#000000" stroke="none" font-family="Arial" font-size="13px" font-style="normal" font-weight="normal" text-decoration="undefined" x="464.76953125" y="237" text-anchor="start" dominant-baseline="central" transform="matrix(1 0 0 1 -10 -10)">+name()</text></g></g><g><g><path fill="none" stroke="none"/><text fill="#000000" stroke="none" font-family="Arial" font-size="13px" font-style="normal" font-weight="normal" text-decoration="undefined" x="464.76953125" y="252" text-anchor="start" dominant-baseline="central" transform="matrix(1 0 0 1 -10 -10)">+help()</text></g></g><g><g><path fill="none" stroke="none"/><text fill="#000000" stroke="none" font-family="Arial" font-size="13px" font-style="normal" font-weight="normal" text-decoration="undefined" x="464.76953125" y="267" text-anchor="start" dominant-baseline="central" transform="matrix(1 0 0 1 -10 -10)">+description()</text></g></g><g><g><path fill="none" stroke="none"/><text fill="#000000" stroke="none" font-family="Arial" font-size="13px" font-style="normal" font-weight="normal" text-decoration="undefined" x="464.76953125" y="282" text-anchor="start" dominant-baseline="central" transform="matrix(1 0 0 1 -10 -10)">+add_arguments()</text></g></g><g><rect fill="#C0C0C0" stroke="none" x="613.359375" y="197.5" width="116.58984375" height="103" transform="matrix(1 0 0 1 -10 -10)" fill-opacity="0.2"/></g><g><rect fill="#e9e9e9" stroke="none" x="606.359375" y="190.5" width="116.58984375" height="103" transform="matrix(1 0 0 1 -10 -10)"/></g><g><path fill="none" stroke="#000000" paint-order="fill stroke markers" d=" M 596.359375 180.5 L 712.94921875 180.5 L 712.94921875 283.5 L 596.359375 283.5 L 596.359375 180.5 Z Z" stroke-miterlimit="10" stroke-dasharray=""/></g><g><path fill="none" stroke="#000000" paint-order="fill stroke markers" d=" M 596.359375 205.5 L 712.94921875 205.5" stroke-miterlimit="10" stroke-dasharray=""/></g><g><path fill="none" stroke="#000000" paint-order="fill stroke markers" d=" M 596.359375 215.5 L 712.94921875 215.5" stroke-miterlimit="10" stroke-dasharray=""/></g><g><g><path fill="none" stroke="none"/><text fill="#000000" stroke="none" font-family="Arial" font-size="13px" font-style="normal" font-weight="bold" text-decoration="undefined" x="665.154296875" y="204" text-anchor="middle" dominant-baseline="central" transform="matrix(1 0 0 1 -10 -10)">ConfigParser</text></g></g><g><g><path fill="none" stroke="none"/><text fill="#000000" stroke="none" font-family="Arial" font-size="13px" font-style="normal" font-weight="normal" text-decoration="undefined" x="611.359375" y="237" text-anchor="start" dominant-baseline="central" transform="matrix(1 0 0 1 -10 -10)">+name()</text></g></g><g><g><path fill="none" stroke="none"/><text fill="#000000" stroke="none" font-family="Arial" font-size="13px" font-style="normal" font-weight="normal" text-decoration="undefined" x="611.359375" y="252" text-anchor="start" dominant-baseline="central" transform="matrix(1 0 0 1 -10 -10)">+help()</text></g></g><g><g><path fill="none" stroke="none"/><text fill="#000000" stroke="none" font-family="Arial" font-size="13px" font-style="normal" font-weight="normal" text-decoration="undefined" x="611.359375" y="267" text-anchor="start" dominant-baseline="central" transform="matrix(1 0 0 1 -10 -10)">+description()</text></g></g><g><g><path fill="none" stroke="none"/><text fill="#000000" stroke="none" font-family="Arial" font-size="13px" font-style="normal" font-weight="normal" text-decoration="undefined" x="611.359375" y="282" text-anchor="start" dominant-baseline="central" transform="matrix(1 0 0 1 -10 -10)">+add_arguments()</text></g></g><g><rect fill="#C0C0C0" stroke="none" x="759.94921875" y="197.5" width="116.58984375" height="103" transform="matrix(1 0 0 1 -10 -10)" fill-opacity="0.2"/></g><g><rect fill="#e9e9e9" stroke="none" x="752.94921875" y="190.5" width="116.58984375" height="103" transform="matrix(1 0 0 1 -10 -10)"/></g><g><path fill="none" stroke="#000000" paint-order="fill stroke markers" d=" M 742.94921875 180.5 L 859.5390625 180.5 L 859.5390625 283.5 L 742.94921875 283.5 L 742.94921875 180.5 Z Z" stroke-miterlimit="10" stroke-dasharray=""/></g><g><path fill="none" stroke="#000000" paint-order="fill stroke markers" d=" M 742.94921875 205.5 L 859.5390625 205.5" stroke-miterlimit="10" stroke-dasharray=""/></g><g><path fill="none" stroke="#000000" paint-order="fill stroke markers" d=" M 742.94921875 215.5 L 859.5390625 215.5" stroke-miterlimit="10" stroke-dasharray=""/></g><g><g><path fill="none" stroke="none"/><text fill="#000000" stroke="none" font-family="Arial" font-size="13px" font-style="normal" font-weight="bold" text-decoration="undefined" x="811.744140625" y="204" text-anchor="middle" dominant-baseline="central" transform="matrix(1 0 0 1 -10 -10)">EstimateParser</text></g></g><g><g><path fill="none" stroke="none"/><text fill="#000000" stroke="none" font-family="Arial" font-size="13px" font-style="normal" font-weight="normal" text-decoration="undefined" x="757.94921875" y="237" text-anchor="start" dominant-baseline="central" transform="matrix(1 0 0 1 -10 -10)">+name()</text></g></g><g><g><path fill="none" stroke="none"/><text fill="#000000" stroke="none" font-family="Arial" font-size="13px" font-style="normal" font-weight="normal" text-decoration="undefined" x="757.94921875" y="252" text-anchor="start" dominant-baseline="central" transform="matrix(1 0 0 1 -10 -10)">+help()</text></g></g><g><g><path fill="none" stroke="none"/><text fill="#000000" stroke="none" font-family="Arial" font-size="13px" font-style="normal" font-weight="normal" text-decoration="undefined" x="757.94921875" y="267" text-anchor="start" dominant-baseline="central" transform="matrix(1 0 0 1 -10 -10)">+description()</text></g></g><g><g><path fill="none" stroke="none"/><text fill="#000000" stroke="none" font-family="Arial" font-size="13px" font-style="normal" font-weight="normal" text-decoration="undefined" x="757.94921875" y="282" text-anchor="start" dominant-baseline="central" transform="matrix(1 0 0 1 -10 -10)">+add_arguments()</text></g></g><g><rect fill="#C0C0C0" stroke="none" x="906.5390625" y="197.5" width="116.58984375" height="103" transform="matrix(1 0 0 1 -10 -10)" fill-opacity="0.2"/></g><g><rect fill="#e9e9e9" stroke="none" x="899.5390625" y="190.5" width="116.58984375" height="103" transform="matrix(1 0 0 1 -10 -10)"/></g><g><path fill="none" stroke="#000000" paint-order="fill stroke markers" d=" M 889.5390625 180.5 L 1006.12890625 180.5 L 1006.12890625 283.5 L 889.5390625 283.5 L 889.5390625 180.5 Z Z" stroke-miterlimit="10" stroke-dasharray=""/></g><g><path fill="none" stroke="#000000" paint-order="fill stroke markers" d=" M 889.5390625 205.5 L 1006.12890625 205.5" stroke-miterlimit="10" stroke-dasharray=""/></g><g><path fill="none" stroke="#000000" paint-order="fill stroke markers" d=" M 889.5390625 215.5 L 1006.12890625 215.5" stroke-miterlimit="10" stroke-dasharray=""/></g><g><g><path fill="none" stroke="none"/><text fill="#000000" stroke="none" font-family="Arial" font-size="13px" font-style="normal" font-weight="bold" text-decoration="undefined" x="958.333984375" y="204" text-anchor="middle" dominant-baseline="central" transform="matrix(1 0 0 1 -10 -10)">InstallParser</text></g></g><g><g><path fill="none" stroke="none"/><text fill="#000000" stroke="none" font-family="Arial" font-size="13px" font-style="normal" font-weight="normal" text-decoration="undefined" x="904.5390625" y="237" text-anchor="start" dominant-baseline="central" transform="matrix(1 0 0 1 -10 -10)">+name()</text></g></g><g><g><path fill="none" stroke="none"/><text fill="#000000" stroke="none" font-family="Arial" font-size="13px" font-style="normal" font-weight="normal" text-decoration="undefined" x="904.5390625" y="252" text-anchor="start" dominant-baseline="central" transform="matrix(1 0 0 1 -10 -10)">+help()</text></g></g><g><g><path fill="none" stroke="none"/><text fill="#000000" stroke="none" font-family="Arial" font-size="13px" font-style="normal" font-weight="normal" text-decoration="undefined" x="904.5390625" y="267" text-anchor="start" dominant-baseline="central" transform="matrix(1 0 0 1 -10 -10)">+description()</text></g></g><g><g><path fill="none" stroke="none"/><text fill="#000000" stroke="none" font-family="Arial" font-size="13px" font-style="normal" font-weight="normal" text-decoration="undefined" x="904.5390625" y="282" text-anchor="start" dominant-baseline="central" transform="matrix(1 0 0 1 -10 -10)">+add_arguments()</text></g></g><g><rect fill="#C0C0C0" stroke="none" x="1053.12890625" y="197.5" width="116.58984375" height="103" transform="matrix(1 0 0 1 -10 -10)" fill-opacity="0.2"/></g><g><rect fill="#e9e9e9" stroke="none" x="1046.12890625" y="190.5" width="116.58984375" height="103" transform="matrix(1 0 0 1 -10 -10)"/></g><g><path fill="none" stroke="#000000" paint-order="fill stroke markers" d=" M 1036.12890625 180.5 L 1152.71875 180.5 L 1152.71875 283.5 L 1036.12890625 283.5 L 1036.12890625 180.5 Z Z" stroke-miterlimit="10" stroke-dasharray=""/></g><g><path fill="none" stroke="#000000" paint-order="fill stroke markers" d=" M 1036.12890625 205.5 L 1152.71875 205.5" stroke-miterlimit="10" stroke-dasharray=""/></g><g><path fill="none" stroke="#000000" paint-order="fill stroke markers" d=" M 1036.12890625 215.5 L 1152.71875 215.5" stroke-miterlimit="10" stroke-dasharray=""/></g><g><g><path fill="none" stroke="none"/><text fill="#000000" stroke="none" font-family="Arial" font-size="13px" font-style="normal" font-weight="bold" text-decoration="undefined" x="1104.923828125" y="204" text-anchor="middle" dominant-baseline="central" transform="matrix(1 0 0 1 -10 -10)">StreamParser</text></g></g><g><g><path fill="none" stroke="none"/><text fill="#000000" stroke="none" font-family="Arial" font-size="13px" font-style="normal" font-weight="normal" text-decoration="undefined" x="1051.12890625" y="237" text-anchor="start" dominant-baseline="central" transform="matrix(1 0 0 1 -10 -10)">+name()</text></g></g><g><g><path fill="none" stroke="none"/><text fill="#000000" stroke="none" font-family="Arial" font-size="13px" font-style="normal" font-weight="normal" text-decoration="undefined" x="1051.12890625" y="252" text-anchor="start" dominant-baseline="central" transform="matrix(1 0 0 1 -10 -10)">+help()</text></g></g><g><g><path fill="none" stroke="none"/><text fill="#000000" stroke="none" font-family="Arial" font-size="13px" font-style="normal" font-weight="normal" text-decoration="undefined" x="1051.12890625" y="267" text-anchor="start" dominant-baseline="central" transform="matrix(1 0 0 1 -10 -10)">+description()</text></g></g><g><g><path fill="none" stroke="none"/><text fill="#000000" stroke="none" font-family="Arial" font-size="13px" font-style="normal" font-weight="normal" text-decoration="undefined" x="1051.12890625" y="282" text-anchor="start" dominant-baseline="central" transform="matrix(1 0 0 1 -10 -10)">+add_arguments()</text></g></g><g><rect fill="#C0C0C0" stroke="none" x="1199.71875" y="197.5" width="116.58984375" height="103" transform="matrix(1 0 0 1 -10 -10)" fill-opacity="0.2"/></g><g><rect fill="#e9e9e9" stroke="none" x="1192.71875" y="190.5" width="116.58984375" height="103" transform="matrix(1 0 0 1 -10 -10)"/></g><g><path fill="none" stroke="#000000" paint-order="fill stroke markers" d=" M 1182.71875 180.5 L 1299.30859375 180.5 L 1299.30859375 283.5 L 1182.71875 283.5 L 1182.71875 180.5 Z Z" stroke-miterlimit="10" stroke-dasharray=""/></g><g><path fill="none" stroke="#000000" paint-order="fill stroke markers" d=" M 1182.71875 205.5 L 1299.30859375 205.5" stroke-miterlimit="10" stroke-dasharray=""/></g><g><path fill="none" stroke="#000000" paint-order="fill stroke markers" d=" M 1182.71875 215.5 L 1299.30859375 215.5" stroke-miterlimit="10" stroke-dasharray=""/></g><g><g><path fill="none" stroke="none"/><text fill="#000000" stroke="none" font-family="Arial" font-size="13px" font-style="normal" font-weight="bold" text-decoration="undefined" x="1251.513671875" y="204" text-anchor="middle" dominant-baseline="central" transform="matrix(1 0 0 1 -10 -10)">QualityParser</text></g></g><g><g><path fill="none" stroke="none"/><text fill="#000000" stroke="none" font-family="Arial" font-size="13px" font-style="normal" font-weight="normal" text-decoration="undefined" x="1197.71875" y="237" text-anchor="start" dominant-baseline="central" transform="matrix(1 0 0 1 -10 -10)">+name()</text></g></g><g><g><path fill="none" stroke="none"/><text fill="#000000" stroke="none" font-family="Arial" font-size="13px" font-style="normal" font-weight="normal" text-decoration="undefined" x="1197.71875" y="252" text-anchor="start" dominant-baseline="central" transform="matrix(1 0 0 1 -10 -10)">+help()</text></g></g><g><g><path fill="none" stroke="none"/><text fill="#000000" stroke="none" font-family="Arial" font-size="13px" font-style="normal" font-weight="normal" text-decoration="undefined" x="1197.71875" y="267" text-anchor="start" dominant-baseline="central" transform="matrix(1 0 0 1 -10 -10)">+description()</text></g></g><g><g><path fill="none" stroke="none"/><text fill="#000000" stroke="none" font-family="Arial" font-size="13px" font-style="normal" font-weight="normal" text-decoration="undefined" x="1197.71875" y="282" text-anchor="start" dominant-baseline="central" transform="matrix(1 0 0 1 -10 -10)">+add_arguments()</text></g></g><g><rect fill="#C0C0C0" stroke="none" x="1346.30859375" y="197.5" width="122.70263671875" height="103" transform="matrix(1 0 0 1 -10 -10)" fill-opacity="0.2"/></g><g><rect fill="#e9e9e9" stroke="none" x="1339.30859375" y="190.5" width="122.70263671875" height="103" transform="matrix(1 0 0 1 -10 -10)"/></g><g><path fill="none" stroke="#000000" paint-order="fill stroke markers" d=" M 1329.30859375 180.5 L 1452.01123046875 180.5 L 1452.01123046875 283.5 L 1329.30859375 283.5 L 1329.30859375 180.5 Z Z" stroke-miterlimit="10" stroke-dasharray=""/></g><g><path fill="none" stroke="#000000" paint-order="fill stroke markers" d=" M 1329.30859375 205.5 L 1452.01123046875 205.5" stroke-miterlimit="10" stroke-dasharray=""/></g><g><path fill="none" stroke="#000000" paint-order="fill stroke markers" d=" M 1329.30859375 215.5 L 1452.01123046875 215.5" stroke-miterlimit="10" stroke-dasharray=""/></g><g><g><path fill="none" stroke="none"/><text fill="#000000" stroke="none" font-family="Arial" font-size="13px" font-style="normal" font-weight="bold" text-decoration="undefined" x="1401.159912109375" y="204" text-anchor="middle" dominant-baseline="central" transform="matrix(1 0 0 1 -10 -10)">SyncConfigParser</text></g></g><g><g><path fill="none" stroke="none"/><text fill="#000000" stroke="none" font-family="Arial" font-size="13px" font-style="normal" font-weight="normal" text-decoration="undefined" x="1344.30859375" y="237" text-anchor="start" dominant-baseline="central" transform="matrix(1 0 0 1 -10 -10)">+name()</text></g></g><g><g><path fill="none" stroke="none"/><text fill="#000000" stroke="none" font-family="Arial" font-size="13px" font-style="normal" font-weight="normal" text-decoration="undefined" x="1344.30859375" y="252" text-anchor="start" dominant-baseline="central" transform="matrix(1 0 0 1 -10 -10)">+help()</text></g></g><g><g><path fill="none" stroke="none"/><text fill="#000000" stroke="none" font-family="Arial" font-size="13px" font-style="normal" font-weight="normal" text-decoration="undefined" x="1344.30859375" y="267" text-anchor="start" dominant-baseline="central" transform="matrix(1 0 0 1 -10 -10)">+description()</text></g></g><g><g><path fill="none" stroke="none"/><text fill="#000000" stroke="none" font-family="Arial" font-size="13px" font-style="normal" font-weight="normal" text-decoration="undefined" x="1344.30859375" y="282" text-anchor="start" dominant-baseline="central" transform="matrix(1 0 0 1 -10 -10)">+add_arguments()</text></g></g><g><path fill="none" stroke="#000000" paint-order="fill stroke markers" d=" M 68 172 Q 68 158 732 84" stroke-miterlimit="10" stroke-dasharray=""/></g><g><path fill="#FFFFFF" stroke="none" paint-order="stroke fill markers" d=" M 712.7322016417879 94.61847194408305 L 732 84 L 710.867215604873 77.88400263987342"/></g><g><path fill="none" stroke="#000000" paint-order="fill stroke markers" d=" M 712.7322016417879 94.61847194408305 L 732 84 L 710.867215604873 77.88400263987342 L 712.7322016417879 94.61847194408305" stroke-miterlimit="10" stroke-dasharray=""/></g><g><path fill="none" stroke="#000000" paint-order="fill stroke markers" d=" M 215 180 Q 215 158 732 86" stroke-miterlimit="10" stroke-dasharray=""/></g><g><path fill="#FFFFFF" stroke="none" paint-order="stroke fill markers" d=" M 713.030200917057 97.14211482407052 L 732 86 L 710.7076614818452 80.46499137956401"/></g><g><path fill="none" stroke="#000000" paint-order="fill stroke markers" d=" M 713.030200917057 97.14211482407052 L 732 86 L 710.7076614818452 80.46499137956401 L 713.030200917057 97.14211482407052" stroke-miterlimit="10" stroke-dasharray=""/></g><g><path fill="none" stroke="#000000" paint-order="fill stroke markers" d=" M 361 180 Q 361 158 732 89" stroke-miterlimit="10" stroke-dasharray=""/></g><g><path fill="#FFFFFF" stroke="none" paint-order="stroke fill markers" d=" M 713.5567194745765 100.9935567477098 L 732 89 L 710.477905966296 84.43935657999855"/></g><g><path fill="none" stroke="#000000" paint-order="fill stroke markers" d=" M 713.5567194745765 100.9935567477098 L 732 89 L 710.477905966296 84.43935657999855 L 713.5567194745765 100.9935567477098" stroke-miterlimit="10" stroke-dasharray=""/></g><g><path fill="none" stroke="#000000" paint-order="fill stroke markers" d=" M 508 180 Q 508 158 732 95" stroke-miterlimit="10" stroke-dasharray=""/></g><g><path fill="#FFFFFF" stroke="none" paint-order="stroke fill markers" d=" M 714.7131996144601 108.60759098556743 L 732 95 L 710.1543663608588 92.39840608387415"/></g><g><path fill="none" stroke="#000000" paint-order="fill stroke markers" d=" M 714.7131996144601 108.60759098556743 L 732 95 L 710.1543663608588 92.39840608387415 L 714.7131996144601 108.60759098556743" stroke-miterlimit="10" stroke-dasharray=""/></g><g><path fill="none" stroke="#000000" paint-order="fill stroke markers" d=" M 655 180 Q 655 158 732 115" stroke-miterlimit="10" stroke-dasharray=""/></g><g><path fill="#FFFFFF" stroke="none" paint-order="stroke fill markers" d=" M 718.3590783056306 132.26051144456864 L 732 115 L 710.1493870790742 117.55943645747925"/></g><g><path fill="none" stroke="#000000" paint-order="fill stroke markers" d=" M 718.3590783056306 132.26051144456864 L 732 115 L 710.1493870790742 117.55943645747925 L 718.3590783056306 132.26051144456864" stroke-miterlimit="10" stroke-dasharray=""/></g><g><path fill="none" stroke="#000000" paint-order="fill stroke markers" d=" M 801 180 Q 801 158 801 144" stroke-miterlimit="10" stroke-dasharray=""/></g><g><path fill="#FFFFFF" stroke="none" paint-order="stroke fill markers" d=" M 809.419035512032 164.3253497152483 L 801 144 L 792.580964487968 164.3253497152483"/></g><g><path fill="none" stroke="#000000" paint-order="fill stroke markers" d=" M 809.419035512032 164.3253497152483 L 801 144 L 792.580964487968 164.3253497152483 L 809.419035512032 164.3253497152483" stroke-miterlimit="10" stroke-dasharray=""/></g><g><path fill="none" stroke="#000000" paint-order="fill stroke markers" d=" M 948 180 Q 948 158 870 115" stroke-miterlimit="10" stroke-dasharray=""/></g><g><path fill="#FFFFFF" stroke="none" paint-order="stroke fill markers" d=" M 891.8642962376068 117.43978483358131 L 870 115 L 883.7352037350219 132.18558053594472"/></g><g><path fill="none" stroke="#000000" paint-order="fill stroke markers" d=" M 891.8642962376068 117.43978483358131 L 870 115 L 883.7352037350219 132.18558053594472 L 891.8642962376068 117.43978483358131" stroke-miterlimit="10" stroke-dasharray=""/></g><g><path fill="none" stroke="#000000" paint-order="fill stroke markers" d=" M 1094 180 Q 1094 158 870 95" stroke-miterlimit="10" stroke-dasharray=""/></g><g><path fill="#FFFFFF" stroke="none" paint-order="stroke fill markers" d=" M 891.8456336391412 92.39840608387414 L 870 95 L 887.2868003855399 108.60759098556743"/></g><g><path fill="none" stroke="#000000" paint-order="fill stroke markers" d=" M 891.8456336391412 92.39840608387414 L 870 95 L 887.2868003855399 108.60759098556743 L 891.8456336391412 92.39840608387414" stroke-miterlimit="10" stroke-dasharray=""/></g><g><path fill="none" stroke="#000000" paint-order="fill stroke markers" d=" M 1241 180 Q 1241 158 870 89" stroke-miterlimit="10" stroke-dasharray=""/></g><g><path fill="#FFFFFF" stroke="none" paint-order="stroke fill markers" d=" M 891.522094033704 84.43935657999855 L 870 89 L 888.4432805254235 100.9935567477098"/></g><g><path fill="none" stroke="#000000" paint-order="fill stroke markers" d=" M 891.522094033704 84.43935657999855 L 870 89 L 888.4432805254235 100.9935567477098 L 891.522094033704 84.43935657999855" stroke-miterlimit="10" stroke-dasharray=""/></g><g><path fill="none" stroke="#000000" paint-order="fill stroke markers" d=" M 1391 180 Q 1391 158 870 86" stroke-miterlimit="10" stroke-dasharray=""/></g><g><path fill="#FFFFFF" stroke="none" paint-order="stroke fill markers" d=" M 891.2865204508684 80.44265827083079 L 870 86 L 888.9814769807416 97.12220893660859"/></g><g><path fill="none" stroke="#000000" paint-order="fill stroke markers" d=" M 891.2865204508684 80.44265827083079 L 870 86 L 888.9814769807416 97.12220893660859 L 891.2865204508684 80.44265827083079" stroke-miterlimit="10" stroke-dasharray=""/></g><g><rect fill="#C0C0C0" stroke="none" x="1499.01123046875" y="209" width="200" height="80" transform="matrix(1 0 0 1 -10 -10)" fill-opacity="0.2"/></g><g><rect fill="#C8E6C9" stroke="none" x="1492.01123046875" y="202" width="200" height="80" transform="matrix(1 0 0 1 -10 -10)"/></g><g><path fill="none" stroke="#000000" paint-order="fill stroke markers" d=" M 1482.01123046875 192 L 1682.01123046875 192 L 1682.01123046875 272 L 1482.01123046875 272 L 1482.01123046875 192 Z Z" stroke-miterlimit="10" stroke-dasharray=""/></g><g><path fill="none" stroke="#000000" paint-order="fill stroke markers" d=" M 1482.01123046875 217 L 1682.01123046875 217" stroke-miterlimit="10" stroke-dasharray=""/></g><g><path fill="none" stroke="#000000" paint-order="fill stroke markers" d=" M 1482.01123046875 227 L 1682.01123046875 227" stroke-miterlimit="10" stroke-dasharray=""/></g><g><g><path fill="none" stroke="none"/><text fill="#000000" stroke="none" font-family="Arial" font-size="13px" font-style="normal" font-weight="bold" text-decoration="undefined" x="1592.51123046875" y="215.5" text-anchor="middle" dominant-baseline="central" transform="matrix(1 0 0 1 -10 -10)">DoctorParser</text></g></g><g><path fill="none" stroke="#000000" paint-order="fill stroke markers" d=" M 1582 191 Q 1582 158 870 83" stroke-miterlimit="10" stroke-dasharray=""/></g><g><path fill="#FFFFFF" stroke="none" paint-order="stroke fill markers" d=" M 891.0954725605944 76.75652040563874 L 870 83 L 889.3315584593038 93.50194494055842"/></g><g><path fill="none" stroke="#000000" paint-order="fill stroke markers" d=" M 891.0954725605944 76.75652040563874 L 870 83 L 889.3315584593038 93.50194494055842 L 891.0954725605944 76.75652040563874" stroke-miterlimit="10" stroke-dasharray=""/></g></g></svg>