<svg version="1.1" xmlns="http://www.w3.org/2000/svg" xmlns:xlink="http://www.w3.org/1999/xlink" width="1127" height="350"><defs/><g><g><rect fill="#C0C0C0" stroke="none" x="37" y="297" width="220" height="60" transform="matrix(1 0 0 1 -9 -10)" fill-opacity="0.2"/></g><g><rect fill="#BBDEFB" stroke="none" x="30" y="290" width="220" height="60" transform="matrix(1 0 0 1 -9 -10)"/></g><g><path fill="none" stroke="#000000" paint-order="fill stroke markers" d=" M 21 280 L 241 280 L 241 340 L 21 340 L 21 280 Z Z" stroke-miterlimit="10" stroke-dasharray=""/></g><g><rect fill="#BBDEFB" stroke="none" x="20" y="297" width="20" height="10" transform="matrix(1 0 0 1 -9 -10)"/></g><g><path fill="none" stroke="#000000" paint-order="fill stroke markers" d=" M 11 287 L 31 287 L 31 297 L 11 297 L 11 287 Z Z" stroke-miterlimit="10" stroke-dasharray=""/></g><g><rect fill="#BBDEFB" stroke="none" x="20" y="317" width="20" height="10" transform="matrix(1 0 0 1 -9 -10)"/></g><g><path fill="none" stroke="#000000" paint-order="fill stroke markers" d=" M 11 307 L 31 307 L 31 317 L 11 317 L 11 307 Z Z" stroke-miterlimit="10" stroke-dasharray=""/></g><g><g><path fill="none" stroke="none"/><text fill="#000000" stroke="none" font-family="Arial" font-size="13px" font-style="normal" font-weight="bold" text-decoration="undefined" x="145.5" y="303.5" text-anchor="middle" dominant-baseline="central" transform="matrix(1 0 0 1 -9 -10)">CLI Core (dispatcher)</text></g></g><g><rect fill="#C0C0C0" stroke="none" x="567" y="207" width="240" height="60" transform="matrix(1 0 0 1 -9 -10)" fill-opacity="0.2"/></g><g><rect fill="#C8E6C9" stroke="none" x="560" y="200" width="240" height="60" transform="matrix(1 0 0 1 -9 -10)"/></g><g><path fill="none" stroke="#000000" paint-order="fill stroke markers" d=" M 551 190 L 791 190 L 791 250 L 551 250 L 551 190 Z Z" stroke-miterlimit="10" stroke-dasharray=""/></g><g><rect fill="#C8E6C9" stroke="none" x="550" y="207" width="20" height="10" transform="matrix(1 0 0 1 -9 -10)"/></g><g><path fill="none" stroke="#000000" paint-order="fill stroke markers" d=" M 541 197 L 561 197 L 561 207 L 541 207 L 541 197 Z Z" stroke-miterlimit="10" stroke-dasharray=""/></g><g><rect fill="#C8E6C9" stroke="none" x="550" y="227" width="20" height="10" transform="matrix(1 0 0 1 -9 -10)"/></g><g><path fill="none" stroke="#000000" paint-order="fill stroke markers" d=" M 541 217 L 561 217 L 561 227 L 541 227 L 541 217 Z Z" stroke-miterlimit="10" stroke-dasharray=""/></g><g><g><path fill="none" stroke="none"/><text fill="#000000" stroke="none" font-family="Arial" font-size="13px" font-style="normal" font-weight="bold" text-decoration="undefined" x="685.5" y="213.5" text-anchor="middle" dominant-baseline="central" transform="matrix(1 0 0 1 -9 -10)">Scrapers (17 types)</text></g></g><g><rect fill="#C0C0C0" stroke="none" x="737" y="117" width="240" height="60" transform="matrix(1 0 0 1 -9 -10)" fill-opacity="0.2"/></g><g><rect fill="#C8E6C9" stroke="none" x="730" y="110" width="240" height="60" transform="matrix(1 0 0 1 -9 -10)"/></g><g><path fill="none" stroke="#000000" paint-order="fill stroke markers" d=" M 721 100 L 961 100 L 961 160 L 721 160 L 721 100 Z Z" stroke-miterlimit="10" stroke-dasharray=""/></g><g><rect fill="#C8E6C9" stroke="none" x="720" y="117" width="20" height="10" transform="matrix(1 0 0 1 -9 -10)"/></g><g><path fill="none" stroke="#000000" paint-order="fill stroke markers" d=" M 711 107 L 731 107 L 731 117 L 711 117 L 711 107 Z Z" stroke-miterlimit="10" stroke-dasharray=""/></g><g><rect fill="#C8E6C9" stroke="none" x="720" y="137" width="20" height="10" transform="matrix(1 0 0 1 -9 -10)"/></g><g><path fill="none" stroke="#000000" paint-order="fill stroke markers" d=" M 711 127 L 731 127 L 731 137 L 711 137 L 711 127 Z Z" stroke-miterlimit="10" stroke-dasharray=""/></g><g><g><path fill="none" stroke="none"/><text fill="#000000" stroke="none" font-family="Arial" font-size="13px" font-style="normal" font-weight="bold" text-decoration="undefined" x="855.5" y="123.5" text-anchor="middle" dominant-baseline="central" transform="matrix(1 0 0 1 -9 -10)">Codebase Analysis</text></g></g><g><rect fill="#C0C0C0" stroke="none" x="892" y="27" width="240" height="60" transform="matrix(1 0 0 1 -9 -10)" fill-opacity="0.2"/></g><g><rect fill="#E1BEE7" stroke="none" x="885" y="20" width="240" height="60" transform="matrix(1 0 0 1 -9 -10)"/></g><g><path fill="none" stroke="#000000" paint-order="fill stroke markers" d=" M 876 10 L 1116 10 L 1116 70 L 876 70 L 876 10 Z Z" stroke-miterlimit="10" stroke-dasharray=""/></g><g><rect fill="#E1BEE7" stroke="none" x="875" y="27" width="20" height="10" transform="matrix(1 0 0 1 -9 -10)"/></g><g><path fill="none" stroke="#000000" paint-order="fill stroke markers" d=" M 866 17 L 886 17 L 886 27 L 866 27 L 866 17 Z Z" stroke-miterlimit="10" stroke-dasharray=""/></g><g><rect fill="#E1BEE7" stroke="none" x="875" y="47" width="20" height="10" transform="matrix(1 0 0 1 -9 -10)"/></g><g><path fill="none" stroke="#000000" paint-order="fill stroke markers" d=" M 866 37 L 886 37 L 886 47 L 866 47 L 866 37 Z Z" stroke-miterlimit="10" stroke-dasharray=""/></g><g><g><path fill="none" stroke="none"/><text fill="#000000" stroke="none" font-family="Arial" font-size="13px" font-style="normal" font-weight="bold" text-decoration="undefined" x="1010.5" y="33.5" text-anchor="middle" dominant-baseline="central" transform="matrix(1 0 0 1 -9 -10)">C3.x Classes</text></g></g><g><rect fill="#C0C0C0" stroke="none" x="612" y="27" width="240" height="60" transform="matrix(1 0 0 1 -9 -10)" fill-opacity="0.2"/></g><g><rect fill="#FFECB3" stroke="none" x="605" y="20" width="240" height="60" transform="matrix(1 0 0 1 -9 -10)"/></g><g><path fill="none" stroke="#000000" paint-order="fill stroke markers" d=" M 596 10 L 836 10 L 836 70 L 596 70 L 596 10 Z Z" stroke-miterlimit="10" stroke-dasharray=""/></g><g><rect fill="#FFECB3" stroke="none" x="595" y="27" width="20" height="10" transform="matrix(1 0 0 1 -9 -10)"/></g><g><path fill="none" stroke="#000000" paint-order="fill stroke markers" d=" M 586 17 L 606 17 L 606 27 L 586 27 L 586 17 Z Z" stroke-miterlimit="10" stroke-dasharray=""/></g><g><rect fill="#FFECB3" stroke="none" x="595" y="47" width="20" height="10" transform="matrix(1 0 0 1 -9 -10)"/></g><g><path fill="none" stroke="#000000" paint-order="fill stroke markers" d=" M 586 37 L 606 37 L 606 47 L 586 47 L 586 37 Z Z" stroke-miterlimit="10" stroke-dasharray=""/></g><g><g><path fill="none" stroke="none"/><text fill="#000000" stroke="none" font-family="Arial" font-size="13px" font-style="normal" font-weight="bold" text-decoration="undefined" x="730.5" y="33.5" text-anchor="middle" dominant-baseline="central" transform="matrix(1 0 0 1 -9 -10)">Enhancement</text></g></g><g><rect fill="#C0C0C0" stroke="none" x="177" y="117" width="240" height="60" transform="matrix(1 0 0 1 -9 -10)" fill-opacity="0.2"/></g><g><rect fill="#FFE0B2" stroke="none" x="170" y="110" width="240" height="60" transform="matrix(1 0 0 1 -9 -10)"/></g><g><path fill="none" stroke="#000000" paint-order="fill stroke markers" d=" M 161 100 L 401 100 L 401 160 L 161 160 L 161 100 Z Z" stroke-miterlimit="10" stroke-dasharray=""/></g><g><rect fill="#FFE0B2" stroke="none" x="160" y="117" width="20" height="10" transform="matrix(1 0 0 1 -9 -10)"/></g><g><path fill="none" stroke="#000000" paint-order="fill stroke markers" d=" M 151 107 L 171 107 L 171 117 L 151 117 L 151 107 Z Z" stroke-miterlimit="10" stroke-dasharray=""/></g><g><rect fill="#FFE0B2" stroke="none" x="160" y="137" width="20" height="10" transform="matrix(1 0 0 1 -9 -10)"/></g><g><path fill="none" stroke="#000000" paint-order="fill stroke markers" d=" M 151 127 L 171 127 L 171 137 L 151 137 L 151 127 Z Z" stroke-miterlimit="10" stroke-dasharray=""/></g><g><g><path fill="none" stroke="none"/><text fill="#000000" stroke="none" font-family="Arial" font-size="13px" font-style="normal" font-weight="bold" text-decoration="undefined" x="295.5" y="123.5" text-anchor="middle" dominant-baseline="central" transform="matrix(1 0 0 1 -9 -10)">Adaptors (24+ platforms)</text></g></g><g><rect fill="#C0C0C0" stroke="none" x="302" y="297" width="240" height="60" transform="matrix(1 0 0 1 -9 -10)" fill-opacity="0.2"/></g><g><rect fill="#FFCDD2" stroke="none" x="295" y="290" width="240" height="60" transform="matrix(1 0 0 1 -9 -10)"/></g><g><path fill="none" stroke="#000000" paint-order="fill stroke markers" d=" M 286 280 L 526 280 L 526 340 L 286 340 L 286 280 Z Z" stroke-miterlimit="10" stroke-dasharray=""/></g><g><rect fill="#FFCDD2" stroke="none" x="285" y="297" width="20" height="10" transform="matrix(1 0 0 1 -9 -10)"/></g><g><path fill="none" stroke="#000000" paint-order="fill stroke markers" d=" M 276 287 L 296 287 L 296 297 L 276 297 L 276 287 Z Z" stroke-miterlimit="10" stroke-dasharray=""/></g><g><rect fill="#FFCDD2" stroke="none" x="285" y="317" width="20" height="10" transform="matrix(1 0 0 1 -9 -10)"/></g><g><path fill="none" stroke="#000000" paint-order="fill stroke markers" d=" M 276 307 L 296 307 L 296 317 L 276 317 L 276 307 Z Z" stroke-miterlimit="10" stroke-dasharray=""/></g><g><g><path fill="none" stroke="none"/><text fill="#000000" stroke="none" font-family="Arial" font-size="13px" font-style="normal" font-weight="bold" text-decoration="undefined" x="420.5" y="303.5" text-anchor="middle" dominant-baseline="central" transform="matrix(1 0 0 1 -9 -10)">MCP Server (34 tools)</text></g></g><g><rect fill="#C0C0C0" stroke="none" x="597" y="297" width="240" height="60" transform="matrix(1 0 0 1 -9 -10)" fill-opacity="0.2"/></g><g><rect fill="#FFCDD2" stroke="none" x="590" y="290" width="240" height="60" transform="matrix(1 0 0 1 -9 -10)"/></g><g><path fill="none" stroke="#000000" paint-order="fill stroke markers" d=" M 581 280 L 821 280 L 821 340 L 581 340 L 581 280 Z Z" stroke-miterlimit="10" stroke-dasharray=""/></g><g><rect fill="#FFCDD2" stroke="none" x="580" y="297" width="20" height="10" transform="matrix(1 0 0 1 -9 -10)"/></g><g><path fill="none" stroke="#000000" paint-order="fill stroke markers" d=" M 571 287 L 591 287 L 591 297 L 571 297 L 571 287 Z Z" stroke-miterlimit="10" stroke-dasharray=""/></g><g><rect fill="#FFCDD2" stroke="none" x="580" y="317" width="20" height="10" transform="matrix(1 0 0 1 -9 -10)"/></g><g><path fill="none" stroke="#000000" paint-order="fill stroke markers" d=" M 571 307 L 591 307 L 591 317 L 571 317 L 571 307 Z Z" stroke-miterlimit="10" stroke-dasharray=""/></g><g><g><path fill="none" stroke="none"/><text fill="#000000" stroke="none" font-family="Arial" font-size="13px" font-style="normal" font-weight="bold" text-decoration="undefined" x="715.5" y="303.5" text-anchor="middle" dominant-baseline="central" transform="matrix(1 0 0 1 -9 -10)">Sync Monitor</text></g></g><g><path fill="none" stroke="#000000" paint-order="fill stroke markers" d=" M 209 279 Q 246 265 540 234" stroke-miterlimit="10" stroke-dasharray="3"/></g><g><path fill="none" stroke="#000000" paint-order="fill stroke markers" d=" M 530.3347666281691 239.25197713894934 L 540 234 L 529.45193929144 230.87935659061569" stroke-miterlimit="10" stroke-dasharray=""/></g><g><rect fill="#e9e9e9" stroke="none" x="161" y="254" width="184.6025390625" height="13" transform="matrix(1 0 0 1 -9 -10)"/></g><g><g><path fill="none" stroke="none"/><text fill="#000000" stroke="none" font-family="Arial" font-size="13px" font-style="normal" font-weight="normal" text-decoration="undefined" x="253.30126953125" y="260.5" text-anchor="middle" dominant-baseline="central" transform="matrix(1 0 0 1 -9 -10)">+dispatch → scraper.main(argv)</text></g></g><g><path fill="none" stroke="#000000" paint-order="fill stroke markers" d=" M 116 279 Q 111 265 111 242.5 Q 111 220 111 197.5 Q 111 175 162 161" stroke-miterlimit="10" stroke-dasharray="3"/></g><g><path fill="none" stroke="#000000" paint-order="fill stroke markers" d=" M 153.31419773713995 167.74958065738124 L 162 161 L 151.08553606688636 159.63088457288603" stroke-miterlimit="10" stroke-dasharray=""/></g><g><rect fill="#e9e9e9" stroke="none" x="19" y="223" width="173.80517578125" height="13" transform="matrix(1 0 0 1 -9 -10)"/></g><g><g><path fill="none" stroke="none"/><text fill="#000000" stroke="none" font-family="Arial" font-size="13px" font-style="normal" font-weight="normal" text-decoration="undefined" x="105.902587890625" y="229.5" text-anchor="middle" dominant-baseline="central" transform="matrix(1 0 0 1 -9 -10)">+package / upload commands</text></g></g><g><path fill="none" stroke="#000000" paint-order="fill stroke markers" d=" M 783 189 Q 836 175 836 161" stroke-miterlimit="10" stroke-dasharray="3"/></g><g><path fill="none" stroke="#000000" paint-order="fill stroke markers" d=" M 840.209517756016 171.16267485762415 L 836 161 L 831.790482243984 171.16267485762415" stroke-miterlimit="10" stroke-dasharray=""/></g><g><rect fill="#e9e9e9" stroke="none" x="726" y="178" width="208.51416015625" height="13" transform="matrix(1 0 0 1 -9 -10)"/></g><g><g><path fill="none" stroke="none"/><text fill="#000000" stroke="none" font-family="Arial" font-size="13px" font-style="normal" font-weight="normal" text-decoration="undefined" x="830.257080078125" y="184.5" text-anchor="middle" dominant-baseline="central" transform="matrix(1 0 0 1 -9 -10)">+analyze_codebase(enhance_level)</text></g></g><g><path fill="none" stroke="#000000" paint-order="fill stroke markers" d=" M 943 99 Q 991 85 991 71" stroke-miterlimit="10" stroke-dasharray="3"/></g><g><path fill="none" stroke="#000000" paint-order="fill stroke markers" d=" M 995.209517756016 81.16267485762415 L 991 71 L 986.790482243984 81.16267485762415" stroke-miterlimit="10" stroke-dasharray=""/></g><g><rect fill="#e9e9e9" stroke="none" x="845" y="88" width="280.7060546875" height="13" transform="matrix(1 0 0 1 -9 -10)"/></g><g><g><path fill="none" stroke="none"/><text fill="#000000" stroke="none" font-family="Arial" font-size="13px" font-style="normal" font-weight="normal" text-decoration="undefined" x="985.35302734375" y="94.5" text-anchor="middle" dominant-baseline="central" transform="matrix(1 0 0 1 -9 -10)">+PatternRecognizer / TestExampleExtractor / etc</text></g></g><g><path fill="none" stroke="#000000" paint-order="fill stroke markers" d=" M 750 99 Q 711 85 711 71" stroke-miterlimit="10" stroke-dasharray="3"/></g><g><path fill="none" stroke="#000000" paint-order="fill stroke markers" d=" M 715.209517756016 81.16267485762415 L 711 71 L 706.790482243984 81.16267485762415" stroke-miterlimit="10" stroke-dasharray=""/></g><g><rect fill="#e9e9e9" stroke="none" x="634" y="88" width="142.009765625" height="13" transform="matrix(1 0 0 1 -9 -10)"/></g><g><g><path fill="none" stroke="none"/><text fill="#000000" stroke="none" font-family="Arial" font-size="13px" font-style="normal" font-weight="normal" text-decoration="undefined" x="705.0048828125" y="94.5" text-anchor="middle" dominant-baseline="central" transform="matrix(1 0 0 1 -9 -10)">+AI enhance (level &gt;= 2)</text></g></g><g><path fill="none" stroke="#000000" paint-order="fill stroke markers" d=" M 590 189 Q 556 175 402 150" stroke-miterlimit="10" stroke-dasharray="3"/></g><g><path fill="none" stroke="#000000" paint-order="fill stroke markers" d=" M 412.7058866159637 147.4733437578236 L 402 150 L 411.3568207873325 155.783589262192" stroke-miterlimit="10" stroke-dasharray=""/></g><g><rect fill="#e9e9e9" stroke="none" x="481" y="193" width="163.67431640625" height="13" transform="matrix(1 0 0 1 -9 -10)"/></g><g><g><path fill="none" stroke="none"/><text fill="#000000" stroke="none" font-family="Arial" font-size="13px" font-style="normal" font-weight="normal" text-decoration="undefined" x="562.837158203125" y="199.5" text-anchor="middle" dominant-baseline="central" transform="matrix(1 0 0 1 -9 -10)">+get_adaptor() → package()</text></g></g><g><path fill="none" stroke="#000000" paint-order="fill stroke markers" d=" M 527 289 Q 666 265 666 251" stroke-miterlimit="10" stroke-dasharray="3"/></g><g><path fill="none" stroke="#000000" paint-order="fill stroke markers" d=" M 670.209517756016 261.16267485762415 L 666 251 L 661.790482243984 261.16267485762415" stroke-miterlimit="10" stroke-dasharray=""/></g><g><rect fill="#e9e9e9" stroke="none" x="577" y="268" width="166.5498046875" height="13" transform="matrix(1 0 0 1 -9 -10)"/></g><g><g><path fill="none" stroke="none"/><text fill="#000000" stroke="none" font-family="Arial" font-size="13px" font-style="normal" font-weight="normal" text-decoration="undefined" x="660.27490234375" y="274.5" text-anchor="middle" dominant-baseline="central" transform="matrix(1 0 0 1 -9 -10)">+subprocess (scraping tools)</text></g></g><g><path fill="none" stroke="#000000" paint-order="fill stroke markers" d=" M 315 279 Q 276 265 276 242.5 Q 276 220 276 197.5 Q 276 175 276 161" stroke-miterlimit="10" stroke-dasharray="3"/></g><g><path fill="none" stroke="#000000" paint-order="fill stroke markers" d=" M 280.209517756016 171.16267485762415 L 276 161 L 271.790482243984 171.16267485762415" stroke-miterlimit="10" stroke-dasharray=""/></g><g><rect fill="#e9e9e9" stroke="none" x="180" y="223" width="181.720703125" height="13" transform="matrix(1 0 0 1 -9 -10)"/></g><g><g><path fill="none" stroke="none"/><text fill="#000000" stroke="none" font-family="Arial" font-size="13px" font-style="normal" font-weight="normal" text-decoration="undefined" x="270.8603515625" y="229.5" text-anchor="middle" dominant-baseline="central" transform="matrix(1 0 0 1 -9 -10)">+direct import (packaging tools)</text></g></g><g><path fill="none" stroke="#000000" paint-order="fill stroke markers" d=" M 696 279 Q 696 265 687 251" stroke-miterlimit="10" stroke-dasharray="3"/></g><g><path fill="none" stroke="#000000" paint-order="fill stroke markers" d=" M 696.0364993053871 257.2722946601493 L 687 251 L 688.954587849235 261.8249520248185" stroke-miterlimit="10" stroke-dasharray=""/></g><g><rect fill="#e9e9e9" stroke="none" x="629" y="277" width="126.83251953125" height="13" transform="matrix(1 0 0 1 -9 -10)"/></g><g><g><path fill="none" stroke="none"/><text fill="#000000" stroke="none" font-family="Arial" font-size="13px" font-style="normal" font-weight="normal" text-decoration="undefined" x="692.416259765625" y="283.5" text-anchor="middle" dominant-baseline="central" transform="matrix(1 0 0 1 -9 -10)">+re-scrape on change</text></g></g><g><rect fill="#C0C0C0" stroke="none" x="457" y="117" width="240" height="60" transform="matrix(1 0 0 1 -9 -10)" fill-opacity="0.2"/></g><g><rect fill="#B3E5FC" stroke="none" x="450" y="110" width="240" height="60" transform="matrix(1 0 0 1 -9 -10)"/></g><g><path fill="none" stroke="#000000" paint-order="fill stroke markers" d=" M 441 100 L 681 100 L 681 160 L 441 160 L 441 100 Z Z" stroke-miterlimit="10" stroke-dasharray=""/></g><g><rect fill="#B3E5FC" stroke="none" x="440" y="117" width="20" height="10" transform="matrix(1 0 0 1 -9 -10)"/></g><g><path fill="none" stroke="#000000" paint-order="fill stroke markers" d=" M 431 107 L 451 107 L 451 117 L 431 117 L 431 107 Z Z" stroke-miterlimit="10" stroke-dasharray=""/></g><g><rect fill="#B3E5FC" stroke="none" x="440" y="137" width="20" height="10" transform="matrix(1 0 0 1 -9 -10)"/></g><g><path fill="none" stroke="#000000" paint-order="fill stroke markers" d=" M 431 127 L 451 127 L 451 137 L 431 137 L 431 127 Z Z" stroke-miterlimit="10" stroke-dasharray=""/></g><g><g><path fill="none" stroke="none"/><text fill="#000000" stroke="none" font-family="Arial" font-size="13px" font-style="normal" font-weight="bold" text-decoration="undefined" x="575.5" y="123.5" text-anchor="middle" dominant-baseline="central" transform="matrix(1 0 0 1 -9 -10)">Browser Renderer (Playwright)</text></g></g><g><path fill="none" stroke="#000000" paint-order="fill stroke markers" d=" M 540 196 Q 431 175 470 161" stroke-miterlimit="10" stroke-dasharray="3"/></g><g><path fill="none" stroke="#000000" paint-order="fill stroke markers" d=" M 461.8571922627598 168.3955853151959 L 470 161 L 459.0126969038805 160.47163395831785" stroke-miterlimit="10" stroke-dasharray=""/></g><g><rect fill="#e9e9e9" stroke="none" x="357" y="164" width="155.7080078125" height="13" transform="matrix(1 0 0 1 -9 -10)"/></g><g><g><path fill="none" stroke="none"/><text fill="#000000" stroke="none" font-family="Arial" font-size="13px" font-style="normal" font-weight="normal" text-decoration="undefined" x="434.85400390625" y="170.5" text-anchor="middle" dominant-baseline="central" transform="matrix(1 0 0 1 -9 -10)">+render_page() [--browser]</text></g></g></g></svg>