<svg version="1.1" xmlns="http://www.w3.org/2000/svg" xmlns:xlink="http://www.w3.org/1999/xlink" width="2220" height="920"><defs/><g><g><path fill="none" stroke="#000000" paint-order="fill stroke markers" d=" M 10 10 L 2210 10 L 2210 910 L 10 910 L 10 10" stroke-miterlimit="10" stroke-dasharray=""/></g><g><path fill="#e9e9e9" stroke="none" paint-order="stroke fill markers" d=" M 10 10 L 10 33 L 215.6806640625 33 L 227.1806640625 21.5 L 227.1806640625 10 L 10 10"/></g><g><path fill="none" stroke="#000000" paint-order="fill stroke markers" d=" M 10 10 L 10 33 L 215.6806640625 33 L 227.1806640625 21.5 L 227.1806640625 10 L 10 10 L 10 10" stroke-miterlimit="10" stroke-dasharray=""/></g><g><g><path fill="none" stroke="none"/><text fill="#000000" stroke="none" font-family="Arial" font-size="13px" font-style="normal" font-weight="normal" text-decoration="undefined" x="120.705322265625" y="19.5" text-anchor="middle" dominant-baseline="central" transform="matrix(1 0 0 1 2 2)">GitHub Unified + C3.x Pipeline</text></g></g><g><g><path fill="none" stroke="none"/><text fill="#000000" stroke="none" font-family="Arial" font-size="13px" font-style="normal" font-weight="bold" text-decoration="undefined" x="19.864990234375" y="19.5" text-anchor="middle" dominant-baseline="central" transform="matrix(1 0 0 1 2 2)">sd</text></g></g><g><rect fill="#C0C0C0" stroke="none" x="107" y="47" width="112.47265625" height="40" transform="matrix(1 0 0 1 2 2)" fill-opacity="0.2"/></g><g><rect fill="#e9e9e9" stroke="none" x="100" y="40" width="112.47265625" height="40" transform="matrix(1 0 0 1 2 2)"/></g><g><path fill="none" stroke="#000000" paint-order="fill stroke markers" d=" M 102 42 L 214.47265625 42 L 214.47265625 82 L 102 82 L 102 42 Z Z" stroke-miterlimit="10" stroke-dasharray=""/></g><g><g><path fill="none" stroke="none"/><text fill="#000000" stroke="none" font-family="Arial" font-size="13px" font-style="normal" font-weight="bold" text-decoration="undefined" x="156.736328125" y="53.5" text-anchor="middle" dominant-baseline="central" transform="matrix(1 0 0 1 2 2)">UnifiedScraper</text></g></g><g><path fill="none" stroke="#000000" paint-order="fill stroke markers" d=" M 158.5 83 L 158.5 792" stroke-miterlimit="10" stroke-dasharray="3"/></g><g><rect fill="#C0C0C0" stroke="none" x="357" y="47" width="111.74267578125" height="40" transform="matrix(1 0 0 1 2 2)" fill-opacity="0.2"/></g><g><rect fill="#e9e9e9" stroke="none" x="350" y="40" width="111.74267578125" height="40" transform="matrix(1 0 0 1 2 2)"/></g><g><path fill="none" stroke="#000000" paint-order="fill stroke markers" d=" M 352 42 L 463.74267578125 42 L 463.74267578125 82 L 352 82 L 352 42 Z Z" stroke-miterlimit="10" stroke-dasharray=""/></g><g><g><path fill="none" stroke="none"/><text fill="#000000" stroke="none" font-family="Arial" font-size="13px" font-style="normal" font-weight="bold" text-decoration="undefined" x="406.371337890625" y="53.5" text-anchor="middle" dominant-baseline="central" transform="matrix(1 0 0 1 2 2)">GitHubScraper</text></g></g><g><path fill="none" stroke="#000000" paint-order="fill stroke markers" d=" M 408.5 83 L 408.5 792" stroke-miterlimit="10" stroke-dasharray="3"/></g><g><rect fill="#C0C0C0" stroke="none" x="607" y="47" width="142.83349609375" height="40" transform="matrix(1 0 0 1 2 2)" fill-opacity="0.2"/></g><g><rect fill="#e9e9e9" stroke="none" x="600" y="40" width="142.83349609375" height="40" transform="matrix(1 0 0 1 2 2)"/></g><g><path fill="none" stroke="#000000" paint-order="fill stroke markers" d=" M 602 42 L 744.83349609375 42 L 744.83349609375 82 L 602 82 L 602 42 Z Z" stroke-miterlimit="10" stroke-dasharray=""/></g><g><g><path fill="none" stroke="none"/><text fill="#000000" stroke="none" font-family="Arial" font-size="13px" font-style="normal" font-weight="bold" text-decoration="undefined" x="671.916748046875" y="53.5" text-anchor="middle" dominant-baseline="central" transform="matrix(1 0 0 1 2 2)">analyze_codebase()</text></g></g><g><path fill="none" stroke="#000000" paint-order="fill stroke markers" d=" M 673.5 83 L 673.5 792" stroke-miterlimit="10" stroke-dasharray="3"/></g><g><rect fill="#C0C0C0" stroke="none" x="857" y="47" width="134.86083984375" height="40" transform="matrix(1 0 0 1 2 2)" fill-opacity="0.2"/></g><g><rect fill="#e9e9e9" stroke="none" x="850" y="40" width="134.86083984375" height="40" transform="matrix(1 0 0 1 2 2)"/></g><g><path fill="none" stroke="#000000" paint-order="fill stroke markers" d=" M 852 42 L 986.86083984375 42 L 986.86083984375 82 L 852 82 L 852 42 Z Z" stroke-miterlimit="10" stroke-dasharray=""/></g><g><g><path fill="none" stroke="none"/><text fill="#000000" stroke="none" font-family="Arial" font-size="13px" font-style="normal" font-weight="bold" text-decoration="undefined" x="917.930419921875" y="53.5" text-anchor="middle" dominant-baseline="central" transform="matrix(1 0 0 1 2 2)">PatternRecognizer</text></g></g><g><path fill="none" stroke="#000000" paint-order="fill stroke markers" d=" M 919.5 83 L 919.5 792" stroke-miterlimit="10" stroke-dasharray="3"/></g><g><rect fill="#C0C0C0" stroke="none" x="1107" y="47" width="156.31591796875" height="40" transform="matrix(1 0 0 1 2 2)" fill-opacity="0.2"/></g><g><rect fill="#e9e9e9" stroke="none" x="1100" y="40" width="156.31591796875" height="40" transform="matrix(1 0 0 1 2 2)"/></g><g><path fill="none" stroke="#000000" paint-order="fill stroke markers" d=" M 1102 42 L 1258.31591796875 42 L 1258.31591796875 82 L 1102 82 L 1102 42 Z Z" stroke-miterlimit="10" stroke-dasharray=""/></g><g><g><path fill="none" stroke="none"/><text fill="#000000" stroke="none" font-family="Arial" font-size="13px" font-style="normal" font-weight="bold" text-decoration="undefined" x="1178.657958984375" y="53.5" text-anchor="middle" dominant-baseline="central" transform="matrix(1 0 0 1 2 2)">TestExampleExtractor</text></g></g><g><path fill="none" stroke="#000000" paint-order="fill stroke markers" d=" M 1180.5 83 L 1180.5 792" stroke-miterlimit="10" stroke-dasharray="3"/></g><g><rect fill="#C0C0C0" stroke="none" x="1357" y="47" width="143.97607421875" height="40" transform="matrix(1 0 0 1 2 2)" fill-opacity="0.2"/></g><g><rect fill="#e9e9e9" stroke="none" x="1350" y="40" width="143.97607421875" height="40" transform="matrix(1 0 0 1 2 2)"/></g><g><path fill="none" stroke="#000000" paint-order="fill stroke markers" d=" M 1352 42 L 1495.97607421875 42 L 1495.97607421875 82 L 1352 82 L 1352 42 Z Z" stroke-miterlimit="10" stroke-dasharray=""/></g><g><g><path fill="none" stroke="none"/><text fill="#000000" stroke="none" font-family="Arial" font-size="13px" font-style="normal" font-weight="bold" text-decoration="undefined" x="1422.488037109375" y="53.5" text-anchor="middle" dominant-baseline="central" transform="matrix(1 0 0 1 2 2)">HowToGuideBuilder</text></g></g><g><path fill="none" stroke="#000000" paint-order="fill stroke markers" d=" M 1424.5 83 L 1424.5 792" stroke-miterlimit="10" stroke-dasharray="3"/></g><g><rect fill="#C0C0C0" stroke="none" x="1607" y="47" width="118.22998046875" height="40" transform="matrix(1 0 0 1 2 2)" fill-opacity="0.2"/></g><g><rect fill="#e9e9e9" stroke="none" x="1600" y="40" width="118.22998046875" height="40" transform="matrix(1 0 0 1 2 2)"/></g><g><path fill="none" stroke="#000000" paint-order="fill stroke markers" d=" M 1602 42 L 1720.22998046875 42 L 1720.22998046875 82 L 1602 82 L 1602 42 Z Z" stroke-miterlimit="10" stroke-dasharray=""/></g><g><g><path fill="none" stroke="none"/><text fill="#000000" stroke="none" font-family="Arial" font-size="13px" font-style="normal" font-weight="bold" text-decoration="undefined" x="1659.614990234375" y="53.5" text-anchor="middle" dominant-baseline="central" transform="matrix(1 0 0 1 2 2)">ConfigExtractor</text></g></g><g><path fill="none" stroke="#000000" paint-order="fill stroke markers" d=" M 1661.5 83 L 1661.5 792" stroke-miterlimit="10" stroke-dasharray="3"/></g><g><rect fill="#C0C0C0" stroke="none" x="1857" y="47" width="147.1435546875" height="40" transform="matrix(1 0 0 1 2 2)" fill-opacity="0.2"/></g><g><rect fill="#e9e9e9" stroke="none" x="1850" y="40" width="147.1435546875" height="40" transform="matrix(1 0 0 1 2 2)"/></g><g><path fill="none" stroke="#000000" paint-order="fill stroke markers" d=" M 1852 42 L 1999.1435546875 42 L 1999.1435546875 82 L 1852 82 L 1852 42 Z Z" stroke-miterlimit="10" stroke-dasharray=""/></g><g><g><path fill="none" stroke="none"/><text fill="#000000" stroke="none" font-family="Arial" font-size="13px" font-style="normal" font-weight="bold" text-decoration="undefined" x="1924.07177734375" y="53.5" text-anchor="middle" dominant-baseline="central" transform="matrix(1 0 0 1 2 2)">ArchPatternDetector</text></g></g><g><path fill="none" stroke="#000000" paint-order="fill stroke markers" d=" M 1926.5 83 L 1926.5 792" stroke-miterlimit="10" stroke-dasharray="3"/></g><g><path fill="none" stroke="#000000" paint-order="fill stroke markers" d=" M 159 152 L 401 152" stroke-miterlimit="10" stroke-dasharray=""/></g><g><path fill="#000000" stroke="none" paint-order="stroke fill markers" d=" M 390.83732514237585 156.209517756016 L 401 152 L 390.83732514237585 147.790482243984"/></g><g><path fill="none" stroke="#000000" paint-order="fill stroke markers" d=" M 390.83732514237585 156.209517756016 L 401 152 L 390.83732514237585 147.790482243984 L 390.83732514237585 156.209517756016" stroke-miterlimit="10" stroke-dasharray=""/></g><g><rect fill="#e9e9e9" stroke="none" x="138" y="134" width="281.75341796875" height="13" transform="matrix(1 0 0 1 2 2)"/></g><g><g><path fill="none" stroke="none"/><text fill="#000000" stroke="none" font-family="Arial" font-size="13px" font-style="normal" font-weight="normal" text-decoration="undefined" x="278.876708984375" y="140.5" text-anchor="middle" dominant-baseline="central" transform="matrix(1 0 0 1 2 2)">1 : scrape() [3 streams: Code, Docs, Community]</text></g></g><g><rect fill="#e9e9e9" stroke="none" x="399" y="150" width="14" height="28" transform="matrix(1 0 0 1 2 2)"/></g><g><path fill="none" stroke="#000000" paint-order="fill stroke markers" d=" M 401 152 L 415 152 L 415 180 L 401 180 L 401 152 Z Z" stroke-miterlimit="10" stroke-dasharray=""/></g><g><path fill="none" stroke="#000000" paint-order="fill stroke markers" d=" M 408 212 L 159 212" stroke-miterlimit="10" stroke-dasharray="3"/></g><g><path fill="none" stroke="#000000" paint-order="fill stroke markers" d=" M 169.16267485762415 207.790482243984 L 159 212 L 169.16267485762415 216.209517756016" stroke-miterlimit="10" stroke-dasharray=""/></g><g><rect fill="#e9e9e9" stroke="none" x="141" y="214" width="279.677734375" height="13" transform="matrix(1 0 0 1 2 2)"/></g><g><g><path fill="none" stroke="none"/><text fill="#000000" stroke="none" font-family="Arial" font-size="13px" font-style="normal" font-weight="normal" text-decoration="undefined" x="280.8388671875" y="220.5" text-anchor="middle" dominant-baseline="central" transform="matrix(1 0 0 1 2 2)">2 : github_data {readme, issues, code_structure}</text></g></g><g><path fill="none" stroke="#000000" paint-order="fill stroke markers" d=" M 159 272 L 666 272" stroke-miterlimit="10" stroke-dasharray=""/></g><g><path fill="#000000" stroke="none" paint-order="stroke fill markers" d=" M 655.8373251423759 276.209517756016 L 666 272 L 655.8373251423758 267.790482243984"/></g><g><path fill="none" stroke="#000000" paint-order="fill stroke markers" d=" M 655.8373251423759 276.209517756016 L 666 272 L 655.8373251423758 267.790482243984 L 655.8373251423759 276.209517756016" stroke-miterlimit="10" stroke-dasharray=""/></g><g><rect fill="#e9e9e9" stroke="none" x="288" y="254" width="244.2705078125" height="13" transform="matrix(1 0 0 1 2 2)"/></g><g><g><path fill="none" stroke="none"/><text fill="#000000" stroke="none" font-family="Arial" font-size="13px" font-style="normal" font-weight="normal" text-decoration="undefined" x="410.13525390625" y="260.5" text-anchor="middle" dominant-baseline="central" transform="matrix(1 0 0 1 2 2)">3 : _run_c3_analysis(path, enhance_level)</text></g></g><g><rect fill="#e9e9e9" stroke="none" x="664" y="270" width="14" height="28" transform="matrix(1 0 0 1 2 2)"/></g><g><path fill="none" stroke="#000000" paint-order="fill stroke markers" d=" M 666 272 L 680 272 L 680 300 L 666 300 L 666 272 Z Z" stroke-miterlimit="10" stroke-dasharray=""/></g><g><path fill="none" stroke="#000000" paint-order="fill stroke markers" d=" M 674 332 L 912 332" stroke-miterlimit="10" stroke-dasharray=""/></g><g><path fill="#000000" stroke="none" paint-order="stroke fill markers" d=" M 901.8373251423759 336.209517756016 L 912 332 L 901.8373251423758 327.790482243984"/></g><g><path fill="none" stroke="#000000" paint-order="fill stroke markers" d=" M 901.8373251423759 336.209517756016 L 912 332 L 901.8373251423758 327.790482243984 L 901.8373251423759 336.209517756016" stroke-miterlimit="10" stroke-dasharray=""/></g><g><rect fill="#e9e9e9" stroke="none" x="704" y="314" width="174.1416015625" height="13" transform="matrix(1 0 0 1 2 2)"/></g><g><g><path fill="none" stroke="none"/><text fill="#000000" stroke="none" font-family="Arial" font-size="13px" font-style="normal" font-weight="normal" text-decoration="undefined" x="791.07080078125" y="320.5" text-anchor="middle" dominant-baseline="central" transform="matrix(1 0 0 1 2 2)">4 : C3.1: detect_patterns(files)</text></g></g><g><rect fill="#e9e9e9" stroke="none" x="910" y="330" width="14" height="28" transform="matrix(1 0 0 1 2 2)"/></g><g><path fill="none" stroke="#000000" paint-order="fill stroke markers" d=" M 912 332 L 926 332 L 926 360 L 912 360 L 912 332 Z Z" stroke-miterlimit="10" stroke-dasharray=""/></g><g><path fill="none" stroke="#000000" paint-order="fill stroke markers" d=" M 674 392 L 1173 392" stroke-miterlimit="10" stroke-dasharray=""/></g><g><path fill="#000000" stroke="none" paint-order="stroke fill markers" d=" M 1162.837325142376 396.209517756016 L 1173 392 L 1162.837325142376 387.790482243984"/></g><g><path fill="none" stroke="#000000" paint-order="fill stroke markers" d=" M 1162.837325142376 396.209517756016 L 1173 392 L 1162.837325142376 387.790482243984 L 1162.837325142376 396.209517756016" stroke-miterlimit="10" stroke-dasharray=""/></g><g><rect fill="#e9e9e9" stroke="none" x="808" y="374" width="226.50341796875" height="13" transform="matrix(1 0 0 1 2 2)"/></g><g><g><path fill="none" stroke="none"/><text fill="#000000" stroke="none" font-family="Arial" font-size="13px" font-style="normal" font-weight="normal" text-decoration="undefined" x="921.251708984375" y="380.5" text-anchor="middle" dominant-baseline="central" transform="matrix(1 0 0 1 2 2)">5 : C3.2: extract(test_files) -&gt; examples</text></g></g><g><rect fill="#e9e9e9" stroke="none" x="1171" y="390" width="14" height="28" transform="matrix(1 0 0 1 2 2)"/></g><g><path fill="none" stroke="#000000" paint-order="fill stroke markers" d=" M 1173 392 L 1187 392 L 1187 420 L 1173 420 L 1173 392 Z Z" stroke-miterlimit="10" stroke-dasharray=""/></g><g><path fill="none" stroke="#000000" paint-order="fill stroke markers" d=" M 674 452 L 1417 452" stroke-miterlimit="10" stroke-dasharray=""/></g><g><path fill="#000000" stroke="none" paint-order="stroke fill markers" d=" M 1406.837325142376 456.209517756016 L 1417 452 L 1406.837325142376 447.790482243984"/></g><g><path fill="none" stroke="#000000" paint-order="fill stroke markers" d=" M 1406.837325142376 456.209517756016 L 1417 452 L 1406.837325142376 447.790482243984 L 1406.837325142376 456.209517756016" stroke-miterlimit="10" stroke-dasharray=""/></g><g><rect fill="#e9e9e9" stroke="none" x="900" y="434" width="286.14599609375" height="13" transform="matrix(1 0 0 1 2 2)"/></g><g><g><path fill="none" stroke="none"/><text fill="#000000" stroke="none" font-family="Arial" font-size="13px" font-style="normal" font-weight="normal" text-decoration="undefined" x="1043.072998046875" y="440.5" text-anchor="middle" dominant-baseline="central" transform="matrix(1 0 0 1 2 2)">6 : C3.3: build_guides_from_examples(examples)</text></g></g><g><rect fill="#e9e9e9" stroke="none" x="1415" y="450" width="14" height="28" transform="matrix(1 0 0 1 2 2)"/></g><g><path fill="none" stroke="#000000" paint-order="fill stroke markers" d=" M 1417 452 L 1431 452 L 1431 480 L 1417 480 L 1417 452 Z Z" stroke-miterlimit="10" stroke-dasharray=""/></g><g><path fill="none" stroke="#000000" paint-order="fill stroke markers" d=" M 674 512 L 1654 512" stroke-miterlimit="10" stroke-dasharray=""/></g><g><path fill="#000000" stroke="none" paint-order="stroke fill markers" d=" M 1643.837325142376 516.209517756016 L 1654 512 L 1643.837325142376 507.790482243984"/></g><g><path fill="none" stroke="#000000" paint-order="fill stroke markers" d=" M 1643.837325142376 516.209517756016 L 1654 512 L 1643.837325142376 507.790482243984 L 1643.837325142376 516.209517756016" stroke-miterlimit="10" stroke-dasharray=""/></g><g><rect fill="#e9e9e9" stroke="none" x="1054" y="494" width="216.02978515625" height="13" transform="matrix(1 0 0 1 2 2)"/></g><g><g><path fill="none" stroke="none"/><text fill="#000000" stroke="none" font-family="Arial" font-size="13px" font-style="normal" font-weight="normal" text-decoration="undefined" x="1162.014892578125" y="500.5" text-anchor="middle" dominant-baseline="central" transform="matrix(1 0 0 1 2 2)">7 : C3.4: extract_from_directory(path)</text></g></g><g><rect fill="#e9e9e9" stroke="none" x="1652" y="510" width="14" height="28" transform="matrix(1 0 0 1 2 2)"/></g><g><path fill="none" stroke="#000000" paint-order="fill stroke markers" d=" M 1654 512 L 1668 512 L 1668 540 L 1654 540 L 1654 512 Z Z" stroke-miterlimit="10" stroke-dasharray=""/></g><g><path fill="none" stroke="#000000" paint-order="fill stroke markers" d=" M 674 572 L 1919 572" stroke-miterlimit="10" stroke-dasharray=""/></g><g><path fill="#000000" stroke="none" paint-order="stroke fill markers" d=" M 1908.837325142376 576.209517756016 L 1919 572 L 1908.837325142376 567.790482243984"/></g><g><path fill="none" stroke="#000000" paint-order="fill stroke markers" d=" M 1908.837325142376 576.209517756016 L 1919 572 L 1908.837325142376 567.790482243984 L 1908.837325142376 576.209517756016" stroke-miterlimit="10" stroke-dasharray=""/></g><g><rect fill="#e9e9e9" stroke="none" x="1216" y="554" width="156.0634765625" height="13" transform="matrix(1 0 0 1 2 2)"/></g><g><g><path fill="none" stroke="none"/><text fill="#000000" stroke="none" font-family="Arial" font-size="13px" font-style="normal" font-weight="normal" text-decoration="undefined" x="1294.03173828125" y="560.5" text-anchor="middle" dominant-baseline="central" transform="matrix(1 0 0 1 2 2)">8 : C3.5: analyze(directory)</text></g></g><g><rect fill="#e9e9e9" stroke="none" x="1917" y="570" width="14" height="28" transform="matrix(1 0 0 1 2 2)"/></g><g><path fill="none" stroke="#000000" paint-order="fill stroke markers" d=" M 1919 572 L 1933 572 L 1933 600 L 1919 600 L 1919 572 Z Z" stroke-miterlimit="10" stroke-dasharray=""/></g><g><path fill="none" stroke="#000000" paint-order="fill stroke markers" d=" M 673 642 L 159 642" stroke-miterlimit="10" stroke-dasharray="3"/></g><g><path fill="none" stroke="#000000" paint-order="fill stroke markers" d=" M 169.16267485762415 637.790482243984 L 159 642 L 169.16267485762415 646.209517756016" stroke-miterlimit="10" stroke-dasharray=""/></g><g><rect fill="#e9e9e9" stroke="none" x="236" y="644" width="355.544921875" height="13" transform="matrix(1 0 0 1 2 2)"/></g><g><g><path fill="none" stroke="none"/><text fill="#000000" stroke="none" font-family="Arial" font-size="13px" font-style="normal" font-weight="normal" text-decoration="undefined" x="413.7724609375" y="650.5" text-anchor="middle" dominant-baseline="central" transform="matrix(1 0 0 1 2 2)">9 : c3_data {patterns, examples, guides, configs, architecture}</text></g></g></g></svg>