<svg version="1.1" xmlns="http://www.w3.org/2000/svg" xmlns:xlink="http://www.w3.org/1999/xlink" width="1420" height="770"><defs/><g><g><path fill="none" stroke="#000000" paint-order="fill stroke markers" d=" M 10 10 L 1410 10 L 1410 760 L 10 760 L 10 10" stroke-miterlimit="10" stroke-dasharray=""/></g><g><path fill="#e9e9e9" stroke="none" paint-order="stroke fill markers" d=" M 10 10 L 10 33 L 182.0634765625 33 L 193.5634765625 21.5 L 193.5634765625 10 L 10 10"/></g><g><path fill="none" stroke="#000000" paint-order="fill stroke markers" d=" M 10 10 L 10 33 L 182.0634765625 33 L 193.5634765625 21.5 L 193.5634765625 10 L 10 10 L 10 10" stroke-miterlimit="10" stroke-dasharray=""/></g><g><g><path fill="none" stroke="none"/><text fill="#000000" stroke="none" font-family="Arial" font-size="13px" font-style="normal" font-weight="normal" text-decoration="undefined" x="103.896728515625" y="19.5" text-anchor="middle" dominant-baseline="central" transform="matrix(1 0 0 1 2 2)">Browser Rendering Flow</text></g></g><g><g><path fill="none" stroke="none"/><text fill="#000000" stroke="none" font-family="Arial" font-size="13px" font-style="normal" font-weight="bold" text-decoration="undefined" x="19.864990234375" y="19.5" text-anchor="middle" dominant-baseline="central" transform="matrix(1 0 0 1 2 2)">sd</text></g></g><g><rect fill="#C0C0C0" stroke="none" x="107" y="47" width="100" height="40" transform="matrix(1 0 0 1 2 2)" fill-opacity="0.2"/></g><g><rect fill="#e9e9e9" stroke="none" x="100" y="40" width="100" height="40" transform="matrix(1 0 0 1 2 2)"/></g><g><path fill="none" stroke="#000000" paint-order="fill stroke markers" d=" M 102 42 L 202 42 L 202 82 L 102 82 L 102 42 Z Z" stroke-miterlimit="10" stroke-dasharray=""/></g><g><g><path fill="none" stroke="none"/><text fill="#000000" stroke="none" font-family="Arial" font-size="13px" font-style="normal" font-weight="bold" text-decoration="undefined" x="150.5" y="53.5" text-anchor="middle" dominant-baseline="central" transform="matrix(1 0 0 1 2 2)">DocScraper</text></g></g><g><path fill="none" stroke="#000000" paint-order="fill stroke markers" d=" M 152.5 83 L 152.5 654" stroke-miterlimit="10" stroke-dasharray="3"/></g><g><rect fill="#C0C0C0" stroke="none" x="407" y="47" width="129.09716796875" height="40" transform="matrix(1 0 0 1 2 2)" fill-opacity="0.2"/></g><g><rect fill="#e9e9e9" stroke="none" x="400" y="40" width="129.09716796875" height="40" transform="matrix(1 0 0 1 2 2)"/></g><g><path fill="none" stroke="#000000" paint-order="fill stroke markers" d=" M 402 42 L 531.09716796875 42 L 531.09716796875 82 L 402 82 L 402 42 Z Z" stroke-miterlimit="10" stroke-dasharray=""/></g><g><g><path fill="none" stroke="none"/><text fill="#000000" stroke="none" font-family="Arial" font-size="13px" font-style="normal" font-weight="bold" text-decoration="undefined" x="465.048583984375" y="53.5" text-anchor="middle" dominant-baseline="central" transform="matrix(1 0 0 1 2 2)">BrowserRenderer</text></g></g><g><path fill="none" stroke="#000000" paint-order="fill stroke markers" d=" M 467.5 83 L 467.5 642" stroke-miterlimit="10" stroke-dasharray="3"/></g><g><rect fill="#C0C0C0" stroke="none" x="707" y="47" width="163.00634765625" height="40" transform="matrix(1 0 0 1 2 2)" fill-opacity="0.2"/></g><g><rect fill="#e9e9e9" stroke="none" x="700" y="40" width="163.00634765625" height="40" transform="matrix(1 0 0 1 2 2)"/></g><g><path fill="none" stroke="#000000" paint-order="fill stroke markers" d=" M 702 42 L 865.00634765625 42 L 865.00634765625 82 L 702 82 L 702 42 Z Z" stroke-miterlimit="10" stroke-dasharray=""/></g><g><g><path fill="none" stroke="none"/><text fill="#000000" stroke="none" font-family="Arial" font-size="13px" font-style="normal" font-weight="bold" text-decoration="undefined" x="782.003173828125" y="53.5" text-anchor="middle" dominant-baseline="central" transform="matrix(1 0 0 1 2 2)">Playwright (Chromium)</text></g></g><g><path fill="none" stroke="#000000" paint-order="fill stroke markers" d=" M 784.5 83 L 784.5 642" stroke-miterlimit="10" stroke-dasharray="3"/></g><g><rect fill="#C0C0C0" stroke="none" x="1007" y="47" width="108.10546875" height="40" transform="matrix(1 0 0 1 2 2)" fill-opacity="0.2"/></g><g><rect fill="#e9e9e9" stroke="none" x="1000" y="40" width="108.10546875" height="40" transform="matrix(1 0 0 1 2 2)"/></g><g><path fill="none" stroke="#000000" paint-order="fill stroke markers" d=" M 1002 42 L 1110.10546875 42 L 1110.10546875 82 L 1002 82 L 1002 42 Z Z" stroke-miterlimit="10" stroke-dasharray=""/></g><g><g><path fill="none" stroke="none"/><text fill="#000000" stroke="none" font-family="Arial" font-size="13px" font-style="normal" font-weight="bold" text-decoration="undefined" x="1054.552734375" y="53.5" text-anchor="middle" dominant-baseline="central" transform="matrix(1 0 0 1 2 2)">BeautifulSoup</text></g></g><g><path fill="none" stroke="#000000" paint-order="fill stroke markers" d=" M 1056.5 83 L 1056.5 642" stroke-miterlimit="10" stroke-dasharray="3"/></g><g><path fill="none" stroke="#000000" paint-order="fill stroke markers" d=" M 153 152 L 183 152 L 183 172 L 159 172" stroke-miterlimit="10" stroke-dasharray=""/></g><g><path fill="#000000" stroke="none" paint-order="stroke fill markers" d=" M 169.16267485762415 167.790482243984 L 159 172 L 169.16267485762415 176.209517756016"/></g><g><path fill="none" stroke="#000000" paint-order="fill stroke markers" d=" M 169.16267485762415 167.790482243984 L 159 172 L 169.16267485762415 176.209517756016 L 169.16267485762415 167.790482243984" stroke-miterlimit="10" stroke-dasharray=""/></g><g><rect fill="#e9e9e9" stroke="none" x="81" y="153" width="218.20068359375" height="13" transform="matrix(1 0 0 1 2 2)"/></g><g><g><path fill="none" stroke="none"/><text fill="#000000" stroke="none" font-family="Arial" font-size="13px" font-style="normal" font-weight="normal" text-decoration="undefined" x="190.100341796875" y="159.5" text-anchor="middle" dominant-baseline="central" transform="matrix(1 0 0 1 2 2)">1 : scrape_page(url) [--browser mode]</text></g></g><g><rect fill="#e9e9e9" stroke="none" x="143" y="170" width="14" height="28" transform="matrix(1 0 0 1 2 2)"/></g><g><path fill="none" stroke="#000000" paint-order="fill stroke markers" d=" M 145 172 L 159 172 L 159 200 L 145 200 L 145 172 Z Z" stroke-miterlimit="10" stroke-dasharray=""/></g><g><path fill="none" stroke="#000000" paint-order="fill stroke markers" d=" M 153 212 L 460 212" stroke-miterlimit="10" stroke-dasharray=""/></g><g><path fill="#000000" stroke="none" paint-order="stroke fill markers" d=" M 449.83732514237585 216.209517756016 L 460 212 L 449.83732514237585 207.790482243984"/></g><g><path fill="none" stroke="#000000" paint-order="fill stroke markers" d=" M 449.83732514237585 216.209517756016 L 460 212 L 449.83732514237585 207.790482243984 L 449.83732514237585 216.209517756016" stroke-miterlimit="10" stroke-dasharray=""/></g><g><rect fill="#e9e9e9" stroke="none" x="247" y="194" width="114.89892578125" height="13" transform="matrix(1 0 0 1 2 2)"/></g><g><g><path fill="none" stroke="none"/><text fill="#000000" stroke="none" font-family="Arial" font-size="13px" font-style="normal" font-weight="normal" text-decoration="undefined" x="304.449462890625" y="200.5" text-anchor="middle" dominant-baseline="central" transform="matrix(1 0 0 1 2 2)">2 : render_page(url)</text></g></g><g><rect fill="#e9e9e9" stroke="none" x="458" y="210" width="14" height="28" transform="matrix(1 0 0 1 2 2)"/></g><g><path fill="none" stroke="#000000" paint-order="fill stroke markers" d=" M 460 212 L 474 212 L 474 240 L 460 240 L 460 212 Z Z" stroke-miterlimit="10" stroke-dasharray=""/></g><g><path fill="none" stroke="#000000" paint-order="fill stroke markers" d=" M 468 272 L 498 272 L 498 292 L 474 292" stroke-miterlimit="10" stroke-dasharray=""/></g><g><path fill="#000000" stroke="none" paint-order="stroke fill markers" d=" M 484.16267485762415 287.790482243984 L 474 292 L 484.16267485762415 296.209517756016"/></g><g><path fill="none" stroke="#000000" paint-order="fill stroke markers" d=" M 484.16267485762415 287.790482243984 L 474 292 L 484.16267485762415 296.209517756016 L 484.16267485762415 287.790482243984" stroke-miterlimit="10" stroke-dasharray=""/></g><g><rect fill="#e9e9e9" stroke="none" x="346" y="273" width="318.65234375" height="13" transform="matrix(1 0 0 1 2 2)"/></g><g><g><path fill="none" stroke="none"/><text fill="#000000" stroke="none" font-family="Arial" font-size="13px" font-style="normal" font-weight="normal" text-decoration="undefined" x="505.326171875" y="279.5" text-anchor="middle" dominant-baseline="central" transform="matrix(1 0 0 1 2 2)">3 : _ensure_browser() [auto-install chromium if needed]</text></g></g><g><rect fill="#e9e9e9" stroke="none" x="458" y="290" width="14" height="28" transform="matrix(1 0 0 1 2 2)"/></g><g><path fill="none" stroke="#000000" paint-order="fill stroke markers" d=" M 460 292 L 474 292 L 474 320 L 460 320 L 460 292 Z Z" stroke-miterlimit="10" stroke-dasharray=""/></g><g><path fill="none" stroke="#000000" paint-order="fill stroke markers" d=" M 468 342 L 777 342" stroke-miterlimit="10" stroke-dasharray=""/></g><g><path fill="#000000" stroke="none" paint-order="stroke fill markers" d=" M 766.8373251423759 346.209517756016 L 777 342 L 766.8373251423758 337.790482243984"/></g><g><path fill="none" stroke="#000000" paint-order="fill stroke markers" d=" M 766.8373251423759 346.209517756016 L 777 342 L 766.8373251423758 337.790482243984 L 766.8373251423759 346.209517756016" stroke-miterlimit="10" stroke-dasharray=""/></g><g><rect fill="#e9e9e9" stroke="none" x="501" y="324" width="238.7353515625" height="13" transform="matrix(1 0 0 1 2 2)"/></g><g><g><path fill="none" stroke="none"/><text fill="#000000" stroke="none" font-family="Arial" font-size="13px" font-style="normal" font-weight="normal" text-decoration="undefined" x="620.36767578125" y="330.5" text-anchor="middle" dominant-baseline="central" transform="matrix(1 0 0 1 2 2)">4 : page.goto(url, wait_until='networkidle')</text></g></g><g><rect fill="#e9e9e9" stroke="none" x="775" y="340" width="14" height="28" transform="matrix(1 0 0 1 2 2)"/></g><g><path fill="none" stroke="#000000" paint-order="fill stroke markers" d=" M 777 342 L 791 342 L 791 370 L 777 370 L 777 342 Z Z" stroke-miterlimit="10" stroke-dasharray=""/></g><g><path fill="none" stroke="#000000" paint-order="fill stroke markers" d=" M 784 412 L 468 412" stroke-miterlimit="10" stroke-dasharray="3"/></g><g><path fill="none" stroke="#000000" paint-order="fill stroke markers" d=" M 478.16267485762415 407.790482243984 L 468 412 L 478.16267485762415 416.209517756016" stroke-miterlimit="10" stroke-dasharray=""/></g><g><rect fill="#e9e9e9" stroke="none" x="512" y="414" width="223.2724609375" height="13" transform="matrix(1 0 0 1 2 2)"/></g><g><g><path fill="none" stroke="none"/><text fill="#000000" stroke="none" font-family="Arial" font-size="13px" font-style="normal" font-weight="normal" text-decoration="undefined" x="623.63623046875" y="420.5" text-anchor="middle" dominant-baseline="central" transform="matrix(1 0 0 1 2 2)">5 : page.content() [JS-rendered HTML]</text></g></g><g><path fill="none" stroke="#000000" paint-order="fill stroke markers" d=" M 467 472 L 153 472" stroke-miterlimit="10" stroke-dasharray="3"/></g><g><path fill="none" stroke="#000000" paint-order="fill stroke markers" d=" M 163.16267485762415 467.790482243984 L 153 472 L 163.16267485762415 476.209517756016" stroke-miterlimit="10" stroke-dasharray=""/></g><g><rect fill="#e9e9e9" stroke="none" x="235" y="474" width="144.50439453125" height="13" transform="matrix(1 0 0 1 2 2)"/></g><g><g><path fill="none" stroke="none"/><text fill="#000000" stroke="none" font-family="Arial" font-size="13px" font-style="normal" font-weight="normal" text-decoration="undefined" x="307.252197265625" y="480.5" text-anchor="middle" dominant-baseline="central" transform="matrix(1 0 0 1 2 2)">6 : rendered HTML string</text></g></g><g><path fill="none" stroke="#000000" paint-order="fill stroke markers" d=" M 153 532 L 1049 532" stroke-miterlimit="10" stroke-dasharray=""/></g><g><path fill="#000000" stroke="none" paint-order="stroke fill markers" d=" M 1038.837325142376 536.209517756016 L 1049 532 L 1038.837325142376 527.790482243984"/></g><g><path fill="none" stroke="#000000" paint-order="fill stroke markers" d=" M 1038.837325142376 536.209517756016 L 1049 532 L 1038.837325142376 527.790482243984 L 1038.837325142376 536.209517756016" stroke-miterlimit="10" stroke-dasharray=""/></g><g><rect fill="#e9e9e9" stroke="none" x="495" y="514" width="209.44091796875" height="13" transform="matrix(1 0 0 1 2 2)"/></g><g><g><path fill="none" stroke="none"/><text fill="#000000" stroke="none" font-family="Arial" font-size="13px" font-style="normal" font-weight="normal" text-decoration="undefined" x="599.720458984375" y="520.5" text-anchor="middle" dominant-baseline="central" transform="matrix(1 0 0 1 2 2)">7 : BeautifulSoup(html, 'html.parser')</text></g></g><g><rect fill="#e9e9e9" stroke="none" x="1047" y="530" width="14" height="28" transform="matrix(1 0 0 1 2 2)"/></g><g><path fill="none" stroke="#000000" paint-order="fill stroke markers" d=" M 1049 532 L 1063 532 L 1063 560 L 1049 560 L 1049 532 Z Z" stroke-miterlimit="10" stroke-dasharray=""/></g><g><path fill="none" stroke="#000000" paint-order="fill stroke markers" d=" M 153 592 L 183 592 L 183 612 L 159 612" stroke-miterlimit="10" stroke-dasharray=""/></g><g><path fill="#000000" stroke="none" paint-order="stroke fill markers" d=" M 169.16267485762415 607.790482243984 L 159 612 L 169.16267485762415 616.209517756016"/></g><g><path fill="none" stroke="#000000" paint-order="fill stroke markers" d=" M 169.16267485762415 607.790482243984 L 159 612 L 169.16267485762415 616.209517756016 L 169.16267485762415 607.790482243984" stroke-miterlimit="10" stroke-dasharray=""/></g><g><rect fill="#e9e9e9" stroke="none" x="48" y="593" width="285.80322265625" height="13" transform="matrix(1 0 0 1 2 2)"/></g><g><g><path fill="none" stroke="none"/><text fill="#000000" stroke="none" font-family="Arial" font-size="13px" font-style="normal" font-weight="normal" text-decoration="undefined" x="190.901611328125" y="599.5" text-anchor="middle" dominant-baseline="central" transform="matrix(1 0 0 1 2 2)">8 : extract_content(soup, url) -&gt; save_page(page)</text></g></g><g><rect fill="#e9e9e9" stroke="none" x="143" y="610" width="14" height="28" transform="matrix(1 0 0 1 2 2)"/></g><g><path fill="none" stroke="#000000" paint-order="fill stroke markers" d=" M 145 612 L 159 612 L 159 640 L 145 640 L 145 612 Z Z" stroke-miterlimit="10" stroke-dasharray=""/></g></g></svg>